<svg width="48" height="48" viewBox="0 0 48 48" fill="none" xmlns="http://www.w3.org/2000/svg">
<rect width="48" height="48" fill="#060609"/>
<path fill-rule="evenodd" clip-rule="evenodd" d="M25.3631 30.4158C23.5611 30.8978 21.6555 30.9389 19.8113 30.5167C17.0894 29.8935 14.6862 28.3035 13.0481 26.0421C11.4101 23.7807 10.6485 21.0017 10.905 18.2211C11.1614 15.4406 12.4183 12.8477 14.4423 10.924C16.4663 9.00028 19.1197 7.87663 21.9097 7.76174C24.6996 7.64686 27.4365 8.54855 29.6117 10.2993C31.787 12.0501 33.2529 14.5309 33.7371 17.2809C34.1564 19.6626 33.8146 22.106 32.7759 24.2693L28.2398 20.3528C28.3342 19.9302 28.384 19.4907 28.384 19.0397C28.384 15.726 25.6977 13.0397 22.384 13.0397C19.0702 13.0397 16.384 15.726 16.384 19.0397C16.384 22.3534 19.0702 25.0397 22.384 25.0397C23.4737 25.0397 24.4956 24.7492 25.3764 24.2414L36.9174 34.2064C35.678 35.4739 34.2761 36.5794 32.7442 37.492C30.1409 39.0428 27.2267 39.9983 24.2105 40.29C21.1944 40.5816 18.1511 40.2021 15.2989 39.1787C12.4467 38.1553 9.85639 36.5133 7.7137 34.3706L4.5918 37.4925C7.19516 40.0959 10.3424 42.0909 13.8078 43.3343C17.2732 44.5777 20.9708 45.0388 24.6354 44.6845C28.3 44.3302 31.8408 43.1693 35.0038 41.285C37.7035 39.6767 40.0709 37.5754 41.9852 35.0953L43.407 33.4487L36.3093 27.3203C38.1973 24.0507 38.8763 20.217 38.2204 16.4916C37.5451 12.6556 35.5003 9.19512 32.466 6.75297C29.4317 4.31082 25.6141 3.05305 21.7224 3.2133C17.8306 3.37356 14.1294 4.94094 11.3061 7.6243C8.48287 10.3077 6.72956 13.9246 6.37189 17.8031C6.01422 21.6817 7.07652 25.5582 9.36143 28.7126C11.6464 31.867 14.9986 34.0849 18.7953 34.9541C22.3296 35.7633 26.0255 35.3527 29.286 33.803L25.3631 30.4158Z" fill="white"/>
</svg>
