<svg width="40" height="40" viewBox="0 0 40 40" fill="none" xmlns="http://www.w3.org/2000/svg">
<rect width="40" height="40" fill="white"/>
<path fill-rule="evenodd" clip-rule="evenodd" d="M21.1366 25.3465C19.6349 25.7482 18.0469 25.7824 16.5101 25.4305C14.2418 24.9112 12.2391 23.5863 10.8741 21.7018C9.50906 19.8173 8.87443 17.5014 9.08811 15.1843C9.30179 12.8672 10.3492 10.7064 12.0359 9.10329C13.7225 7.50022 15.9337 6.56384 18.2587 6.4681C20.5837 6.37236 22.8644 7.12378 24.6771 8.58275C26.4898 10.0417 27.7114 12.1091 28.1149 14.4008C28.4643 16.3855 28.1795 18.4217 27.3139 20.2244L23.5339 16.9606C23.6125 16.6084 23.6539 16.2423 23.6539 15.8664C23.6539 13.105 21.4154 10.8664 18.6539 10.8664C15.8925 10.8664 13.6539 13.105 13.6539 15.8664C13.6539 18.6278 15.8925 20.8664 18.6539 20.8664C19.562 20.8664 20.4136 20.6243 21.1476 20.2011L30.7651 28.5053C29.7324 29.5616 28.5641 30.4828 27.2875 31.2433C25.1181 32.5357 22.6895 33.3319 20.1761 33.575C17.6626 33.818 15.1265 33.5017 12.7497 32.6489C10.3729 31.796 8.21431 30.4278 6.42874 28.6422L3.82715 31.2438C5.99662 33.4132 8.61932 35.0757 11.5071 36.1119C14.395 37.1481 17.4763 37.5323 20.5302 37.2371C23.584 36.9418 26.5347 35.9744 29.1705 34.4041C31.4203 33.0639 33.3931 31.3128 34.9883 29.2461L36.1731 27.8739L30.2584 22.7669C31.8317 20.0422 32.3975 16.8475 31.851 13.743C31.2882 10.5463 29.5842 7.66258 27.0557 5.62746C24.5271 3.59233 21.3457 2.54419 18.1026 2.67774C14.8595 2.81128 11.7751 4.11744 9.42242 6.35356C7.06971 8.58969 5.60862 11.6038 5.31056 14.8359C5.0125 18.068 5.89775 21.2985 7.80185 23.9272C9.70595 26.5559 12.4995 28.404 15.6634 29.1284C18.6087 29.8027 21.6885 29.4606 24.4057 28.1692L21.1366 25.3465Z" fill="#3E3EA1"/>
</svg>
