<svg width="32" height="32" viewBox="0 0 32 32" fill="none" xmlns="http://www.w3.org/2000/svg">
<rect width="32" height="32" fill="#060609"/>
<path fill-rule="evenodd" clip-rule="evenodd" d="M16.6666 19.1519C15.7836 19.3879 14.8499 19.4079 13.9463 19.201C12.6121 18.8956 11.4341 18.1162 10.6312 17.0077C9.82822 15.8992 9.45492 14.537 9.58061 13.174C9.70629 11.8111 10.3224 10.54 11.3145 9.59709C12.3067 8.65413 13.6073 8.10334 14.9749 8.04703C16.3425 7.99071 17.684 8.4327 18.7503 9.2909C19.8166 10.1491 20.5351 11.3651 20.7725 12.7132C20.9779 13.8799 20.8107 15.0769 20.3022 16.1369L18.0786 14.217C18.1246 14.0103 18.1489 13.7954 18.1489 13.5748C18.1489 11.9505 16.8322 10.6337 15.2078 10.6337C13.5835 10.6337 12.2668 11.9505 12.2668 13.5748C12.2668 15.1991 13.5835 16.5159 15.2078 16.5159C15.7425 16.5159 16.2439 16.3732 16.6759 16.1239L22.329 21.005C21.7218 21.6258 21.0351 22.1673 20.2846 22.6144C19.0085 23.3746 17.58 23.8429 16.1016 23.9859C14.6231 24.1288 13.1313 23.9428 11.7333 23.4411C10.3352 22.9395 9.06546 22.1346 8.01516 21.0843L6.48486 22.6146C7.76098 23.8908 9.3037 24.8686 11.0024 25.4782C12.701 26.0877 14.5135 26.3137 16.3098 26.14C18.1062 25.9663 19.8418 25.3973 21.3922 24.4736C22.3427 23.9074 23.2092 23.2165 23.9697 22.4216L23.9701 22.422L23.9776 22.4134C24.2597 22.118 24.5271 21.8083 24.7788 21.4854L25.5125 20.6357L22.0343 17.6325C22.959 16.0302 23.2915 14.1517 22.9701 12.3263C22.6391 10.4459 21.6368 8.74964 20.1494 7.55255C18.6621 6.35545 16.7907 5.73892 14.8831 5.81747C12.9754 5.89602 11.1612 6.66433 9.77725 7.97965C8.39335 9.29498 7.53391 11.0679 7.35859 12.9691C7.18327 14.8703 7.70398 16.7705 8.82401 18.3167C9.94403 19.863 11.5872 20.9501 13.4483 21.3762C15.1804 21.7728 16.9917 21.5717 18.5897 20.8124L16.6666 19.1519Z" fill="white"/>
</svg>
