<svg width="800" height="149" viewBox="0 0 800 149" fill="none" xmlns="http://www.w3.org/2000/svg">
<path d="M73.7757 92.4312C68.7649 93.7715 63.466 93.8857 58.3378 92.7116C50.769 90.9787 44.0864 86.5575 39.5315 80.2693C34.9766 73.981 32.8589 66.2532 33.5719 58.5214C34.2849 50.7896 37.7801 43.5794 43.4082 38.2302C49.0363 32.881 56.4147 29.7564 64.1727 29.437C71.9308 29.1175 79.5411 31.6248 85.5899 36.4932C91.6388 41.3616 95.7149 48.26 97.0612 55.907C98.2271 62.5298 97.2769 69.3242 94.3884 75.3397L81.775 64.4488C82.0373 63.2736 82.1757 62.0517 82.1757 60.7975C82.1757 51.5831 74.706 44.1133 65.4915 44.1133C56.2771 44.1133 48.8073 51.5831 48.8073 60.7975C48.8073 70.012 56.2771 77.4817 65.4915 77.4817C68.5217 77.4817 71.3632 76.6739 73.8125 75.2619L105.905 102.972C102.458 106.496 98.5601 109.57 94.3003 112.108C87.0613 116.42 78.9577 119.077 70.5707 119.888C62.1836 120.699 53.7211 119.644 45.7901 116.798C37.859 113.952 30.6561 109.387 24.6979 103.428L16.0168 112.109C23.256 119.349 32.0076 124.896 41.6438 128.354C51.2799 131.811 61.5619 133.093 71.7521 132.108C81.9424 131.123 91.7882 127.895 100.584 122.655C108.091 118.183 114.674 112.34 119.997 105.443L123.95 100.865L104.214 83.8234C109.464 74.7316 111.352 64.0714 109.528 53.7122C107.65 43.0454 101.964 33.4228 93.5267 26.6319C85.0892 19.841 74.4736 16.3435 63.6519 16.7891C52.8302 17.2347 42.5381 21.5932 34.6874 29.0548C26.8368 36.5164 21.9614 46.5739 20.9668 57.359C19.9723 68.1441 22.9262 78.9237 29.2798 87.6951C35.6335 96.4666 44.955 102.634 55.5127 105.051C65.3405 107.301 75.6175 106.159 84.6842 101.85L73.7757 92.4312Z" fill="white"/>
<path d="M199.705 30.1543C198.7 28.5274 197.36 27.3551 195.685 26.6374C194.011 25.8718 192.264 25.489 190.446 25.489C189.106 25.489 187.79 25.6564 186.498 25.9914C185.206 26.3263 184.034 26.8287 182.981 27.4986C181.977 28.1685 181.163 29.0537 180.541 30.1543C179.919 31.2548 179.608 32.5467 179.608 34.03C179.608 35.1784 179.775 36.2072 180.11 37.1163C180.493 37.9776 181.091 38.7671 181.905 39.4848C182.718 40.2026 183.819 40.8725 185.206 41.4945C186.594 42.1165 188.293 42.7386 190.302 43.3606C192.264 43.9826 194.154 44.6525 195.972 45.3703C197.839 46.088 199.465 46.9971 200.853 48.0977C202.288 49.1982 203.413 50.5858 204.226 52.2605C205.088 53.8874 205.518 55.9449 205.518 58.4331C205.518 60.9691 205.016 63.1701 204.011 65.0362C203.006 66.9024 201.666 68.4575 199.992 69.7015C198.365 70.8978 196.475 71.783 194.322 72.3572C192.168 72.9792 189.943 73.2902 187.647 73.2902C186.163 73.2902 184.68 73.1467 183.197 72.8596C181.713 72.6203 180.278 72.2375 178.89 71.7112C177.55 71.137 176.283 70.4193 175.086 69.558C173.89 68.6489 172.861 67.5483 172 66.2564L177.168 62.0217C178.268 63.8879 179.799 65.2994 181.761 66.2564C183.723 67.2134 185.804 67.6919 188.006 67.6919C189.297 67.6919 190.589 67.5005 191.881 67.1177C193.221 66.7349 194.417 66.1846 195.47 65.4669C196.523 64.7013 197.384 63.7682 198.054 62.6677C198.724 61.5672 199.059 60.2992 199.059 58.8637C199.059 57.2847 198.795 56.0167 198.269 55.0597C197.743 54.0549 196.929 53.1936 195.829 52.4759C194.728 51.7581 193.341 51.1122 191.666 50.538C189.991 49.9638 188.029 49.2939 185.781 48.5283C183.962 47.9541 182.288 47.3082 180.756 46.5904C179.225 45.8248 177.885 44.9157 176.737 43.863C175.637 42.7625 174.751 41.4706 174.081 39.9872C173.459 38.4561 173.148 36.6378 173.148 34.5324C173.148 32.0921 173.627 29.9629 174.584 28.1446C175.541 26.3263 176.833 24.8191 178.46 23.6229C180.087 22.3788 181.929 21.4457 183.986 20.8237C186.044 20.2016 188.197 19.8906 190.446 19.8906C193.317 19.8906 195.925 20.3452 198.269 21.2543C200.662 22.1156 202.791 23.6468 204.657 25.8478L199.705 30.1543Z" fill="white"/>
<path d="M217.265 21.1826H226.237L243.462 61.0169H243.606L260.975 21.1826H269.732V71.9983H263.703V29.3647H263.559L245.329 71.9983H241.668L223.438 29.3647H223.294V71.9983H217.265V21.1826Z" fill="white"/>
<path d="M300.682 21.1826H306.352L327.956 71.9983H320.922L315.755 59.5097H290.347L285.107 71.9983H278.289L300.682 21.1826ZM303.41 28.9341H303.266L292.715 53.9113H313.458L303.41 28.9341Z" fill="white"/>
<path d="M336.505 21.1826H349.496C351.936 21.1826 354.352 21.3261 356.745 21.6132C359.185 21.9003 361.362 22.5223 363.276 23.4793C365.19 24.4363 366.745 25.8478 367.941 27.714C369.138 29.5322 369.736 32.0204 369.736 35.1784C369.736 38.9106 368.611 41.9251 366.362 44.2219C364.114 46.5186 361.003 47.978 357.032 48.6001L371.458 71.9983H364.066L350.285 49.1743H342.534V71.9983H336.505V21.1826ZM342.534 43.5759H347.917C349.591 43.5759 351.314 43.5281 353.084 43.4324C354.903 43.3367 356.553 43.0257 358.037 42.4993C359.568 41.973 360.812 41.1595 361.769 40.059C362.774 38.9106 363.276 37.2838 363.276 35.1784C363.276 33.3602 362.917 31.9008 362.2 30.8002C361.482 29.6997 360.525 28.8623 359.329 28.2881C358.18 27.6661 356.864 27.2594 355.381 27.068C353.946 26.8766 352.486 26.7809 351.003 26.7809H342.534V43.5759Z" fill="white"/>
<path d="M415.007 26.7809H398.212V71.9983H392.183V26.7809H375.388V21.1826H415.007V26.7809Z" fill="white"/>
<path d="M459.522 31.6615C457.991 29.604 456.101 28.0728 453.852 27.068C451.603 26.0153 449.259 25.489 446.818 25.489C443.995 25.489 441.388 26.0632 438.995 27.2115C436.651 28.3599 434.617 29.915 432.894 31.8768C431.172 33.7908 429.832 36.0397 428.875 38.6235C427.918 41.1595 427.44 43.8152 427.44 46.5904C427.44 49.5571 427.918 52.3323 428.875 54.9162C429.832 57.4522 431.148 59.6771 432.823 61.5911C434.545 63.4572 436.579 64.9405 438.923 66.0411C441.316 67.1416 443.948 67.6919 446.818 67.6919C449.929 67.6919 452.704 67.0938 455.144 65.8975C457.584 64.6535 459.714 62.883 461.532 60.5863L466.054 64.3903C463.757 67.4526 460.982 69.7015 457.728 71.137C454.522 72.5725 450.886 73.2902 446.818 73.2902C443.182 73.2902 439.785 72.6203 436.627 71.2805C433.469 69.9408 430.717 68.0986 428.373 65.754C426.076 63.3615 424.258 60.5384 422.918 57.2847C421.626 54.031 420.98 50.4662 420.98 46.5904C420.98 42.8582 421.602 39.3652 422.846 36.1115C424.138 32.8577 425.932 30.0346 428.229 27.6422C430.526 25.2497 433.253 23.3597 436.411 21.9721C439.569 20.5844 443.038 19.8906 446.818 19.8906C450.264 19.8906 453.565 20.5127 456.723 21.7567C459.929 23.0008 462.609 25.0344 464.762 27.8575L459.522 31.6615Z" fill="white" fill-opacity="0.5"/>
<path d="M499.866 73.2902C495.991 73.2902 492.426 72.6203 489.172 71.2805C485.966 69.9408 483.167 68.0986 480.775 65.754C478.43 63.3615 476.588 60.5384 475.248 57.2847C473.956 53.9831 473.31 50.4183 473.31 46.5904C473.31 42.7625 473.956 39.2217 475.248 35.9679C476.588 32.6663 478.43 29.8432 480.775 27.4986C483.167 25.1062 485.966 23.2401 489.172 21.9003C492.426 20.5605 495.991 19.8906 499.866 19.8906C503.742 19.8906 507.283 20.5605 510.489 21.9003C513.743 23.2401 516.542 25.1062 518.886 27.4986C521.279 29.8432 523.121 32.6663 524.413 35.9679C525.753 39.2217 526.423 42.7625 526.423 46.5904C526.423 50.4183 525.753 53.9831 524.413 57.2847C523.121 60.5384 521.279 63.3615 518.886 65.754C516.542 68.0986 513.743 69.9408 510.489 71.2805C507.283 72.6203 503.742 73.2902 499.866 73.2902ZM499.866 67.6919C502.833 67.6919 505.537 67.1416 507.977 66.0411C510.465 64.9405 512.594 63.4333 514.365 61.5193C516.135 59.6054 517.499 57.3804 518.456 54.8444C519.461 52.2605 519.963 49.5092 519.963 46.5904C519.963 43.6716 519.461 40.9442 518.456 38.4082C517.499 35.8244 516.135 33.5755 514.365 31.6615C512.594 29.7475 510.465 28.2403 507.977 27.1398C505.537 26.0392 502.833 25.489 499.866 25.489C496.9 25.489 494.172 26.0392 491.684 27.1398C489.244 28.2403 487.139 29.7475 485.368 31.6615C483.598 33.5755 482.21 35.8244 481.205 38.4082C480.248 40.9442 479.77 43.6716 479.77 46.5904C479.77 49.5092 480.248 52.2605 481.205 54.8444C482.21 57.3804 483.598 59.6054 485.368 61.5193C487.139 63.4333 489.244 64.9405 491.684 66.0411C494.172 67.1416 496.9 67.6919 499.866 67.6919Z" fill="white" fill-opacity="0.5"/>
<path d="M537.905 21.1826H545.513L574.941 63.3855H575.084V21.1826H581.113V71.9983H573.505L544.078 29.7954H543.934V71.9983H537.905V21.1826Z" fill="white" fill-opacity="0.5"/>
<path d="M595.563 21.1826H603.171L632.598 63.3855H632.741V21.1826H638.77V71.9983H631.162L601.735 29.7954H601.592V71.9983H595.563V21.1826Z" fill="white" fill-opacity="0.5"/>
<path d="M653.22 21.1826H685.159V26.7809H659.249V42.7146H683.437V48.313H659.249V66.3999H686.451V71.9983H653.22V21.1826Z" fill="white" fill-opacity="0.5"/>
<path d="M733.159 31.6615C731.628 29.604 729.738 28.0728 727.489 27.068C725.24 26.0153 722.896 25.489 720.455 25.489C717.632 25.489 715.025 26.0632 712.632 27.2115C710.288 28.3599 708.254 29.915 706.531 31.8768C704.809 33.7908 703.469 36.0397 702.512 38.6235C701.555 41.1595 701.077 43.8152 701.077 46.5904C701.077 49.5571 701.555 52.3323 702.512 54.9162C703.469 57.4522 704.785 59.6771 706.46 61.5911C708.182 63.4572 710.216 64.9405 712.56 66.0411C714.953 67.1416 717.584 67.6919 720.455 67.6919C723.566 67.6919 726.341 67.0938 728.781 65.8975C731.221 64.6535 733.351 62.883 735.169 60.5863L739.691 64.3903C737.394 67.4526 734.619 69.7015 731.365 71.137C728.159 72.5725 724.523 73.2902 720.455 73.2902C716.819 73.2902 713.422 72.6203 710.264 71.2805C707.106 69.9408 704.354 68.0986 702.01 65.754C699.713 63.3615 697.895 60.5384 696.555 57.2847C695.263 54.031 694.617 50.4662 694.617 46.5904C694.617 42.8582 695.239 39.3652 696.483 36.1115C697.775 32.8577 699.569 30.0346 701.866 27.6422C704.163 25.2497 706.89 23.3597 710.048 21.9721C713.206 20.5844 716.675 19.8906 720.455 19.8906C723.901 19.8906 727.202 20.5127 730.36 21.7567C733.566 23.0008 736.246 25.0344 738.399 27.8575L733.159 31.6615Z" fill="white" fill-opacity="0.5"/>
<path d="M783.982 26.7809H767.187V71.9983H761.158V26.7809H744.363V21.1826H783.982V26.7809Z" fill="white" fill-opacity="0.5"/>
<path d="M174.52 125.29V99.3702H182.242C182.542 99.3702 183.028 99.3762 183.7 99.3882C184.384 99.4002 185.032 99.4542 185.644 99.5502C187.588 99.8142 189.202 100.546 190.486 101.746C191.77 102.934 192.73 104.446 193.366 106.282C194.002 108.106 194.32 110.122 194.32 112.33C194.32 114.55 194.002 116.578 193.366 118.414C192.73 120.238 191.77 121.744 190.486 122.932C189.202 124.12 187.588 124.846 185.644 125.11C185.032 125.194 184.378 125.248 183.682 125.272C182.998 125.284 182.518 125.29 182.242 125.29H174.52ZM176.698 123.256H182.242C182.782 123.256 183.34 123.244 183.916 123.22C184.492 123.184 184.984 123.13 185.392 123.058C187 122.77 188.296 122.134 189.28 121.15C190.264 120.154 190.978 118.9 191.422 117.388C191.878 115.864 192.106 114.178 192.106 112.33C192.106 110.47 191.878 108.784 191.422 107.272C190.966 105.748 190.246 104.494 189.262 103.51C188.278 102.514 186.988 101.878 185.392 101.602C184.984 101.53 184.48 101.482 183.88 101.458C183.292 101.422 182.746 101.404 182.242 101.404H176.698V123.256Z" fill="white"/>
<path d="M204.937 125.83C203.437 125.83 202.189 125.566 201.193 125.038C200.209 124.51 199.471 123.814 198.979 122.95C198.487 122.074 198.241 121.126 198.241 120.106C198.241 119.002 198.469 118.078 198.925 117.334C199.393 116.59 200.011 115.99 200.779 115.534C201.559 115.078 202.417 114.736 203.353 114.508C204.421 114.268 205.573 114.064 206.809 113.896C208.045 113.716 209.221 113.56 210.337 113.428C211.465 113.296 212.383 113.182 213.091 113.086L212.335 113.536C212.383 111.436 211.987 109.876 211.147 108.856C210.319 107.824 208.855 107.308 206.755 107.308C205.279 107.308 204.061 107.644 203.101 108.316C202.153 108.976 201.487 110.002 201.103 111.394L198.979 110.8C199.423 109.036 200.317 107.68 201.661 106.732C203.005 105.784 204.727 105.31 206.827 105.31C208.615 105.31 210.115 105.658 211.327 106.354C212.551 107.05 213.403 108.028 213.883 109.288C214.087 109.804 214.225 110.41 214.297 111.106C214.369 111.79 214.405 112.48 214.405 113.176V125.29H212.515V120.178L213.217 120.358C212.629 122.11 211.603 123.46 210.139 124.408C208.675 125.356 206.941 125.83 204.937 125.83ZM205.045 123.922C206.365 123.922 207.523 123.688 208.519 123.22C209.515 122.74 210.319 122.074 210.931 121.222C211.555 120.358 211.951 119.344 212.119 118.18C212.239 117.532 212.305 116.83 212.317 116.074C212.329 115.318 212.335 114.76 212.335 114.4L213.235 114.976C212.455 115.072 211.519 115.174 210.427 115.282C209.347 115.39 208.243 115.522 207.115 115.678C205.987 115.834 204.967 116.032 204.055 116.272C203.491 116.428 202.921 116.656 202.345 116.956C201.781 117.244 201.307 117.646 200.923 118.162C200.551 118.678 200.365 119.332 200.365 120.124C200.365 120.712 200.509 121.3 200.797 121.888C201.097 122.476 201.589 122.962 202.273 123.346C202.957 123.73 203.881 123.922 205.045 123.922Z" fill="white"/>
<path d="M230.393 125.29C229.361 125.518 228.341 125.602 227.333 125.542C226.325 125.494 225.425 125.272 224.633 124.876C223.853 124.468 223.265 123.844 222.869 123.004C222.545 122.32 222.365 121.63 222.329 120.934C222.293 120.238 222.275 119.44 222.275 118.54V100.45H224.363V118.504C224.363 119.32 224.369 119.998 224.381 120.538C224.405 121.066 224.531 121.552 224.759 121.996C225.191 122.824 225.875 123.328 226.811 123.508C227.747 123.676 228.941 123.646 230.393 123.418V125.29ZM217.919 107.74V105.85H230.393V107.74H217.919Z" fill="white"/>
<path d="M240.722 125.83C239.222 125.83 237.974 125.566 236.978 125.038C235.994 124.51 235.256 123.814 234.764 122.95C234.272 122.074 234.026 121.126 234.026 120.106C234.026 119.002 234.254 118.078 234.71 117.334C235.178 116.59 235.796 115.99 236.564 115.534C237.344 115.078 238.202 114.736 239.138 114.508C240.206 114.268 241.358 114.064 242.594 113.896C243.83 113.716 245.006 113.56 246.122 113.428C247.25 113.296 248.168 113.182 248.876 113.086L248.12 113.536C248.168 111.436 247.772 109.876 246.932 108.856C246.104 107.824 244.64 107.308 242.54 107.308C241.064 107.308 239.846 107.644 238.886 108.316C237.938 108.976 237.272 110.002 236.888 111.394L234.764 110.8C235.208 109.036 236.102 107.68 237.446 106.732C238.79 105.784 240.512 105.31 242.612 105.31C244.4 105.31 245.9 105.658 247.112 106.354C248.336 107.05 249.188 108.028 249.668 109.288C249.872 109.804 250.01 110.41 250.082 111.106C250.154 111.79 250.19 112.48 250.19 113.176V125.29H248.3V120.178L249.002 120.358C248.414 122.11 247.388 123.46 245.924 124.408C244.46 125.356 242.726 125.83 240.722 125.83ZM240.83 123.922C242.15 123.922 243.308 123.688 244.304 123.22C245.3 122.74 246.104 122.074 246.716 121.222C247.34 120.358 247.736 119.344 247.904 118.18C248.024 117.532 248.09 116.83 248.102 116.074C248.114 115.318 248.12 114.76 248.12 114.4L249.02 114.976C248.24 115.072 247.304 115.174 246.212 115.282C245.132 115.39 244.028 115.522 242.9 115.678C241.772 115.834 240.752 116.032 239.84 116.272C239.276 116.428 238.706 116.656 238.13 116.956C237.566 117.244 237.092 117.646 236.708 118.162C236.336 118.678 236.15 119.332 236.15 120.124C236.15 120.712 236.294 121.3 236.582 121.888C236.882 122.476 237.374 122.962 238.058 123.346C238.742 123.73 239.666 123.922 240.83 123.922Z" fill="white"/>
<path d="M272.278 125.29V99.3702H280C280.3 99.3702 280.786 99.3762 281.458 99.3882C282.142 99.4002 282.79 99.4542 283.402 99.5502C285.346 99.8142 286.96 100.546 288.244 101.746C289.528 102.934 290.488 104.446 291.124 106.282C291.76 108.106 292.078 110.122 292.078 112.33C292.078 114.55 291.76 116.578 291.124 118.414C290.488 120.238 289.528 121.744 288.244 122.932C286.96 124.12 285.346 124.846 283.402 125.11C282.79 125.194 282.136 125.248 281.44 125.272C280.756 125.284 280.276 125.29 280 125.29H272.278ZM274.456 123.256H280C280.54 123.256 281.098 123.244 281.674 123.22C282.25 123.184 282.742 123.13 283.15 123.058C284.758 122.77 286.054 122.134 287.038 121.15C288.022 120.154 288.736 118.9 289.18 117.388C289.636 115.864 289.864 114.178 289.864 112.33C289.864 110.47 289.636 108.784 289.18 107.272C288.724 105.748 288.004 104.494 287.02 103.51C286.036 102.514 284.746 101.878 283.15 101.602C282.742 101.53 282.238 101.482 281.638 101.458C281.05 101.422 280.504 101.404 280 101.404H274.456V123.256Z" fill="white"/>
<path d="M297.079 125.29V105.85H298.969V110.512L298.501 109.9C298.717 109.348 298.987 108.838 299.311 108.37C299.647 107.89 299.989 107.5 300.337 107.2C300.853 106.72 301.459 106.36 302.155 106.12C302.851 105.868 303.553 105.724 304.261 105.688C304.969 105.64 305.611 105.694 306.187 105.85V107.812C305.419 107.632 304.603 107.596 303.739 107.704C302.875 107.812 302.065 108.184 301.309 108.82C300.649 109.396 300.169 110.068 299.869 110.836C299.569 111.592 299.377 112.39 299.293 113.23C299.209 114.058 299.167 114.868 299.167 115.66V125.29H297.079Z" fill="white"/>
<path d="M310.954 101.926V99.2802H313.024V101.926H310.954ZM310.954 125.29V105.85H313.024V125.29H310.954Z" fill="white"/>
<path d="M324.69 125.29L317.634 105.85H319.776L325.788 122.464L331.782 105.85H333.942L326.886 125.29H324.69Z" fill="white"/>
<path d="M345.495 125.83C343.635 125.83 342.027 125.416 340.671 124.588C339.315 123.748 338.265 122.566 337.521 121.042C336.777 119.506 336.405 117.694 336.405 115.606C336.405 113.482 336.771 111.652 337.503 110.116C338.247 108.568 339.291 107.38 340.635 106.552C341.991 105.724 343.599 105.31 345.459 105.31C347.343 105.31 348.951 105.742 350.283 106.606C351.627 107.458 352.647 108.694 353.343 110.314C354.051 111.934 354.387 113.884 354.351 116.164H352.191V115.444C352.131 112.78 351.531 110.752 350.391 109.36C349.251 107.968 347.619 107.272 345.495 107.272C343.299 107.272 341.601 107.998 340.401 109.45C339.213 110.89 338.619 112.93 338.619 115.57C338.619 118.186 339.213 120.214 340.401 121.654C341.601 123.094 343.287 123.814 345.459 123.814C346.959 123.814 348.267 123.466 349.383 122.77C350.511 122.062 351.405 121.054 352.065 119.746L353.937 120.574C353.157 122.254 352.029 123.55 350.553 124.462C349.077 125.374 347.391 125.83 345.495 125.83ZM337.827 116.164V114.292H353.181V116.164H337.827Z" fill="white"/>
<path d="M366.514 125.794C364.27 125.794 362.417 125.32 360.953 124.372C359.501 123.424 358.601 122.104 358.253 120.412L360.376 120.052C360.676 121.204 361.385 122.122 362.501 122.806C363.617 123.49 364.984 123.832 366.604 123.832C368.212 123.832 369.491 123.49 370.439 122.806C371.387 122.122 371.861 121.186 371.861 119.998C371.861 119.35 371.71 118.822 371.41 118.414C371.122 117.994 370.546 117.61 369.682 117.262C368.818 116.914 367.535 116.506 365.831 116.038C364.031 115.558 362.62 115.078 361.6 114.598C360.592 114.118 359.878 113.572 359.458 112.96C359.05 112.348 358.846 111.598 358.846 110.71C358.846 109.642 359.152 108.706 359.764 107.902C360.376 107.086 361.228 106.45 362.32 105.994C363.424 105.538 364.697 105.31 366.137 105.31C367.577 105.31 368.873 105.55 370.025 106.03C371.177 106.498 372.107 107.158 372.815 108.01C373.523 108.85 373.931 109.828 374.039 110.944L371.915 111.34C371.711 110.092 371.081 109.108 370.025 108.388C368.969 107.656 367.649 107.284 366.065 107.272C364.565 107.248 363.341 107.548 362.393 108.172C361.445 108.784 360.971 109.594 360.971 110.602C360.971 111.178 361.133 111.67 361.457 112.078C361.793 112.474 362.381 112.84 363.221 113.176C364.061 113.512 365.249 113.872 366.785 114.256C368.657 114.736 370.115 115.228 371.159 115.732C372.215 116.236 372.959 116.83 373.391 117.514C373.823 118.186 374.039 119.02 374.039 120.016C374.039 121.816 373.366 123.232 372.022 124.264C370.69 125.284 368.854 125.794 366.514 125.794Z" fill="white"/>
<path d="M396.045 125.83C394.269 125.83 392.667 125.536 391.239 124.948C389.823 124.36 388.647 123.526 387.711 122.446C386.787 121.366 386.169 120.082 385.857 118.594L387.981 118.234C388.425 119.962 389.373 121.324 390.825 122.32C392.289 123.316 394.047 123.814 396.099 123.814C397.491 123.814 398.721 123.592 399.789 123.148C400.857 122.704 401.691 122.08 402.291 121.276C402.891 120.46 403.191 119.512 403.191 118.432C403.191 117.652 403.047 116.998 402.759 116.47C402.483 115.942 402.123 115.51 401.679 115.174C401.235 114.826 400.761 114.55 400.257 114.346C399.753 114.13 399.279 113.956 398.835 113.824L392.319 111.88C391.455 111.628 390.681 111.316 389.997 110.944C389.325 110.56 388.755 110.122 388.287 109.63C387.831 109.126 387.477 108.556 387.225 107.92C386.985 107.284 386.865 106.576 386.865 105.796C386.865 104.404 387.237 103.186 387.981 102.142C388.725 101.098 389.745 100.288 391.041 99.7122C392.349 99.1242 393.849 98.8302 395.541 98.8302C397.245 98.8422 398.775 99.1602 400.131 99.7842C401.487 100.396 402.597 101.266 403.461 102.394C404.337 103.522 404.901 104.86 405.153 106.408L403.011 106.786C402.843 105.598 402.411 104.56 401.715 103.672C401.031 102.784 400.155 102.094 399.087 101.602C398.019 101.11 396.831 100.864 395.523 100.864C394.263 100.852 393.147 101.062 392.175 101.494C391.215 101.926 390.459 102.508 389.907 103.24C389.355 103.972 389.079 104.8 389.079 105.724C389.079 106.684 389.337 107.452 389.853 108.028C390.381 108.592 391.023 109.036 391.779 109.36C392.547 109.684 393.279 109.948 393.975 110.152L399.195 111.7C399.687 111.844 400.275 112.048 400.959 112.312C401.643 112.576 402.315 112.954 402.975 113.446C403.635 113.926 404.181 114.568 404.613 115.372C405.057 116.164 405.279 117.16 405.279 118.36C405.279 119.524 405.057 120.568 404.613 121.492C404.169 122.416 403.533 123.202 402.705 123.85C401.877 124.486 400.899 124.972 399.771 125.308C398.643 125.656 397.401 125.83 396.045 125.83Z" fill="white"/>
<path d="M417.404 125.74C416.336 125.74 415.376 125.584 414.524 125.272C413.684 124.96 412.952 124.522 412.328 123.958C411.704 123.382 411.188 122.71 410.78 121.942C410.372 121.162 410.066 120.31 409.862 119.386C409.67 118.462 409.574 117.496 409.574 116.488V105.85H411.662V115.966C411.662 117.19 411.782 118.282 412.022 119.242C412.274 120.202 412.646 121.018 413.138 121.69C413.642 122.362 414.266 122.872 415.01 123.22C415.766 123.568 416.654 123.742 417.674 123.742C418.73 123.742 419.642 123.562 420.41 123.202C421.19 122.83 421.826 122.314 422.318 121.654C422.822 120.994 423.194 120.214 423.434 119.314C423.686 118.402 423.812 117.412 423.812 116.344L425.45 116.542C425.45 118.642 425.09 120.376 424.37 121.744C423.662 123.1 422.702 124.108 421.49 124.768C420.278 125.416 418.916 125.74 417.404 125.74ZM424.01 125.29V120.916H423.812V105.85H425.9V125.29H424.01Z" fill="white"/>
<path d="M439.86 125.83C437.916 125.83 436.278 125.398 434.946 124.534C433.614 123.658 432.6 122.452 431.904 120.916C431.22 119.368 430.866 117.586 430.842 115.57C430.866 113.518 431.226 111.724 431.922 110.188C432.63 108.64 433.65 107.44 434.982 106.588C436.314 105.736 437.946 105.31 439.878 105.31C441.762 105.31 443.418 105.766 444.846 106.678C446.286 107.578 447.282 108.82 447.834 110.404L445.818 111.142C445.326 109.93 444.552 108.994 443.496 108.334C442.44 107.662 441.228 107.326 439.86 107.326C438.324 107.326 437.058 107.68 436.062 108.388C435.066 109.084 434.322 110.05 433.83 111.286C433.338 112.522 433.08 113.95 433.056 115.57C433.092 118.054 433.674 120.052 434.802 121.564C435.942 123.064 437.628 123.814 439.86 123.814C441.24 123.814 442.434 123.496 443.442 122.86C444.462 122.224 445.242 121.3 445.782 120.088L447.834 120.79C447.078 122.434 446.022 123.688 444.666 124.552C443.31 125.404 441.708 125.83 439.86 125.83Z" fill="white"/>
<path d="M460.021 125.83C458.077 125.83 456.439 125.398 455.107 124.534C453.775 123.658 452.761 122.452 452.065 120.916C451.381 119.368 451.027 117.586 451.003 115.57C451.027 113.518 451.387 111.724 452.083 110.188C452.791 108.64 453.811 107.44 455.143 106.588C456.475 105.736 458.107 105.31 460.039 105.31C461.923 105.31 463.579 105.766 465.007 106.678C466.447 107.578 467.443 108.82 467.995 110.404L465.979 111.142C465.487 109.93 464.712 108.994 463.656 108.334C462.6 107.662 461.389 107.326 460.021 107.326C458.485 107.326 457.219 107.68 456.223 108.388C455.227 109.084 454.483 110.05 453.991 111.286C453.499 112.522 453.24 113.95 453.216 115.57C453.252 118.054 453.834 120.052 454.962 121.564C456.102 123.064 457.789 123.814 460.021 123.814C461.401 123.814 462.595 123.496 463.603 122.86C464.623 122.224 465.403 121.3 465.943 120.088L467.995 120.79C467.239 122.434 466.183 123.688 464.827 124.552C463.471 125.404 461.869 125.83 460.021 125.83Z" fill="white"/>
<path d="M480.253 125.83C478.393 125.83 476.785 125.416 475.429 124.588C474.073 123.748 473.023 122.566 472.279 121.042C471.535 119.506 471.163 117.694 471.163 115.606C471.163 113.482 471.529 111.652 472.261 110.116C473.005 108.568 474.049 107.38 475.393 106.552C476.749 105.724 478.357 105.31 480.217 105.31C482.101 105.31 483.709 105.742 485.041 106.606C486.385 107.458 487.405 108.694 488.101 110.314C488.809 111.934 489.145 113.884 489.109 116.164H486.949V115.444C486.889 112.78 486.289 110.752 485.149 109.36C484.009 107.968 482.377 107.272 480.253 107.272C478.057 107.272 476.359 107.998 475.159 109.45C473.971 110.89 473.377 112.93 473.377 115.57C473.377 118.186 473.971 120.214 475.159 121.654C476.359 123.094 478.045 123.814 480.217 123.814C481.717 123.814 483.025 123.466 484.141 122.77C485.269 122.062 486.163 121.054 486.823 119.746L488.695 120.574C487.915 122.254 486.787 123.55 485.311 124.462C483.835 125.374 482.149 125.83 480.253 125.83ZM472.585 116.164V114.292H487.939V116.164H472.585Z" fill="white"/>
<path d="M501.272 125.794C499.028 125.794 497.174 125.32 495.71 124.372C494.258 123.424 493.358 122.104 493.01 120.412L495.134 120.052C495.434 121.204 496.142 122.122 497.258 122.806C498.374 123.49 499.742 123.832 501.362 123.832C502.97 123.832 504.248 123.49 505.196 122.806C506.144 122.122 506.618 121.186 506.618 119.998C506.618 119.35 506.468 118.822 506.168 118.414C505.88 117.994 505.304 117.61 504.44 117.262C503.576 116.914 502.292 116.506 500.588 116.038C498.788 115.558 497.378 115.078 496.358 114.598C495.35 114.118 494.636 113.572 494.216 112.96C493.808 112.348 493.604 111.598 493.604 110.71C493.604 109.642 493.91 108.706 494.522 107.902C495.134 107.086 495.986 106.45 497.078 105.994C498.182 105.538 499.454 105.31 500.894 105.31C502.334 105.31 503.63 105.55 504.782 106.03C505.934 106.498 506.864 107.158 507.572 108.01C508.28 108.85 508.688 109.828 508.796 110.944L506.672 111.34C506.468 110.092 505.838 109.108 504.782 108.388C503.726 107.656 502.406 107.284 500.822 107.272C499.322 107.248 498.098 107.548 497.15 108.172C496.202 108.784 495.728 109.594 495.728 110.602C495.728 111.178 495.89 111.67 496.214 112.078C496.55 112.474 497.138 112.84 497.978 113.176C498.818 113.512 500.006 113.872 501.542 114.256C503.414 114.736 504.872 115.228 505.916 115.732C506.972 116.236 507.716 116.83 508.148 117.514C508.58 118.186 508.796 119.02 508.796 120.016C508.796 121.816 508.124 123.232 506.78 124.264C505.448 125.284 503.612 125.794 501.272 125.794Z" fill="white"/>
<path d="M520.975 125.794C518.731 125.794 516.877 125.32 515.413 124.372C513.961 123.424 513.061 122.104 512.713 120.412L514.837 120.052C515.137 121.204 515.845 122.122 516.961 122.806C518.077 123.49 519.445 123.832 521.065 123.832C522.673 123.832 523.951 123.49 524.899 122.806C525.847 122.122 526.321 121.186 526.321 119.998C526.321 119.35 526.171 118.822 525.871 118.414C525.583 117.994 525.007 117.61 524.143 117.262C523.279 116.914 521.995 116.506 520.291 116.038C518.491 115.558 517.081 115.078 516.061 114.598C515.053 114.118 514.339 113.572 513.919 112.96C513.511 112.348 513.307 111.598 513.307 110.71C513.307 109.642 513.613 108.706 514.225 107.902C514.837 107.086 515.689 106.45 516.781 105.994C517.885 105.538 519.157 105.31 520.597 105.31C522.037 105.31 523.333 105.55 524.485 106.03C525.637 106.498 526.567 107.158 527.275 108.01C527.983 108.85 528.391 109.828 528.499 110.944L526.375 111.34C526.171 110.092 525.541 109.108 524.485 108.388C523.429 107.656 522.109 107.284 520.525 107.272C519.025 107.248 517.801 107.548 516.853 108.172C515.905 108.784 515.431 109.594 515.431 110.602C515.431 111.178 515.593 111.67 515.917 112.078C516.253 112.474 516.841 112.84 517.681 113.176C518.521 113.512 519.709 113.872 521.245 114.256C523.117 114.736 524.575 115.228 525.619 115.732C526.675 116.236 527.419 116.83 527.851 117.514C528.283 118.186 528.499 119.02 528.499 120.016C528.499 121.816 527.827 123.232 526.483 124.264C525.151 125.284 523.315 125.794 520.975 125.794Z" fill="white"/>
</svg>
