<svg width="586" height="325" viewBox="0 0 586 325" fill="none" xmlns="http://www.w3.org/2000/svg">
<path d="M298.682 137.401C291.174 139.409 283.234 139.58 275.549 137.821C264.208 135.224 254.195 128.599 247.37 119.177C240.544 109.754 237.371 98.1749 238.44 86.5894C239.508 75.0039 244.745 64.1999 253.178 56.1846C261.612 48.1692 272.668 43.4873 284.293 43.0086C295.917 42.5299 307.321 46.287 316.385 53.5818C325.448 60.8767 331.556 71.2135 333.573 82.672C335.32 92.5957 333.897 102.777 329.568 111.79L310.668 95.4711C311.061 93.7103 311.269 91.8793 311.269 90C311.269 76.1929 300.076 65 286.269 65C272.462 65 261.269 76.1929 261.269 90C261.269 103.807 272.462 115 286.269 115C290.809 115 295.067 113.79 298.737 111.674L346.825 153.194C341.661 158.476 335.819 163.082 329.436 166.885C318.589 173.346 306.447 177.328 293.879 178.543C281.312 179.758 268.632 178.177 256.748 173.912C244.864 169.648 234.071 162.807 225.143 153.879L212.135 166.887C222.982 177.734 236.096 186.047 250.535 191.228C264.974 196.408 280.38 198.33 295.65 196.853C310.919 195.377 325.672 190.54 338.851 182.689C350.101 175.987 359.965 167.232 367.941 156.898L373.865 150.037L344.291 124.502C352.158 110.879 354.987 94.9057 352.254 79.3832C349.44 63.3998 340.92 48.981 328.277 38.8054C315.634 28.6298 299.728 23.389 283.512 24.0568C267.297 24.7245 251.875 31.2553 240.111 42.4359C228.348 53.6166 221.042 68.687 219.552 84.8476C218.062 101.008 222.488 117.161 232.008 130.304C241.529 143.447 255.496 152.688 271.316 156.31C286.042 159.682 301.442 157.971 315.027 151.514L298.682 137.401Z" fill="#3E3EA1"/>
<path d="M48.6272 262.349C47.7448 260.92 46.5683 259.891 45.0977 259.26C43.627 258.588 42.0934 258.252 40.4967 258.252C39.3202 258.252 38.1647 258.399 37.0302 258.693C35.8958 258.987 34.8663 259.429 33.9419 260.017C33.0595 260.605 32.3452 261.382 31.799 262.349C31.2528 263.315 30.9797 264.45 30.9797 265.752C30.9797 266.761 31.1267 267.664 31.4209 268.462C31.757 269.219 32.2822 269.912 32.9965 270.542C33.7108 271.173 34.6772 271.761 35.8958 272.307C37.1143 272.853 38.6059 273.4 40.3707 273.946C42.0934 274.492 43.7531 275.08 45.3498 275.71C46.9885 276.341 48.4171 277.139 49.6356 278.105C50.8961 279.072 51.8835 280.29 52.5978 281.761C53.3542 283.19 53.7323 284.996 53.7323 287.181C53.7323 289.408 53.2911 291.341 52.4088 292.98C51.5264 294.619 50.3499 295.984 48.8793 297.077C47.4507 298.127 45.791 298.904 43.9002 299.409C42.0093 299.955 40.0555 300.228 38.0387 300.228C36.7361 300.228 35.4336 300.102 34.131 299.85C32.8285 299.64 31.5679 299.304 30.3494 298.841C29.1729 298.337 28.0594 297.707 27.009 296.951C25.9585 296.152 25.0551 295.186 24.2988 294.051L28.8368 290.333C29.8032 291.971 31.1477 293.211 32.8705 294.051C34.5932 294.892 36.421 295.312 38.3538 295.312C39.4883 295.312 40.6228 295.144 41.7572 294.808C42.9337 294.471 43.9842 293.988 44.9086 293.358C45.833 292.686 46.5893 291.866 47.1775 290.9C47.7658 289.934 48.0599 288.82 48.0599 287.56C48.0599 286.173 47.8288 285.059 47.3666 284.219C46.9044 283.337 46.1901 282.58 45.2237 281.95C44.2573 281.32 43.0388 280.753 41.5682 280.248C40.0975 279.744 38.3748 279.156 36.4 278.484C34.8033 277.979 33.3327 277.412 31.9881 276.782C30.6435 276.11 29.467 275.311 28.4586 274.387C27.4922 273.421 26.7149 272.286 26.1266 270.983C25.5804 269.639 25.3073 268.042 25.3073 266.193C25.3073 264.051 25.7274 262.181 26.5678 260.584C27.4081 258.987 28.5426 257.664 29.9712 256.613C31.3998 255.521 33.0175 254.702 34.8243 254.155C36.6311 253.609 38.5219 253.336 40.4967 253.336C43.0178 253.336 45.3077 253.735 47.3666 254.533C49.4675 255.29 51.3373 256.634 52.976 258.567L48.6272 262.349Z" fill="#3E3EA1"/>
<path d="M64.0475 254.47H71.9259L87.0523 289.45H87.1784L102.431 254.47H110.12V299.093H104.826V261.656H104.7L88.691 299.093H85.4767L69.4678 261.656H69.3418V299.093H64.0475V254.47Z" fill="#3E3EA1"/>
<path d="M137.299 254.47H142.278L161.249 299.093H155.072L150.535 288.127H128.223L123.622 299.093H117.635L137.299 254.47ZM139.694 261.277H139.568L130.303 283.211H148.518L139.694 261.277Z" fill="#3E3EA1"/>
<path d="M168.756 254.47H180.164C182.306 254.47 184.428 254.597 186.529 254.849C188.672 255.101 190.584 255.647 192.265 256.487C193.945 257.328 195.311 258.567 196.361 260.206C197.412 261.803 197.937 263.988 197.937 266.761C197.937 270.038 196.95 272.685 194.975 274.702C193 276.719 190.269 278 186.781 278.547L199.45 299.093H192.958L180.857 279.051H174.05V299.093H168.756V254.47ZM174.05 274.135H178.777C180.248 274.135 181.76 274.093 183.315 274.009C184.912 273.925 186.361 273.652 187.664 273.189C189.008 272.727 190.101 272.013 190.941 271.047C191.823 270.038 192.265 268.609 192.265 266.761C192.265 265.164 191.95 263.882 191.319 262.916C190.689 261.95 189.849 261.214 188.798 260.71C187.79 260.164 186.634 259.807 185.332 259.639C184.071 259.471 182.79 259.387 181.487 259.387H174.05V274.135Z" fill="#3E3EA1"/>
<path d="M237.691 259.387H222.943V299.093H217.649V259.387H202.9V254.47H237.691V259.387Z" fill="#3E3EA1"/>
<path d="M276.782 263.672C275.437 261.866 273.777 260.521 271.802 259.639C269.828 258.714 267.769 258.252 265.626 258.252C263.147 258.252 260.857 258.756 258.756 259.765C256.697 260.773 254.911 262.139 253.399 263.861C251.886 265.542 250.71 267.517 249.869 269.786C249.029 272.013 248.609 274.345 248.609 276.782C248.609 279.387 249.029 281.824 249.869 284.093C250.71 286.32 251.865 288.274 253.336 289.955C254.848 291.593 256.634 292.896 258.693 293.862C260.794 294.829 263.105 295.312 265.626 295.312C268.357 295.312 270.794 294.787 272.937 293.736C275.08 292.644 276.95 291.089 278.546 289.072L282.517 292.413C280.5 295.102 278.063 297.077 275.206 298.337C272.391 299.598 269.197 300.228 265.626 300.228C262.432 300.228 259.449 299.64 256.676 298.463C253.903 297.287 251.487 295.669 249.428 293.61C247.411 291.509 245.814 289.03 244.638 286.173C243.503 283.316 242.936 280.185 242.936 276.782C242.936 273.505 243.482 270.437 244.575 267.58C245.709 264.723 247.285 262.244 249.302 260.143C251.319 258.042 253.714 256.382 256.487 255.164C259.26 253.945 262.306 253.336 265.626 253.336C268.651 253.336 271.55 253.882 274.324 254.975C277.139 256.067 279.492 257.853 281.383 260.332L276.782 263.672Z" fill="#3E3EA1" fill-opacity="0.5"/>
<path d="M312.209 300.228C308.806 300.228 305.675 299.64 302.818 298.463C300.003 297.287 297.545 295.669 295.444 293.61C293.385 291.509 291.767 289.03 290.591 286.173C289.456 283.274 288.889 280.143 288.889 276.782C288.889 273.421 289.456 270.311 290.591 267.454C291.767 264.555 293.385 262.076 295.444 260.017C297.545 257.916 300.003 256.277 302.818 255.101C305.675 253.924 308.806 253.336 312.209 253.336C315.612 253.336 318.722 253.924 321.537 255.101C324.394 256.277 326.852 257.916 328.911 260.017C331.012 262.076 332.63 264.555 333.764 267.454C334.941 270.311 335.529 273.421 335.529 276.782C335.529 280.143 334.941 283.274 333.764 286.173C332.63 289.03 331.012 291.509 328.911 293.61C326.852 295.669 324.394 297.287 321.537 298.463C318.722 299.64 315.612 300.228 312.209 300.228ZM312.209 295.312C314.814 295.312 317.188 294.829 319.331 293.862C321.516 292.896 323.386 291.572 324.94 289.892C326.495 288.211 327.693 286.257 328.533 284.03C329.415 281.761 329.857 279.345 329.857 276.782C329.857 274.219 329.415 271.824 328.533 269.597C327.693 267.328 326.495 265.353 324.94 263.672C323.386 261.992 321.516 260.668 319.331 259.702C317.188 258.735 314.814 258.252 312.209 258.252C309.604 258.252 307.209 258.735 305.024 259.702C302.881 260.668 301.032 261.992 299.478 263.672C297.923 265.353 296.704 267.328 295.822 269.597C294.982 271.824 294.562 274.219 294.562 276.782C294.562 279.345 294.982 281.761 295.822 284.03C296.704 286.257 297.923 288.211 299.478 289.892C301.032 291.572 302.881 292.896 305.024 293.862C307.209 294.829 309.604 295.312 312.209 295.312Z" fill="#3E3EA1" fill-opacity="0.5"/>
<path d="M345.612 254.47H352.293L378.134 291.53H378.26V254.47H383.554V299.093H376.874L351.033 262.034H350.906V299.093H345.612V254.47Z" fill="#3E3EA1" fill-opacity="0.5"/>
<path d="M396.243 254.47H402.924L428.765 291.53H428.891V254.47H434.185V299.093H427.504L401.663 262.034H401.537V299.093H396.243V254.47Z" fill="#3E3EA1" fill-opacity="0.5"/>
<path d="M446.874 254.47H474.921V259.387H452.168V273.378H473.408V278.295H452.168V294.177H476.055V299.093H446.874V254.47Z" fill="#3E3EA1" fill-opacity="0.5"/>
<path d="M517.071 263.672C515.727 261.866 514.067 260.521 512.092 259.639C510.117 258.714 508.058 258.252 505.915 258.252C503.436 258.252 501.146 258.756 499.046 259.765C496.987 260.773 495.201 262.139 493.688 263.861C492.176 265.542 490.999 267.517 490.159 269.786C489.318 272.013 488.898 274.345 488.898 276.782C488.898 279.387 489.318 281.824 490.159 284.093C490.999 286.32 492.155 288.274 493.625 289.955C495.138 291.593 496.924 292.896 498.982 293.862C501.083 294.829 503.394 295.312 505.915 295.312C508.647 295.312 511.084 294.787 513.227 293.736C515.369 292.644 517.239 291.089 518.836 289.072L522.807 292.413C520.79 295.102 518.353 297.077 515.495 298.337C512.68 299.598 509.487 300.228 505.915 300.228C502.722 300.228 499.739 299.64 496.966 298.463C494.192 297.287 491.776 295.669 489.718 293.61C487.701 291.509 486.104 289.03 484.927 286.173C483.793 283.316 483.226 280.185 483.226 276.782C483.226 273.505 483.772 270.437 484.865 267.58C485.999 264.723 487.575 262.244 489.592 260.143C491.608 258.042 494.003 256.382 496.777 255.164C499.55 253.945 502.596 253.336 505.915 253.336C508.941 253.336 511.84 253.882 514.613 254.975C517.428 256.067 519.781 257.853 521.672 260.332L517.071 263.672Z" fill="#3E3EA1" fill-opacity="0.5"/>
<path d="M561.701 259.387H546.952V299.093H541.658V259.387H526.91V254.47H561.701V259.387Z" fill="#3E3EA1" fill-opacity="0.5"/>
</svg>
