<svg width="800" height="148" viewBox="0 0 800 148" fill="none" xmlns="http://www.w3.org/2000/svg">
<path d="M73.7754 91.8647C68.7647 93.2051 63.4658 93.3193 58.3375 92.1452C50.7687 90.4123 44.0862 85.9911 39.5312 79.7029C34.9763 73.4146 32.8587 65.6868 33.5717 57.955C34.2847 50.2232 37.7798 43.013 43.4079 37.6638C49.036 32.3146 56.4144 29.19 64.1725 28.8706C71.9305 28.5511 79.5408 31.0584 85.5897 35.9268C91.6385 40.7952 95.7147 47.6936 97.0609 55.3406C98.2269 61.9634 97.2766 68.7578 94.3881 74.7733L81.7747 63.8824C82.0371 62.7072 82.1755 61.4853 82.1755 60.2311C82.1755 51.0167 74.7057 43.5469 65.4913 43.5469C56.2768 43.5469 48.8071 51.0167 48.8071 60.2311C48.8071 69.4456 56.2768 76.9153 65.4913 76.9153C68.5215 76.9153 71.363 76.1075 73.8122 74.6955L105.904 102.405C102.458 105.93 98.5599 109.004 94.3 111.541C87.0611 115.854 78.9574 118.511 70.5704 119.322C62.1834 120.133 53.7209 119.077 45.7898 116.232C37.8588 113.386 30.6559 108.82 24.6977 102.862L16.0166 111.543C23.2558 118.782 32.0073 124.33 41.6435 127.787C51.2797 131.245 61.5617 132.527 71.7519 131.542C81.9421 130.557 91.788 127.328 100.583 122.089C108.091 117.616 114.674 111.773 119.997 104.877L123.95 100.298L104.214 83.257C109.463 74.1652 111.352 63.505 109.528 53.1458C107.65 42.479 101.964 32.8563 93.5265 26.0655C85.089 19.2746 74.4734 15.7771 63.6517 16.2227C52.83 16.6683 42.5378 21.0268 34.6872 28.4884C26.8366 35.95 21.9611 46.0075 20.9666 56.7926C19.972 67.5777 22.9259 78.3572 29.2796 87.1287C35.6333 95.9002 44.9548 102.067 55.5125 104.484C65.3403 106.735 75.6173 105.593 84.684 101.284L73.7754 91.8647Z" fill="#3E3EA1"/>
<path d="M199.705 29.5878C198.7 27.961 197.36 26.7887 195.685 26.0709C194.011 25.3054 192.264 24.9226 190.446 24.9226C189.106 24.9226 187.79 25.09 186.498 25.425C185.206 25.7599 184.034 26.2623 182.981 26.9322C181.977 27.6021 181.163 28.4873 180.541 29.5878C179.919 30.6884 179.608 31.9803 179.608 33.4636C179.608 34.612 179.775 35.6408 180.11 36.5499C180.493 37.4112 181.091 38.2007 181.905 38.9184C182.718 39.6362 183.819 40.306 185.206 40.9281C186.594 41.5501 188.293 42.1722 190.302 42.7942C192.264 43.4162 194.154 44.0861 195.972 44.8039C197.839 45.5216 199.465 46.4307 200.853 47.5313C202.288 48.6318 203.413 50.0194 204.226 51.6941C205.088 53.321 205.518 55.3785 205.518 57.8667C205.518 60.4027 205.016 62.6037 204.011 64.4698C203.006 66.3359 201.666 67.891 199.992 69.1351C198.365 70.3313 196.475 71.2166 194.322 71.7907C192.168 72.4128 189.943 72.7238 187.647 72.7238C186.163 72.7238 184.68 72.5803 183.197 72.2932C181.713 72.0539 180.278 71.6711 178.89 71.1448C177.55 70.5706 176.282 69.8529 175.086 68.9916C173.89 68.0824 172.861 66.9819 172 65.69L177.168 61.4553C178.268 63.3215 179.799 64.733 181.761 65.69C183.723 66.647 185.804 67.1255 188.006 67.1255C189.297 67.1255 190.589 66.9341 191.881 66.5513C193.221 66.1685 194.417 65.6182 195.47 64.9005C196.523 64.1349 197.384 63.2018 198.054 62.1013C198.724 61.0008 199.059 59.7328 199.059 58.2973C199.059 56.7183 198.795 55.4503 198.269 54.4933C197.743 53.4885 196.929 52.6272 195.829 51.9094C194.728 51.1917 193.341 50.5457 191.666 49.9716C189.991 49.3974 188.029 48.7275 185.781 47.9619C183.962 47.3877 182.288 46.7417 180.756 46.024C179.225 45.2584 177.885 44.3493 176.737 43.2966C175.637 42.1961 174.751 40.9042 174.081 39.4208C173.459 37.8897 173.148 36.0714 173.148 33.966C173.148 31.5257 173.627 29.3965 174.584 27.5782C175.541 25.7599 176.833 24.2527 178.46 23.0564C180.086 21.8124 181.929 20.8793 183.986 20.2573C186.044 19.6352 188.197 19.3242 190.446 19.3242C193.317 19.3242 195.925 19.7788 198.269 20.6879C200.662 21.5492 202.791 23.0804 204.657 25.2814L199.705 29.5878Z" fill="#3E3EA1"/>
<path d="M217.265 20.6161H226.237L243.462 60.4505H243.606L260.975 20.6161H269.732V71.4319H263.703V28.7983H263.559L245.329 71.4319H241.668L223.438 28.7983H223.294V71.4319H217.265V20.6161Z" fill="#3E3EA1"/>
<path d="M300.682 20.6161H306.352L327.956 71.4319H320.922L315.755 58.9433H290.347L285.107 71.4319H278.289L300.682 20.6161ZM303.41 28.3677H303.266L292.715 53.3449H313.458L303.41 28.3677Z" fill="#3E3EA1"/>
<path d="M336.505 20.6161H349.496C351.936 20.6161 354.352 20.7597 356.745 21.0468C359.185 21.3339 361.362 21.9559 363.276 22.9129C365.19 23.8699 366.745 25.2814 367.941 27.1475C369.138 28.9658 369.736 31.454 369.736 34.612C369.736 38.3442 368.611 41.3587 366.362 43.6555C364.114 45.9522 361.003 47.4116 357.032 48.0337L371.458 71.4319H364.066L350.285 48.6079H342.534V71.4319H336.505V20.6161ZM342.534 43.0095H347.917C349.591 43.0095 351.314 42.9617 353.084 42.866C354.903 42.7703 356.553 42.4593 358.037 41.9329C359.568 41.4066 360.812 40.5931 361.769 39.4926C362.774 38.3442 363.276 36.7174 363.276 34.612C363.276 32.7937 362.917 31.3343 362.2 30.2338C361.482 29.1333 360.525 28.2959 359.329 27.7217C358.18 27.0997 356.864 26.693 355.381 26.5016C353.946 26.3102 352.486 26.2145 351.003 26.2145H342.534V43.0095Z" fill="#3E3EA1"/>
<path d="M415.007 26.2145H398.212V71.4319H392.183V26.2145H375.388V20.6161H415.007V26.2145Z" fill="#3E3EA1"/>
<path d="M459.522 31.0951C457.991 29.0376 456.101 27.5064 453.852 26.5016C451.603 25.4489 449.259 24.9226 446.818 24.9226C443.995 24.9226 441.388 25.4968 438.995 26.6451C436.651 27.7935 434.617 29.3486 432.894 31.3104C431.172 33.2244 429.832 35.4733 428.875 38.0571C427.918 40.5931 427.44 43.2488 427.44 46.024C427.44 48.9907 427.918 51.7659 428.875 54.3498C429.832 56.8858 431.148 59.1107 432.823 61.0247C434.545 62.8908 436.579 64.3741 438.923 65.4747C441.316 66.5752 443.948 67.1255 446.818 67.1255C449.929 67.1255 452.704 66.5273 455.144 65.3311C457.584 64.087 459.714 62.3166 461.532 60.0199L466.054 63.8239C463.757 66.8862 460.982 69.1351 457.728 70.5706C454.522 72.0061 450.886 72.7238 446.818 72.7238C443.182 72.7238 439.785 72.0539 436.627 70.7141C433.469 69.3744 430.717 67.5322 428.373 65.1876C426.076 62.7951 424.258 59.972 422.918 56.7183C421.626 53.4645 420.98 49.8998 420.98 46.024C420.98 42.2918 421.602 38.7988 422.846 35.5451C424.138 32.2913 425.932 29.4682 428.229 27.0758C430.526 24.6833 433.253 22.7933 436.411 21.4057C439.569 20.018 443.038 19.3242 446.818 19.3242C450.264 19.3242 453.565 19.9463 456.723 21.1903C459.929 22.4344 462.609 24.468 464.762 27.2911L459.522 31.0951Z" fill="#3E3EA1" fill-opacity="0.5"/>
<path d="M499.866 72.7238C495.991 72.7238 492.426 72.0539 489.172 70.7141C485.966 69.3744 483.167 67.5322 480.775 65.1876C478.43 62.7951 476.588 59.972 475.248 56.7183C473.956 53.4167 473.31 49.8519 473.31 46.024C473.31 42.1961 473.956 38.6552 475.248 35.4015C476.588 32.0999 478.43 29.2768 480.775 26.9322C483.167 24.5398 485.966 22.6737 489.172 21.3339C492.426 19.9941 495.991 19.3242 499.866 19.3242C503.742 19.3242 507.283 19.9941 510.489 21.3339C513.743 22.6737 516.542 24.5398 518.886 26.9322C521.279 29.2768 523.121 32.0999 524.413 35.4015C525.753 38.6552 526.423 42.1961 526.423 46.024C526.423 49.8519 525.753 53.4167 524.413 56.7183C523.121 59.972 521.279 62.7951 518.886 65.1876C516.542 67.5322 513.743 69.3744 510.489 70.7141C507.283 72.0539 503.742 72.7238 499.866 72.7238ZM499.866 67.1255C502.833 67.1255 505.537 66.5752 507.977 65.4747C510.465 64.3741 512.594 62.8669 514.365 60.9529C516.135 59.039 517.499 56.814 518.456 54.278C519.461 51.6941 519.963 48.9428 519.963 46.024C519.963 43.1052 519.461 40.3778 518.456 37.8418C517.499 35.258 516.135 33.0091 514.365 31.0951C512.594 29.1811 510.465 27.6739 507.977 26.5734C505.537 25.4728 502.833 24.9226 499.866 24.9226C496.9 24.9226 494.172 25.4728 491.684 26.5734C489.244 27.6739 487.139 29.1811 485.368 31.0951C483.598 33.0091 482.21 35.258 481.205 37.8418C480.248 40.3778 479.77 43.1052 479.77 46.024C479.77 48.9428 480.248 51.6941 481.205 54.278C482.21 56.814 483.598 59.039 485.368 60.9529C487.139 62.8669 489.244 64.3741 491.684 65.4747C494.172 66.5752 496.9 67.1255 499.866 67.1255Z" fill="#3E3EA1" fill-opacity="0.5"/>
<path d="M537.905 20.6161H545.513L574.941 62.819H575.084V20.6161H581.113V71.4319H573.505L544.078 29.229H543.934V71.4319H537.905V20.6161Z" fill="#3E3EA1" fill-opacity="0.5"/>
<path d="M595.563 20.6161H603.171L632.598 62.819H632.741V20.6161H638.77V71.4319H631.162L601.735 29.229H601.592V71.4319H595.563V20.6161Z" fill="#3E3EA1" fill-opacity="0.5"/>
<path d="M653.22 20.6161H685.159V26.2145H659.249V42.1482H683.436V47.7466H659.249V65.8335H686.451V71.4319H653.22V20.6161Z" fill="#3E3EA1" fill-opacity="0.5"/>
<path d="M733.159 31.0951C731.628 29.0376 729.738 27.5064 727.489 26.5016C725.24 25.4489 722.896 24.9226 720.455 24.9226C717.632 24.9226 715.025 25.4968 712.632 26.6451C710.288 27.7935 708.254 29.3486 706.531 31.3104C704.809 33.2244 703.469 35.4733 702.512 38.0571C701.555 40.5931 701.077 43.2488 701.077 46.024C701.077 48.9907 701.555 51.7659 702.512 54.3498C703.469 56.8858 704.785 59.1107 706.46 61.0247C708.182 62.8908 710.216 64.3741 712.56 65.4747C714.953 66.5752 717.584 67.1255 720.455 67.1255C723.566 67.1255 726.341 66.5273 728.781 65.3311C731.221 64.087 733.351 62.3166 735.169 60.0199L739.691 63.8239C737.394 66.8862 734.619 69.1351 731.365 70.5706C728.159 72.0061 724.523 72.7238 720.455 72.7238C716.819 72.7238 713.422 72.0539 710.264 70.7141C707.106 69.3744 704.354 67.5322 702.01 65.1876C699.713 62.7951 697.895 59.972 696.555 56.7183C695.263 53.4645 694.617 49.8998 694.617 46.024C694.617 42.2918 695.239 38.7988 696.483 35.5451C697.775 32.2913 699.569 29.4682 701.866 27.0758C704.163 24.6833 706.89 22.7933 710.048 21.4057C713.206 20.018 716.675 19.3242 720.455 19.3242C723.901 19.3242 727.202 19.9463 730.36 21.1903C733.566 22.4344 736.246 24.468 738.399 27.2911L733.159 31.0951Z" fill="#3E3EA1" fill-opacity="0.5"/>
<path d="M783.982 26.2145H767.187V71.4319H761.158V26.2145H744.363V20.6161H783.982V26.2145Z" fill="#3E3EA1" fill-opacity="0.5"/>
<path d="M174.52 124.724V98.8039H182.242C182.542 98.8039 183.028 98.8099 183.7 98.8219C184.384 98.8339 185.032 98.8879 185.644 98.9839C187.588 99.2479 189.202 99.9799 190.486 101.18C191.77 102.368 192.73 103.88 193.366 105.716C194.002 107.54 194.32 109.556 194.32 111.764C194.32 113.984 194.002 116.012 193.366 117.848C192.73 119.672 191.77 121.178 190.486 122.366C189.202 123.554 187.588 124.28 185.644 124.544C185.032 124.628 184.378 124.682 183.682 124.706C182.998 124.718 182.518 124.724 182.242 124.724H174.52ZM176.698 122.69H182.242C182.782 122.69 183.34 122.678 183.916 122.654C184.492 122.618 184.984 122.564 185.392 122.492C187 122.204 188.296 121.568 189.28 120.584C190.264 119.588 190.978 118.334 191.422 116.822C191.878 115.298 192.106 113.612 192.106 111.764C192.106 109.904 191.878 108.218 191.422 106.706C190.966 105.182 190.246 103.928 189.262 102.944C188.278 101.948 186.988 101.312 185.392 101.036C184.984 100.964 184.48 100.916 183.88 100.892C183.292 100.856 182.746 100.838 182.242 100.838H176.698V122.69ZM204.937 125.264C203.437 125.264 202.189 125 201.193 124.472C200.209 123.944 199.471 123.248 198.979 122.384C198.487 121.508 198.241 120.56 198.241 119.54C198.241 118.436 198.469 117.512 198.925 116.768C199.393 116.024 200.011 115.424 200.779 114.968C201.559 114.512 202.417 114.17 203.353 113.942C204.421 113.702 205.573 113.498 206.809 113.33C208.045 113.15 209.221 112.994 210.337 112.862C211.465 112.73 212.383 112.616 213.091 112.52L212.335 112.97C212.383 110.87 211.987 109.31 211.147 108.29C210.319 107.258 208.855 106.742 206.755 106.742C205.279 106.742 204.061 107.078 203.101 107.75C202.153 108.41 201.487 109.436 201.103 110.828L198.979 110.234C199.423 108.47 200.317 107.114 201.661 106.166C203.005 105.218 204.727 104.744 206.827 104.744C208.615 104.744 210.115 105.092 211.327 105.788C212.551 106.484 213.403 107.462 213.883 108.722C214.087 109.238 214.225 109.844 214.297 110.54C214.369 111.224 214.405 111.914 214.405 112.61V124.724H212.515V119.612L213.217 119.792C212.629 121.544 211.603 122.894 210.139 123.842C208.675 124.79 206.941 125.264 204.937 125.264ZM205.045 123.356C206.365 123.356 207.523 123.122 208.519 122.654C209.515 122.174 210.319 121.508 210.931 120.656C211.555 119.792 211.951 118.778 212.119 117.614C212.239 116.966 212.305 116.264 212.317 115.508C212.329 114.752 212.335 114.194 212.335 113.834L213.235 114.41C212.455 114.506 211.519 114.608 210.427 114.716C209.347 114.824 208.243 114.956 207.115 115.112C205.987 115.268 204.967 115.466 204.055 115.706C203.491 115.862 202.921 116.09 202.345 116.39C201.781 116.678 201.307 117.08 200.923 117.596C200.551 118.112 200.365 118.766 200.365 119.558C200.365 120.146 200.509 120.734 200.797 121.322C201.097 121.91 201.589 122.396 202.273 122.78C202.957 123.164 203.881 123.356 205.045 123.356ZM230.393 124.724C229.361 124.952 228.341 125.036 227.333 124.976C226.325 124.928 225.425 124.706 224.633 124.31C223.853 123.902 223.265 123.278 222.869 122.438C222.545 121.754 222.365 121.064 222.329 120.368C222.293 119.672 222.275 118.874 222.275 117.974V99.8839H224.363V117.938C224.363 118.754 224.369 119.432 224.381 119.972C224.405 120.5 224.531 120.986 224.759 121.43C225.191 122.258 225.875 122.762 226.811 122.942C227.747 123.11 228.941 123.08 230.393 122.852V124.724ZM217.919 107.174V105.284H230.393V107.174H217.919ZM240.722 125.264C239.222 125.264 237.974 125 236.978 124.472C235.994 123.944 235.256 123.248 234.764 122.384C234.272 121.508 234.026 120.56 234.026 119.54C234.026 118.436 234.254 117.512 234.71 116.768C235.178 116.024 235.796 115.424 236.564 114.968C237.344 114.512 238.202 114.17 239.138 113.942C240.206 113.702 241.358 113.498 242.594 113.33C243.83 113.15 245.006 112.994 246.122 112.862C247.25 112.73 248.168 112.616 248.876 112.52L248.12 112.97C248.168 110.87 247.772 109.31 246.932 108.29C246.104 107.258 244.64 106.742 242.54 106.742C241.064 106.742 239.846 107.078 238.886 107.75C237.938 108.41 237.272 109.436 236.888 110.828L234.764 110.234C235.208 108.47 236.102 107.114 237.446 106.166C238.79 105.218 240.512 104.744 242.612 104.744C244.4 104.744 245.9 105.092 247.112 105.788C248.336 106.484 249.188 107.462 249.668 108.722C249.872 109.238 250.01 109.844 250.082 110.54C250.154 111.224 250.19 111.914 250.19 112.61V124.724H248.3V119.612L249.002 119.792C248.414 121.544 247.388 122.894 245.924 123.842C244.46 124.79 242.726 125.264 240.722 125.264ZM240.83 123.356C242.15 123.356 243.308 123.122 244.304 122.654C245.3 122.174 246.104 121.508 246.716 120.656C247.34 119.792 247.736 118.778 247.904 117.614C248.024 116.966 248.09 116.264 248.102 115.508C248.114 114.752 248.12 114.194 248.12 113.834L249.02 114.41C248.24 114.506 247.304 114.608 246.212 114.716C245.132 114.824 244.028 114.956 242.9 115.112C241.772 115.268 240.752 115.466 239.84 115.706C239.276 115.862 238.706 116.09 238.13 116.39C237.566 116.678 237.092 117.08 236.708 117.596C236.336 118.112 236.15 118.766 236.15 119.558C236.15 120.146 236.294 120.734 236.582 121.322C236.882 121.91 237.374 122.396 238.058 122.78C238.742 123.164 239.666 123.356 240.83 123.356ZM272.278 124.724V98.8039H280C280.3 98.8039 280.786 98.8099 281.458 98.8219C282.142 98.8339 282.79 98.8879 283.402 98.9839C285.346 99.2479 286.96 99.9799 288.244 101.18C289.528 102.368 290.488 103.88 291.124 105.716C291.76 107.54 292.078 109.556 292.078 111.764C292.078 113.984 291.76 116.012 291.124 117.848C290.488 119.672 289.528 121.178 288.244 122.366C286.96 123.554 285.346 124.28 283.402 124.544C282.79 124.628 282.136 124.682 281.44 124.706C280.756 124.718 280.276 124.724 280 124.724H272.278ZM274.456 122.69H280C280.54 122.69 281.098 122.678 281.674 122.654C282.25 122.618 282.742 122.564 283.15 122.492C284.758 122.204 286.054 121.568 287.038 120.584C288.022 119.588 288.736 118.334 289.18 116.822C289.636 115.298 289.864 113.612 289.864 111.764C289.864 109.904 289.636 108.218 289.18 106.706C288.724 105.182 288.004 103.928 287.02 102.944C286.036 101.948 284.746 101.312 283.15 101.036C282.742 100.964 282.238 100.916 281.638 100.892C281.05 100.856 280.504 100.838 280 100.838H274.456V122.69ZM297.079 124.724V105.284H298.969V109.946L298.501 109.334C298.717 108.782 298.987 108.272 299.311 107.804C299.647 107.324 299.989 106.934 300.337 106.634C300.853 106.154 301.459 105.794 302.155 105.554C302.851 105.302 303.553 105.158 304.261 105.122C304.969 105.074 305.611 105.128 306.187 105.284V107.246C305.419 107.066 304.603 107.03 303.739 107.138C302.875 107.246 302.065 107.618 301.309 108.254C300.649 108.83 300.169 109.502 299.869 110.27C299.569 111.026 299.377 111.824 299.293 112.664C299.209 113.492 299.167 114.302 299.167 115.094V124.724H297.079ZM310.954 101.36V98.7139H313.024V101.36H310.954ZM310.954 124.724V105.284H313.024V124.724H310.954ZM324.69 124.724L317.634 105.284H319.776L325.788 121.898L331.782 105.284H333.942L326.886 124.724H324.69ZM345.495 125.264C343.635 125.264 342.027 124.85 340.671 124.022C339.315 123.182 338.265 122 337.521 120.476C336.777 118.94 336.405 117.128 336.405 115.04C336.405 112.916 336.771 111.086 337.503 109.55C338.247 108.002 339.291 106.814 340.635 105.986C341.991 105.158 343.599 104.744 345.459 104.744C347.343 104.744 348.951 105.176 350.283 106.04C351.627 106.892 352.647 108.128 353.343 109.748C354.051 111.368 354.387 113.318 354.351 115.598H352.191V114.878C352.131 112.214 351.531 110.186 350.391 108.794C349.251 107.402 347.619 106.706 345.495 106.706C343.299 106.706 341.601 107.432 340.401 108.884C339.213 110.324 338.619 112.364 338.619 115.004C338.619 117.62 339.213 119.648 340.401 121.088C341.601 122.528 343.287 123.248 345.459 123.248C346.959 123.248 348.267 122.9 349.383 122.204C350.511 121.496 351.405 120.488 352.065 119.18L353.937 120.008C353.157 121.688 352.029 122.984 350.553 123.896C349.077 124.808 347.391 125.264 345.495 125.264ZM337.827 115.598V113.726H353.181V115.598H337.827ZM366.515 125.228C364.271 125.228 362.417 124.754 360.953 123.806C359.501 122.858 358.601 121.538 358.253 119.846L360.377 119.486C360.677 120.638 361.385 121.556 362.501 122.24C363.617 122.924 364.985 123.266 366.605 123.266C368.213 123.266 369.491 122.924 370.439 122.24C371.387 121.556 371.861 120.62 371.861 119.432C371.861 118.784 371.711 118.256 371.411 117.848C371.123 117.428 370.547 117.044 369.683 116.696C368.819 116.348 367.535 115.94 365.831 115.472C364.031 114.992 362.621 114.512 361.601 114.032C360.593 113.552 359.879 113.006 359.458 112.394C359.051 111.782 358.847 111.032 358.847 110.144C358.847 109.076 359.153 108.14 359.765 107.336C360.377 106.52 361.229 105.884 362.321 105.428C363.425 104.972 364.697 104.744 366.137 104.744C367.577 104.744 368.873 104.984 370.025 105.464C371.177 105.932 372.107 106.592 372.815 107.444C373.523 108.284 373.931 109.262 374.039 110.378L371.915 110.774C371.711 109.526 371.081 108.542 370.025 107.822C368.969 107.09 367.649 106.718 366.064 106.706C364.565 106.682 363.341 106.982 362.393 107.606C361.445 108.218 360.971 109.028 360.971 110.036C360.971 110.612 361.133 111.104 361.457 111.512C361.793 111.908 362.381 112.274 363.221 112.61C364.061 112.946 365.249 113.306 366.785 113.69C368.657 114.17 370.115 114.662 371.159 115.166C372.215 115.67 372.959 116.264 373.391 116.948C373.823 117.62 374.039 118.454 374.039 119.45C374.039 121.25 373.367 122.666 372.023 123.698C370.691 124.718 368.855 125.228 366.515 125.228ZM396.045 125.264C394.269 125.264 392.667 124.97 391.239 124.382C389.823 123.794 388.647 122.96 387.711 121.88C386.787 120.8 386.169 119.516 385.857 118.028L387.981 117.668C388.425 119.396 389.373 120.758 390.825 121.754C392.289 122.75 394.047 123.248 396.099 123.248C397.491 123.248 398.721 123.026 399.789 122.582C400.857 122.138 401.691 121.514 402.291 120.71C402.891 119.894 403.191 118.946 403.191 117.866C403.191 117.086 403.047 116.432 402.759 115.904C402.483 115.376 402.123 114.944 401.679 114.608C401.235 114.26 400.761 113.984 400.257 113.78C399.753 113.564 399.279 113.39 398.835 113.258L392.319 111.314C391.455 111.062 390.681 110.75 389.997 110.378C389.325 109.994 388.755 109.556 388.287 109.064C387.831 108.56 387.477 107.99 387.225 107.354C386.985 106.718 386.865 106.01 386.865 105.23C386.865 103.838 387.237 102.62 387.981 101.576C388.725 100.532 389.745 99.7219 391.041 99.1459C392.349 98.5579 393.849 98.2639 395.541 98.2639C397.245 98.2759 398.775 98.5939 400.131 99.2179C401.487 99.8299 402.597 100.7 403.461 101.828C404.337 102.956 404.901 104.294 405.153 105.842L403.011 106.22C402.843 105.032 402.411 103.994 401.715 103.106C401.031 102.218 400.155 101.528 399.087 101.036C398.019 100.544 396.831 100.298 395.523 100.298C394.263 100.286 393.147 100.496 392.175 100.928C391.215 101.36 390.459 101.942 389.907 102.674C389.355 103.406 389.079 104.234 389.079 105.158C389.079 106.118 389.337 106.886 389.853 107.462C390.381 108.026 391.023 108.47 391.779 108.794C392.547 109.118 393.279 109.382 393.975 109.586L399.195 111.134C399.687 111.278 400.275 111.482 400.959 111.746C401.643 112.01 402.315 112.388 402.975 112.88C403.635 113.36 404.181 114.002 404.613 114.806C405.057 115.598 405.279 116.594 405.279 117.794C405.279 118.958 405.057 120.002 404.613 120.926C404.169 121.85 403.533 122.636 402.705 123.284C401.877 123.92 400.899 124.406 399.771 124.742C398.643 125.09 397.401 125.264 396.045 125.264ZM417.404 125.174C416.336 125.174 415.376 125.018 414.524 124.706C413.684 124.394 412.952 123.956 412.328 123.392C411.704 122.816 411.188 122.144 410.78 121.376C410.372 120.596 410.066 119.744 409.862 118.82C409.67 117.896 409.574 116.93 409.574 115.922V105.284H411.662V115.4C411.662 116.624 411.782 117.716 412.022 118.676C412.274 119.636 412.646 120.452 413.138 121.124C413.642 121.796 414.266 122.306 415.01 122.654C415.766 123.002 416.654 123.176 417.674 123.176C418.73 123.176 419.642 122.996 420.41 122.636C421.19 122.264 421.826 121.748 422.318 121.088C422.822 120.428 423.194 119.648 423.434 118.748C423.686 117.836 423.812 116.846 423.812 115.778L425.45 115.976C425.45 118.076 425.09 119.81 424.37 121.178C423.662 122.534 422.702 123.542 421.49 124.202C420.278 124.85 418.916 125.174 417.404 125.174ZM424.01 124.724V120.35H423.812V105.284H425.9V124.724H424.01ZM439.86 125.264C437.916 125.264 436.278 124.832 434.946 123.968C433.614 123.092 432.6 121.886 431.904 120.35C431.22 118.802 430.866 117.02 430.842 115.004C430.866 112.952 431.226 111.158 431.922 109.622C432.63 108.074 433.65 106.874 434.982 106.022C436.314 105.17 437.946 104.744 439.878 104.744C441.762 104.744 443.418 105.2 444.846 106.112C446.286 107.012 447.282 108.254 447.834 109.838L445.818 110.576C445.326 109.364 444.552 108.428 443.496 107.768C442.44 107.096 441.228 106.76 439.86 106.76C438.324 106.76 437.058 107.114 436.062 107.822C435.066 108.518 434.322 109.484 433.83 110.72C433.338 111.956 433.08 113.384 433.056 115.004C433.092 117.488 433.674 119.486 434.802 120.998C435.942 122.498 437.628 123.248 439.86 123.248C441.24 123.248 442.434 122.93 443.442 122.294C444.462 121.658 445.242 120.734 445.782 119.522L447.834 120.224C447.078 121.868 446.022 123.122 444.666 123.986C443.31 124.838 441.708 125.264 439.86 125.264ZM460.021 125.264C458.077 125.264 456.439 124.832 455.107 123.968C453.775 123.092 452.761 121.886 452.065 120.35C451.381 118.802 451.027 117.02 451.003 115.004C451.027 112.952 451.387 111.158 452.083 109.622C452.791 108.074 453.811 106.874 455.143 106.022C456.475 105.17 458.107 104.744 460.039 104.744C461.923 104.744 463.579 105.2 465.007 106.112C466.447 107.012 467.443 108.254 467.995 109.838L465.979 110.576C465.487 109.364 464.713 108.428 463.657 107.768C462.601 107.096 461.389 106.76 460.021 106.76C458.485 106.76 457.219 107.114 456.223 107.822C455.227 108.518 454.483 109.484 453.991 110.72C453.499 111.956 453.241 113.384 453.217 115.004C453.253 117.488 453.835 119.486 454.963 120.998C456.103 122.498 457.789 123.248 460.021 123.248C461.401 123.248 462.595 122.93 463.603 122.294C464.623 121.658 465.403 120.734 465.943 119.522L467.995 120.224C467.239 121.868 466.183 123.122 464.827 123.986C463.471 124.838 461.869 125.264 460.021 125.264ZM480.253 125.264C478.393 125.264 476.785 124.85 475.429 124.022C474.073 123.182 473.023 122 472.279 120.476C471.535 118.94 471.163 117.128 471.163 115.04C471.163 112.916 471.529 111.086 472.261 109.55C473.005 108.002 474.049 106.814 475.393 105.986C476.749 105.158 478.357 104.744 480.217 104.744C482.101 104.744 483.709 105.176 485.041 106.04C486.385 106.892 487.405 108.128 488.101 109.748C488.809 111.368 489.145 113.318 489.109 115.598H486.949V114.878C486.889 112.214 486.289 110.186 485.149 108.794C484.009 107.402 482.377 106.706 480.253 106.706C478.057 106.706 476.359 107.432 475.159 108.884C473.971 110.324 473.377 112.364 473.377 115.004C473.377 117.62 473.971 119.648 475.159 121.088C476.359 122.528 478.045 123.248 480.217 123.248C481.717 123.248 483.025 122.9 484.141 122.204C485.269 121.496 486.163 120.488 486.823 119.18L488.695 120.008C487.915 121.688 486.787 122.984 485.311 123.896C483.835 124.808 482.149 125.264 480.253 125.264ZM472.585 115.598V113.726H487.939V115.598H472.585ZM501.272 125.228C499.028 125.228 497.174 124.754 495.71 123.806C494.258 122.858 493.358 121.538 493.01 119.846L495.134 119.486C495.434 120.638 496.142 121.556 497.258 122.24C498.374 122.924 499.742 123.266 501.362 123.266C502.97 123.266 504.248 122.924 505.196 122.24C506.144 121.556 506.618 120.62 506.618 119.432C506.618 118.784 506.468 118.256 506.168 117.848C505.88 117.428 505.304 117.044 504.44 116.696C503.576 116.348 502.292 115.94 500.588 115.472C498.788 114.992 497.378 114.512 496.358 114.032C495.35 113.552 494.636 113.006 494.216 112.394C493.808 111.782 493.604 111.032 493.604 110.144C493.604 109.076 493.91 108.14 494.522 107.336C495.134 106.52 495.986 105.884 497.078 105.428C498.182 104.972 499.454 104.744 500.894 104.744C502.334 104.744 503.63 104.984 504.782 105.464C505.934 105.932 506.864 106.592 507.572 107.444C508.28 108.284 508.688 109.262 508.796 110.378L506.672 110.774C506.468 109.526 505.838 108.542 504.782 107.822C503.726 107.09 502.406 106.718 500.822 106.706C499.322 106.682 498.098 106.982 497.15 107.606C496.202 108.218 495.728 109.028 495.728 110.036C495.728 110.612 495.89 111.104 496.214 111.512C496.55 111.908 497.138 112.274 497.978 112.61C498.818 112.946 500.006 113.306 501.542 113.69C503.414 114.17 504.872 114.662 505.916 115.166C506.972 115.67 507.716 116.264 508.148 116.948C508.58 117.62 508.796 118.454 508.796 119.45C508.796 121.25 508.124 122.666 506.78 123.698C505.448 124.718 503.612 125.228 501.272 125.228ZM520.975 125.228C518.731 125.228 516.877 124.754 515.413 123.806C513.961 122.858 513.061 121.538 512.713 119.846L514.837 119.486C515.137 120.638 515.845 121.556 516.961 122.24C518.077 122.924 519.445 123.266 521.065 123.266C522.673 123.266 523.951 122.924 524.899 122.24C525.847 121.556 526.321 120.62 526.321 119.432C526.321 118.784 526.171 118.256 525.871 117.848C525.583 117.428 525.007 117.044 524.143 116.696C523.279 116.348 521.995 115.94 520.291 115.472C518.491 114.992 517.081 114.512 516.061 114.032C515.053 113.552 514.339 113.006 513.919 112.394C513.511 111.782 513.307 111.032 513.307 110.144C513.307 109.076 513.613 108.14 514.225 107.336C514.837 106.52 515.689 105.884 516.781 105.428C517.885 104.972 519.157 104.744 520.597 104.744C522.037 104.744 523.333 104.984 524.485 105.464C525.637 105.932 526.567 106.592 527.275 107.444C527.983 108.284 528.391 109.262 528.499 110.378L526.375 110.774C526.171 109.526 525.541 108.542 524.485 107.822C523.429 107.09 522.109 106.718 520.525 106.706C519.025 106.682 517.801 106.982 516.853 107.606C515.905 108.218 515.431 109.028 515.431 110.036C515.431 110.612 515.593 111.104 515.917 111.512C516.253 111.908 516.841 112.274 517.681 112.61C518.521 112.946 519.709 113.306 521.245 113.69C523.117 114.17 524.575 114.662 525.619 115.166C526.675 115.67 527.419 116.264 527.851 116.948C528.283 117.62 528.499 118.454 528.499 119.45C528.499 121.25 527.827 122.666 526.483 123.698C525.151 124.718 523.315 125.228 520.975 125.228Z" fill="#3E3EA1"/>
</svg>
