<svg width="586" height="372" viewBox="0 0 586 372" fill="none" xmlns="http://www.w3.org/2000/svg">
<path d="M298.682 137.629C291.174 139.638 283.234 139.809 275.549 138.049C264.208 135.453 254.195 128.828 247.37 119.405C240.544 109.983 237.371 98.4035 238.44 86.8179C239.508 75.2324 244.745 64.4284 253.178 56.4131C261.612 48.3977 272.668 43.7158 284.293 43.2371C295.917 42.7584 307.321 46.5155 316.385 53.8104C325.448 61.1052 331.556 71.442 333.573 82.9005C335.32 92.8242 333.897 103.005 329.568 112.019L310.668 95.6996C311.061 93.9388 311.269 92.1079 311.269 90.2285C311.269 76.4214 300.076 65.2285 286.269 65.2285C272.462 65.2285 261.269 76.4214 261.269 90.2285C261.269 104.036 272.462 115.229 286.269 115.229C290.809 115.229 295.067 114.018 298.737 111.902L346.825 153.423C341.661 158.704 335.819 163.311 329.436 167.113C318.589 173.575 306.447 177.556 293.879 178.771C281.312 179.986 268.632 178.405 256.748 174.141C244.864 169.877 234.071 163.035 225.143 154.107L212.135 167.115C222.982 177.963 236.096 186.275 250.535 191.456C264.974 196.637 280.38 198.558 295.65 197.082C310.919 195.606 325.672 190.768 338.851 182.917C350.101 176.216 359.965 167.46 367.941 157.127L373.865 150.266L344.291 124.731C352.158 111.108 354.987 95.1342 352.254 79.6117C349.44 63.6283 340.92 49.2095 328.277 39.0339C315.634 28.8583 299.728 23.6176 283.512 24.2853C267.297 24.953 251.875 31.4838 240.111 42.6644C228.348 53.8451 221.042 68.9155 219.552 85.0762C218.062 101.237 222.488 117.389 232.008 130.532C241.529 143.676 255.496 152.917 271.316 156.539C286.042 159.91 301.442 158.199 315.027 151.743L298.682 137.629Z" fill="#3E3EA1"/>
<path d="M48.6272 262.577C47.7448 261.149 46.5683 260.119 45.0977 259.489C43.627 258.817 42.0934 258.481 40.4967 258.481C39.3202 258.481 38.1647 258.628 37.0302 258.922C35.8958 259.216 34.8663 259.657 33.9419 260.245C33.0595 260.834 32.3452 261.611 31.799 262.577C31.2528 263.544 30.9797 264.678 30.9797 265.981C30.9797 266.989 31.1267 267.893 31.4209 268.691C31.757 269.447 32.2822 270.14 32.9965 270.771C33.7108 271.401 34.6772 271.989 35.8958 272.536C37.1143 273.082 38.6059 273.628 40.3707 274.174C42.0934 274.72 43.7531 275.309 45.3498 275.939C46.9885 276.569 48.4171 277.368 49.6356 278.334C50.8961 279.3 51.8835 280.519 52.5978 281.99C53.3542 283.418 53.7323 285.225 53.7323 287.41C53.7323 289.637 53.2911 291.57 52.4088 293.208C51.5264 294.847 50.3499 296.213 48.8793 297.305C47.4507 298.355 45.791 299.133 43.9002 299.637C42.0093 300.183 40.0555 300.456 38.0387 300.456C36.7361 300.456 35.4336 300.33 34.131 300.078C32.8285 299.868 31.5679 299.532 30.3494 299.07C29.1729 298.566 28.0594 297.935 27.009 297.179C25.9585 296.381 25.0551 295.414 24.2988 294.28L28.8368 290.561C29.8032 292.2 31.1477 293.439 32.8705 294.28C34.5932 295.12 36.421 295.54 38.3538 295.54C39.4883 295.54 40.6228 295.372 41.7572 295.036C42.9337 294.7 43.9842 294.217 44.9086 293.586C45.833 292.914 46.5893 292.095 47.1775 291.128C47.7658 290.162 48.0599 289.049 48.0599 287.788C48.0599 286.401 47.8288 285.288 47.3666 284.448C46.9044 283.565 46.1901 282.809 45.2237 282.179C44.2573 281.548 43.0388 280.981 41.5682 280.477C40.0975 279.973 38.3748 279.384 36.4 278.712C34.8033 278.208 33.3327 277.641 31.9881 277.01C30.6435 276.338 29.467 275.54 28.4586 274.615C27.4922 273.649 26.7149 272.514 26.1266 271.212C25.5804 269.867 25.3073 268.271 25.3073 266.422C25.3073 264.279 25.7274 262.409 26.5678 260.813C27.4081 259.216 28.5426 257.892 29.9712 256.842C31.3998 255.749 33.0175 254.93 34.8243 254.384C36.6311 253.838 38.5219 253.564 40.4967 253.564C43.0178 253.564 45.3077 253.964 47.3666 254.762C49.4675 255.518 51.3373 256.863 52.976 258.796L48.6272 262.577Z" fill="#3E3EA1"/>
<path d="M64.0475 254.699H71.9259L87.0523 289.679H87.1784L102.431 254.699H110.12V299.322H104.826V261.884H104.7L88.691 299.322H85.4767L69.4678 261.884H69.3418V299.322H64.0475V254.699Z" fill="#3E3EA1"/>
<path d="M137.299 254.699H142.278L161.249 299.322H155.072L150.535 288.355H128.223L123.622 299.322H117.635L137.299 254.699ZM139.694 261.506H139.568L130.303 283.439H148.518L139.694 261.506Z" fill="#3E3EA1"/>
<path d="M168.756 254.699H180.164C182.306 254.699 184.428 254.825 186.529 255.077C188.672 255.329 190.584 255.875 192.265 256.716C193.945 257.556 195.311 258.796 196.361 260.434C197.412 262.031 197.937 264.216 197.937 266.989C197.937 270.267 196.95 272.914 194.975 274.931C193 276.947 190.269 278.229 186.781 278.775L199.45 299.322H192.958L180.857 279.279H174.05V299.322H168.756V254.699ZM174.05 274.363H178.777C180.248 274.363 181.76 274.321 183.315 274.237C184.912 274.153 186.361 273.88 187.664 273.418C189.008 272.956 190.101 272.241 190.941 271.275C191.823 270.267 192.265 268.838 192.265 266.989C192.265 265.392 191.95 264.111 191.319 263.145C190.689 262.178 189.849 261.443 188.798 260.939C187.79 260.392 186.634 260.035 185.332 259.867C184.071 259.699 182.79 259.615 181.487 259.615H174.05V274.363Z" fill="#3E3EA1"/>
<path d="M237.691 259.615H222.943V299.322H217.649V259.615H202.9V254.699H237.691V259.615Z" fill="#3E3EA1"/>
<path d="M276.782 263.901C275.437 262.094 273.777 260.75 271.802 259.867C269.828 258.943 267.769 258.481 265.626 258.481C263.147 258.481 260.857 258.985 258.756 259.993C256.697 261.002 254.911 262.367 253.399 264.09C251.886 265.771 250.71 267.745 249.869 270.014C249.029 272.241 248.609 274.573 248.609 277.01C248.609 279.616 249.029 282.053 249.869 284.322C250.71 286.548 251.865 288.502 253.336 290.183C254.848 291.822 256.634 293.124 258.693 294.091C260.794 295.057 263.105 295.54 265.626 295.54C268.357 295.54 270.794 295.015 272.937 293.965C275.08 292.872 276.95 291.317 278.546 289.301L282.517 292.641C280.5 295.33 278.063 297.305 275.206 298.566C272.391 299.826 269.197 300.456 265.626 300.456C262.432 300.456 259.449 299.868 256.676 298.692C253.903 297.515 251.487 295.897 249.428 293.839C247.411 291.738 245.814 289.259 244.638 286.401C243.503 283.544 242.936 280.414 242.936 277.01C242.936 273.733 243.482 270.666 244.575 267.809C245.709 264.951 247.285 262.472 249.302 260.371C251.319 258.27 253.714 256.611 256.487 255.392C259.26 254.174 262.306 253.564 265.626 253.564C268.651 253.564 271.55 254.111 274.324 255.203C277.139 256.296 279.492 258.081 281.383 260.56L276.782 263.901Z" fill="#3E3EA1" fill-opacity="0.5"/>
<path d="M312.209 300.456C308.806 300.456 305.675 299.868 302.818 298.692C300.003 297.515 297.545 295.897 295.444 293.839C293.385 291.738 291.767 289.259 290.591 286.401C289.456 283.502 288.889 280.372 288.889 277.01C288.889 273.649 289.456 270.54 290.591 267.682C291.767 264.783 293.385 262.304 295.444 260.245C297.545 258.144 300.003 256.506 302.818 255.329C305.675 254.153 308.806 253.564 312.209 253.564C315.612 253.564 318.722 254.153 321.537 255.329C324.394 256.506 326.852 258.144 328.911 260.245C331.012 262.304 332.63 264.783 333.764 267.682C334.941 270.54 335.529 273.649 335.529 277.01C335.529 280.372 334.941 283.502 333.764 286.401C332.63 289.259 331.012 291.738 328.911 293.839C326.852 295.897 324.394 297.515 321.537 298.692C318.722 299.868 315.612 300.456 312.209 300.456ZM312.209 295.54C314.814 295.54 317.188 295.057 319.331 294.091C321.516 293.124 323.386 291.801 324.94 290.12C326.495 288.439 327.693 286.485 328.533 284.258C329.415 281.99 329.857 279.573 329.857 277.01C329.857 274.447 329.415 272.052 328.533 269.825C327.693 267.556 326.495 265.582 324.94 263.901C323.386 262.22 321.516 260.897 319.331 259.93C317.188 258.964 314.814 258.481 312.209 258.481C309.604 258.481 307.209 258.964 305.024 259.93C302.881 260.897 301.032 262.22 299.478 263.901C297.923 265.582 296.704 267.556 295.822 269.825C294.982 272.052 294.562 274.447 294.562 277.01C294.562 279.573 294.982 281.99 295.822 284.258C296.704 286.485 297.923 288.439 299.478 290.12C301.032 291.801 302.881 293.124 305.024 294.091C307.209 295.057 309.604 295.54 312.209 295.54Z" fill="#3E3EA1" fill-opacity="0.5"/>
<path d="M345.612 254.699H352.293L378.134 291.759H378.26V254.699H383.554V299.322H376.874L351.033 262.262H350.906V299.322H345.612V254.699Z" fill="#3E3EA1" fill-opacity="0.5"/>
<path d="M396.243 254.699H402.924L428.765 291.759H428.891V254.699H434.185V299.322H427.504L401.663 262.262H401.537V299.322H396.243V254.699Z" fill="#3E3EA1" fill-opacity="0.5"/>
<path d="M446.874 254.699H474.921V259.615H452.168V273.607H473.408V278.523H452.168V294.406H476.055V299.322H446.874V254.699Z" fill="#3E3EA1" fill-opacity="0.5"/>
<path d="M517.071 263.901C515.727 262.094 514.067 260.75 512.092 259.867C510.117 258.943 508.058 258.481 505.915 258.481C503.436 258.481 501.146 258.985 499.046 259.993C496.987 261.002 495.201 262.367 493.688 264.09C492.176 265.771 490.999 267.745 490.159 270.014C489.318 272.241 488.898 274.573 488.898 277.01C488.898 279.616 489.318 282.053 490.159 284.322C490.999 286.548 492.155 288.502 493.625 290.183C495.138 291.822 496.924 293.124 498.982 294.091C501.083 295.057 503.394 295.54 505.915 295.54C508.647 295.54 511.084 295.015 513.227 293.965C515.369 292.872 517.239 291.317 518.836 289.301L522.807 292.641C520.79 295.33 518.353 297.305 515.495 298.566C512.68 299.826 509.487 300.456 505.915 300.456C502.722 300.456 499.739 299.868 496.966 298.692C494.192 297.515 491.776 295.897 489.718 293.839C487.701 291.738 486.104 289.259 484.927 286.401C483.793 283.544 483.226 280.414 483.226 277.01C483.226 273.733 483.772 270.666 484.865 267.809C485.999 264.951 487.575 262.472 489.592 260.371C491.608 258.27 494.003 256.611 496.777 255.392C499.55 254.174 502.596 253.564 505.915 253.564C508.941 253.564 511.84 254.111 514.613 255.203C517.428 256.296 519.781 258.081 521.672 260.56L517.071 263.901Z" fill="#3E3EA1" fill-opacity="0.5"/>
<path d="M561.701 259.615H546.952V299.322H541.658V259.615H526.91V254.699H561.701V259.615Z" fill="#3E3EA1" fill-opacity="0.5"/>
<path d="M144.816 323.8H151.824C153.786 323.8 155.45 324.046 156.816 324.536C158.181 325.006 159.312 325.614 160.208 326.36C161.125 327.107 161.84 327.939 162.352 328.856C162.885 329.752 163.269 330.616 163.504 331.448C163.76 332.28 163.92 333.038 163.984 333.72C164.048 334.382 164.08 334.851 164.08 335.128C164.08 335.406 164.048 335.886 163.984 336.568C163.92 337.23 163.76 337.976 163.504 338.808C163.269 339.64 162.885 340.515 162.352 341.432C161.84 342.328 161.125 343.15 160.208 343.896C159.312 344.643 158.181 345.262 156.816 345.752C155.45 346.222 153.786 346.456 151.824 346.456H144.816V323.8ZM146.928 344.536H151.28C152.773 344.536 154.17 344.355 155.472 343.992C156.773 343.608 157.904 343.032 158.864 342.264C159.824 341.496 160.581 340.526 161.136 339.352C161.69 338.158 161.968 336.75 161.968 335.128C161.968 333.507 161.69 332.11 161.136 330.936C160.581 329.742 159.824 328.76 158.864 327.992C157.904 327.224 156.773 326.659 155.472 326.296C154.17 325.912 152.773 325.72 151.28 325.72H146.928V344.536Z" fill="#3E3EA1"/>
<path d="M180.766 340.248C180.766 340.974 180.766 341.624 180.766 342.2C180.788 342.776 180.809 343.31 180.83 343.8C180.852 344.291 180.873 344.75 180.894 345.176C180.937 345.603 180.99 346.03 181.054 346.456H179.262C179.134 345.731 179.07 344.931 179.07 344.056H179.006C178.452 345.016 177.758 345.72 176.926 346.168C176.116 346.616 175.081 346.84 173.822 346.84C173.182 346.84 172.553 346.755 171.934 346.584C171.316 346.435 170.761 346.19 170.27 345.848C169.78 345.486 169.374 345.027 169.054 344.472C168.756 343.918 168.606 343.246 168.606 342.456C168.606 341.326 168.894 340.43 169.47 339.768C170.046 339.107 170.75 338.616 171.582 338.296C172.436 337.955 173.332 337.742 174.27 337.656C175.23 337.55 176.073 337.496 176.798 337.496H179.038V336.6C179.038 335.32 178.644 334.403 177.854 333.848C177.065 333.294 176.073 333.016 174.878 333.016C173.172 333.016 171.668 333.571 170.366 334.68L169.246 333.368C169.95 332.686 170.825 332.174 171.87 331.832C172.916 331.47 173.918 331.288 174.878 331.288C176.67 331.288 178.1 331.715 179.166 332.568C180.233 333.4 180.766 334.755 180.766 336.632V340.248ZM176.926 339.032C176.116 339.032 175.326 339.086 174.558 339.192C173.812 339.299 173.129 339.48 172.51 339.736C171.913 339.992 171.433 340.334 171.07 340.76C170.708 341.187 170.526 341.72 170.526 342.36C170.526 342.808 170.622 343.214 170.814 343.576C171.028 343.918 171.294 344.206 171.614 344.44C171.934 344.654 172.286 344.824 172.67 344.952C173.076 345.059 173.481 345.112 173.886 345.112C174.91 345.112 175.753 344.963 176.414 344.664C177.076 344.366 177.598 343.982 177.982 343.512C178.388 343.022 178.665 342.478 178.814 341.88C178.964 341.262 179.038 340.643 179.038 340.024V339.032H176.926Z" fill="#3E3EA1"/>
<path d="M194.104 333.4H189.88V343.032C189.88 343.694 190.061 344.206 190.424 344.568C190.787 344.931 191.288 345.112 191.928 345.112C192.291 345.112 192.653 345.07 193.016 344.984C193.4 344.878 193.763 344.75 194.104 344.6L194.264 346.328C193.901 346.456 193.485 346.574 193.016 346.68C192.547 346.787 192.131 346.84 191.768 346.84C191.085 346.84 190.499 346.734 190.008 346.52C189.517 346.328 189.123 346.062 188.824 345.72C188.525 345.379 188.301 344.984 188.152 344.536C188.024 344.067 187.96 343.566 187.96 343.032V333.4H184.76V331.672H187.96V327.416H189.88V331.672H194.104V333.4Z" fill="#3E3EA1"/>
<path d="M210.016 340.248C210.016 340.974 210.016 341.624 210.016 342.2C210.038 342.776 210.059 343.31 210.08 343.8C210.102 344.291 210.123 344.75 210.144 345.176C210.187 345.603 210.24 346.03 210.304 346.456H208.512C208.384 345.731 208.32 344.931 208.32 344.056H208.256C207.702 345.016 207.008 345.72 206.176 346.168C205.366 346.616 204.331 346.84 203.072 346.84C202.432 346.84 201.803 346.755 201.184 346.584C200.566 346.435 200.011 346.19 199.52 345.848C199.03 345.486 198.624 345.027 198.304 344.472C198.006 343.918 197.856 343.246 197.856 342.456C197.856 341.326 198.144 340.43 198.72 339.768C199.296 339.107 200 338.616 200.832 338.296C201.686 337.955 202.582 337.742 203.52 337.656C204.48 337.55 205.323 337.496 206.048 337.496H208.288V336.6C208.288 335.32 207.894 334.403 207.104 333.848C206.315 333.294 205.323 333.016 204.128 333.016C202.422 333.016 200.918 333.571 199.616 334.68L198.496 333.368C199.2 332.686 200.075 332.174 201.12 331.832C202.166 331.47 203.168 331.288 204.128 331.288C205.92 331.288 207.35 331.715 208.416 332.568C209.483 333.4 210.016 334.755 210.016 336.632V340.248ZM206.176 339.032C205.366 339.032 204.576 339.086 203.808 339.192C203.062 339.299 202.379 339.48 201.76 339.736C201.163 339.992 200.683 340.334 200.32 340.76C199.958 341.187 199.776 341.72 199.776 342.36C199.776 342.808 199.872 343.214 200.064 343.576C200.278 343.918 200.544 344.206 200.864 344.44C201.184 344.654 201.536 344.824 201.92 344.952C202.326 345.059 202.731 345.112 203.136 345.112C204.16 345.112 205.003 344.963 205.664 344.664C206.326 344.366 206.848 343.982 207.232 343.512C207.638 343.022 207.915 342.478 208.064 341.88C208.214 341.262 208.288 340.643 208.288 340.024V339.032H206.176Z" fill="#3E3EA1"/>
<path d="M225.691 323.8H232.699C234.661 323.8 236.325 324.046 237.691 324.536C239.056 325.006 240.187 325.614 241.083 326.36C242 327.107 242.715 327.939 243.227 328.856C243.76 329.752 244.144 330.616 244.379 331.448C244.635 332.28 244.795 333.038 244.859 333.72C244.923 334.382 244.955 334.851 244.955 335.128C244.955 335.406 244.923 335.886 244.859 336.568C244.795 337.23 244.635 337.976 244.379 338.808C244.144 339.64 243.76 340.515 243.227 341.432C242.715 342.328 242 343.15 241.083 343.896C240.187 344.643 239.056 345.262 237.691 345.752C236.325 346.222 234.661 346.456 232.699 346.456H225.691V323.8ZM227.803 344.536H232.155C233.648 344.536 235.045 344.355 236.347 343.992C237.648 343.608 238.779 343.032 239.739 342.264C240.699 341.496 241.456 340.526 242.011 339.352C242.565 338.158 242.843 336.75 242.843 335.128C242.843 333.507 242.565 332.11 242.011 330.936C241.456 329.742 240.699 328.76 239.739 327.992C238.779 327.224 237.648 326.659 236.347 326.296C235.045 325.912 233.648 325.72 232.155 325.72H227.803V344.536Z" fill="#3E3EA1"/>
<path d="M250.153 335.832C250.153 335.555 250.143 335.224 250.121 334.84C250.1 334.435 250.079 334.03 250.057 333.624C250.057 333.219 250.047 332.846 250.025 332.504C250.004 332.142 249.993 331.864 249.993 331.672H251.913C251.935 332.227 251.945 332.76 251.945 333.272C251.967 333.784 251.999 334.115 252.041 334.264C252.532 333.39 253.161 332.675 253.929 332.12C254.697 331.566 255.636 331.288 256.745 331.288C256.937 331.288 257.119 331.31 257.289 331.352C257.481 331.374 257.673 331.406 257.865 331.448L257.641 333.336C257.385 333.251 257.14 333.208 256.905 333.208C256.073 333.208 255.348 333.347 254.729 333.624C254.132 333.88 253.631 334.243 253.225 334.712C252.841 335.182 252.553 335.736 252.361 336.376C252.169 336.995 252.073 337.667 252.073 338.392V346.456H250.153V335.832Z" fill="#3E3EA1"/>
<path d="M262.13 331.672H264.05V346.456H262.13V331.672ZM261.65 325.816C261.65 325.411 261.788 325.07 262.066 324.792C262.343 324.515 262.684 324.376 263.09 324.376C263.495 324.376 263.836 324.515 264.114 324.792C264.391 325.07 264.53 325.411 264.53 325.816C264.53 326.222 264.391 326.563 264.114 326.84C263.836 327.118 263.495 327.256 263.09 327.256C262.684 327.256 262.343 327.118 262.066 326.84C261.788 326.563 261.65 326.222 261.65 325.816Z" fill="#3E3EA1"/>
<path d="M268.417 331.672H270.593L275.521 344.376L280.321 331.672H282.273L276.449 346.456H274.465L268.417 331.672Z" fill="#3E3EA1"/>
<path d="M299.366 343.672C298.619 344.803 297.691 345.614 296.582 346.104C295.494 346.595 294.288 346.84 292.966 346.84C291.835 346.84 290.811 346.648 289.894 346.264C288.976 345.88 288.187 345.347 287.526 344.664C286.864 343.96 286.352 343.139 285.99 342.2C285.648 341.24 285.478 340.184 285.478 339.032C285.478 337.923 285.659 336.899 286.022 335.96C286.384 335.022 286.896 334.211 287.558 333.528C288.219 332.824 288.998 332.28 289.894 331.896C290.79 331.491 291.782 331.288 292.87 331.288C294 331.288 294.992 331.491 295.846 331.896C296.72 332.28 297.446 332.803 298.022 333.464C298.619 334.104 299.067 334.84 299.366 335.672C299.664 336.504 299.814 337.347 299.814 338.2V339.544H287.398C287.398 339.95 287.472 340.472 287.622 341.112C287.792 341.731 288.091 342.339 288.518 342.936C288.944 343.534 289.51 344.046 290.214 344.472C290.939 344.899 291.867 345.112 292.998 345.112C293.979 345.112 294.928 344.878 295.846 344.408C296.763 343.939 297.467 343.299 297.958 342.488L299.366 343.672ZM297.894 337.816C297.894 337.155 297.755 336.536 297.478 335.96C297.222 335.384 296.859 334.883 296.39 334.456C295.942 334.008 295.398 333.656 294.758 333.4C294.139 333.144 293.478 333.016 292.774 333.016C291.728 333.016 290.854 333.23 290.15 333.656C289.467 334.083 288.923 334.574 288.518 335.128C288.112 335.683 287.824 336.227 287.654 336.76C287.483 337.272 287.398 337.624 287.398 337.816H297.894Z" fill="#3E3EA1"/>
<path d="M305.123 342.68C305.528 343.47 306.126 344.078 306.915 344.504C307.704 344.91 308.536 345.112 309.411 345.112C309.816 345.112 310.222 345.048 310.627 344.92C311.032 344.792 311.395 344.611 311.715 344.376C312.035 344.142 312.291 343.864 312.483 343.544C312.696 343.203 312.803 342.819 312.803 342.392C312.803 341.71 312.579 341.198 312.131 340.856C311.704 340.515 311.171 340.248 310.531 340.056C309.891 339.864 309.187 339.704 308.419 339.576C307.651 339.427 306.947 339.214 306.307 338.936C305.667 338.638 305.123 338.232 304.675 337.72C304.248 337.208 304.035 336.483 304.035 335.544C304.035 334.819 304.184 334.19 304.483 333.656C304.782 333.123 305.166 332.686 305.635 332.344C306.126 331.982 306.67 331.715 307.267 331.544C307.864 331.374 308.472 331.288 309.091 331.288C310.307 331.288 311.352 331.512 312.227 331.96C313.123 332.408 313.816 333.112 314.307 334.072L312.579 335.096C312.216 334.414 311.758 333.902 311.203 333.56C310.67 333.198 309.966 333.016 309.091 333.016C308.75 333.016 308.387 333.07 308.003 333.176C307.64 333.283 307.31 333.432 307.011 333.624C306.712 333.816 306.456 334.062 306.243 334.36C306.051 334.659 305.955 335 305.955 335.384C305.955 336.046 306.168 336.536 306.595 336.856C307.043 337.176 307.587 337.432 308.227 337.624C308.867 337.795 309.571 337.944 310.339 338.072C311.107 338.2 311.811 338.414 312.451 338.712C313.091 338.99 313.624 339.406 314.051 339.96C314.499 340.494 314.723 341.262 314.723 342.264C314.723 343.032 314.574 343.704 314.275 344.28C313.998 344.835 313.603 345.304 313.091 345.688C312.6 346.072 312.035 346.36 311.395 346.552C310.755 346.744 310.083 346.84 309.379 346.84C308.099 346.84 306.926 346.595 305.859 346.104C304.814 345.614 304.003 344.856 303.427 343.832L305.123 342.68Z" fill="#3E3EA1"/>
<path d="M330.18 342.264C330.735 343.224 331.45 343.939 332.324 344.408C333.22 344.878 334.234 345.112 335.364 345.112C336.068 345.112 336.73 345.006 337.348 344.792C337.967 344.579 338.5 344.28 338.948 343.896C339.418 343.512 339.78 343.054 340.036 342.52C340.314 341.966 340.452 341.347 340.452 340.664C340.452 339.875 340.282 339.224 339.94 338.712C339.62 338.2 339.183 337.784 338.628 337.464C338.074 337.123 337.444 336.835 336.74 336.6C336.058 336.366 335.343 336.131 334.596 335.896C333.871 335.662 333.156 335.395 332.452 335.096C331.77 334.798 331.151 334.414 330.596 333.944C330.042 333.454 329.594 332.846 329.252 332.12C328.932 331.395 328.772 330.499 328.772 329.432C328.772 328.43 328.964 327.544 329.348 326.776C329.754 325.987 330.287 325.336 330.948 324.824C331.631 324.291 332.41 323.896 333.284 323.64C334.159 323.363 335.076 323.224 336.036 323.224C337.274 323.224 338.415 323.448 339.46 323.896C340.527 324.323 341.444 325.048 342.212 326.072L340.388 327.384C339.855 326.638 339.226 326.083 338.5 325.72C337.796 325.336 336.954 325.144 335.972 325.144C335.29 325.144 334.639 325.24 334.02 325.432C333.402 325.603 332.858 325.87 332.388 326.232C331.94 326.574 331.578 327.011 331.3 327.544C331.023 328.078 330.884 328.707 330.884 329.432C330.884 330.563 331.172 331.438 331.748 332.056C332.324 332.654 333.039 333.134 333.892 333.496C334.767 333.838 335.706 334.147 336.708 334.424C337.732 334.68 338.671 335.032 339.524 335.48C340.399 335.928 341.124 336.558 341.7 337.368C342.276 338.158 342.564 339.256 342.564 340.664C342.564 341.688 342.372 342.595 341.988 343.384C341.604 344.174 341.082 344.846 340.42 345.4C339.78 345.934 339.034 346.339 338.18 346.616C337.327 346.894 336.442 347.032 335.524 347.032C334.031 347.032 332.655 346.776 331.396 346.264C330.138 345.731 329.06 344.846 328.164 343.608L330.18 342.264Z" fill="#3E3EA1"/>
<path d="M360.322 342.296C360.322 342.574 360.332 342.915 360.354 343.32C360.375 343.704 360.386 344.099 360.386 344.504C360.407 344.91 360.428 345.294 360.45 345.656C360.471 345.998 360.482 346.264 360.482 346.456H358.562C358.54 345.902 358.519 345.368 358.498 344.856C358.498 344.344 358.476 344.014 358.434 343.864H358.338C357.954 344.675 357.314 345.379 356.418 345.976C355.522 346.552 354.476 346.84 353.282 346.84C352.13 346.84 351.18 346.659 350.434 346.296C349.708 345.934 349.132 345.464 348.706 344.888C348.3 344.291 348.023 343.608 347.874 342.84C347.724 342.072 347.65 341.283 347.65 340.472V331.672H349.57V340.376C349.57 340.974 349.623 341.56 349.73 342.136C349.836 342.691 350.018 343.192 350.274 343.64C350.551 344.088 350.924 344.451 351.394 344.728C351.884 344.984 352.514 345.112 353.282 345.112C353.986 345.112 354.647 344.995 355.266 344.76C355.906 344.504 356.45 344.131 356.898 343.64C357.367 343.128 357.73 342.499 357.986 341.752C358.263 340.984 358.402 340.088 358.402 339.064V331.672H360.322V342.296Z" fill="#3E3EA1"/>
<path d="M378.975 344.28C378.25 345.155 377.428 345.806 376.511 346.232C375.594 346.638 374.602 346.84 373.535 346.84C372.404 346.84 371.359 346.648 370.399 346.264C369.439 345.88 368.618 345.347 367.935 344.664C367.252 343.96 366.719 343.139 366.335 342.2C365.951 341.24 365.759 340.195 365.759 339.064C365.759 337.934 365.951 336.899 366.335 335.96C366.719 335 367.252 334.179 367.935 333.496C368.618 332.792 369.439 332.248 370.399 331.864C371.359 331.48 372.404 331.288 373.535 331.288C374.623 331.288 375.626 331.512 376.543 331.96C377.482 332.408 378.314 333.038 379.039 333.848L377.503 335C376.948 334.382 376.34 333.902 375.679 333.56C375.018 333.198 374.303 333.016 373.535 333.016C372.639 333.016 371.828 333.176 371.103 333.496C370.378 333.816 369.759 334.254 369.247 334.808C368.735 335.342 368.34 335.982 368.063 336.728C367.807 337.454 367.679 338.232 367.679 339.064C367.679 339.896 367.807 340.686 368.063 341.432C368.34 342.158 368.735 342.798 369.247 343.352C369.759 343.886 370.378 344.312 371.103 344.632C371.828 344.952 372.639 345.112 373.535 345.112C374.346 345.112 375.082 344.931 375.743 344.568C376.426 344.184 377.012 343.683 377.503 343.064L378.975 344.28Z" fill="#3E3EA1"/>
<path d="M395.381 344.28C394.656 345.155 393.835 345.806 392.917 346.232C392 346.638 391.008 346.84 389.941 346.84C388.81 346.84 387.765 346.648 386.805 346.264C385.845 345.88 385.024 345.347 384.341 344.664C383.658 343.96 383.125 343.139 382.741 342.2C382.357 341.24 382.165 340.195 382.165 339.064C382.165 337.934 382.357 336.899 382.741 335.96C383.125 335 383.658 334.179 384.341 333.496C385.024 332.792 385.845 332.248 386.805 331.864C387.765 331.48 388.81 331.288 389.941 331.288C391.029 331.288 392.032 331.512 392.949 331.96C393.888 332.408 394.72 333.038 395.445 333.848L393.909 335C393.355 334.382 392.747 333.902 392.085 333.56C391.424 333.198 390.709 333.016 389.941 333.016C389.045 333.016 388.234 333.176 387.509 333.496C386.784 333.816 386.165 334.254 385.653 334.808C385.141 335.342 384.747 335.982 384.469 336.728C384.213 337.454 384.085 338.232 384.085 339.064C384.085 339.896 384.213 340.686 384.469 341.432C384.747 342.158 385.141 342.798 385.653 343.352C386.165 343.886 386.784 344.312 387.509 344.632C388.234 344.952 389.045 345.112 389.941 345.112C390.752 345.112 391.488 344.931 392.149 344.568C392.832 344.184 393.419 343.683 393.909 343.064L395.381 344.28Z" fill="#3E3EA1"/>
<path d="M412.459 343.672C411.713 344.803 410.785 345.614 409.675 346.104C408.587 346.595 407.382 346.84 406.059 346.84C404.929 346.84 403.905 346.648 402.987 346.264C402.07 345.88 401.281 345.347 400.619 344.664C399.958 343.96 399.446 343.139 399.083 342.2C398.742 341.24 398.571 340.184 398.571 339.032C398.571 337.923 398.753 336.899 399.115 335.96C399.478 335.022 399.99 334.211 400.651 333.528C401.313 332.824 402.091 332.28 402.987 331.896C403.883 331.491 404.875 331.288 405.963 331.288C407.094 331.288 408.086 331.491 408.939 331.896C409.814 332.28 410.539 332.803 411.115 333.464C411.713 334.104 412.161 334.84 412.459 335.672C412.758 336.504 412.907 337.347 412.907 338.2V339.544H400.491C400.491 339.95 400.566 340.472 400.715 341.112C400.886 341.731 401.185 342.339 401.611 342.936C402.038 343.534 402.603 344.046 403.307 344.472C404.033 344.899 404.961 345.112 406.091 345.112C407.073 345.112 408.022 344.878 408.939 344.408C409.857 343.939 410.561 343.299 411.051 342.488L412.459 343.672ZM410.987 337.816C410.987 337.155 410.849 336.536 410.571 335.96C410.315 335.384 409.953 334.883 409.483 334.456C409.035 334.008 408.491 333.656 407.851 333.4C407.233 333.144 406.571 333.016 405.867 333.016C404.822 333.016 403.947 333.23 403.243 333.656C402.561 334.083 402.017 334.574 401.611 335.128C401.206 335.683 400.918 336.227 400.747 336.76C400.577 337.272 400.491 337.624 400.491 337.816H410.987Z" fill="#3E3EA1"/>
<path d="M418.217 342.68C418.622 343.47 419.219 344.078 420.009 344.504C420.798 344.91 421.63 345.112 422.505 345.112C422.91 345.112 423.315 345.048 423.721 344.92C424.126 344.792 424.489 344.611 424.809 344.376C425.129 344.142 425.385 343.864 425.577 343.544C425.79 343.203 425.897 342.819 425.897 342.392C425.897 341.71 425.673 341.198 425.225 340.856C424.798 340.515 424.265 340.248 423.625 340.056C422.985 339.864 422.281 339.704 421.513 339.576C420.745 339.427 420.041 339.214 419.401 338.936C418.761 338.638 418.217 338.232 417.769 337.72C417.342 337.208 417.129 336.483 417.129 335.544C417.129 334.819 417.278 334.19 417.577 333.656C417.875 333.123 418.259 332.686 418.729 332.344C419.219 331.982 419.763 331.715 420.361 331.544C420.958 331.374 421.566 331.288 422.185 331.288C423.401 331.288 424.446 331.512 425.321 331.96C426.217 332.408 426.91 333.112 427.401 334.072L425.673 335.096C425.31 334.414 424.851 333.902 424.297 333.56C423.763 333.198 423.059 333.016 422.185 333.016C421.843 333.016 421.481 333.07 421.097 333.176C420.734 333.283 420.403 333.432 420.105 333.624C419.806 333.816 419.55 334.062 419.337 334.36C419.145 334.659 419.049 335 419.049 335.384C419.049 336.046 419.262 336.536 419.689 336.856C420.137 337.176 420.681 337.432 421.321 337.624C421.961 337.795 422.665 337.944 423.433 338.072C424.201 338.2 424.905 338.414 425.545 338.712C426.185 338.99 426.718 339.406 427.145 339.96C427.593 340.494 427.817 341.262 427.817 342.264C427.817 343.032 427.667 343.704 427.369 344.28C427.091 344.835 426.697 345.304 426.185 345.688C425.694 346.072 425.129 346.36 424.489 346.552C423.849 346.744 423.177 346.84 422.473 346.84C421.193 346.84 420.019 346.595 418.953 346.104C417.907 345.614 417.097 344.856 416.521 343.832L418.217 342.68Z" fill="#3E3EA1"/>
<path d="M432.842 342.68C433.247 343.47 433.844 344.078 434.634 344.504C435.423 344.91 436.255 345.112 437.13 345.112C437.535 345.112 437.94 345.048 438.346 344.92C438.751 344.792 439.114 344.611 439.434 344.376C439.754 344.142 440.01 343.864 440.202 343.544C440.415 343.203 440.522 342.819 440.522 342.392C440.522 341.71 440.298 341.198 439.85 340.856C439.423 340.515 438.89 340.248 438.25 340.056C437.61 339.864 436.906 339.704 436.138 339.576C435.37 339.427 434.666 339.214 434.026 338.936C433.386 338.638 432.842 338.232 432.394 337.72C431.967 337.208 431.754 336.483 431.754 335.544C431.754 334.819 431.903 334.19 432.202 333.656C432.5 333.123 432.884 332.686 433.354 332.344C433.844 331.982 434.388 331.715 434.986 331.544C435.583 331.374 436.191 331.288 436.81 331.288C438.026 331.288 439.071 331.512 439.946 331.96C440.842 332.408 441.535 333.112 442.026 334.072L440.298 335.096C439.935 334.414 439.476 333.902 438.922 333.56C438.388 333.198 437.684 333.016 436.81 333.016C436.468 333.016 436.106 333.07 435.722 333.176C435.359 333.283 435.028 333.432 434.73 333.624C434.431 333.816 434.175 334.062 433.962 334.36C433.77 334.659 433.674 335 433.674 335.384C433.674 336.046 433.887 336.536 434.314 336.856C434.762 337.176 435.306 337.432 435.946 337.624C436.586 337.795 437.29 337.944 438.058 338.072C438.826 338.2 439.53 338.414 440.17 338.712C440.81 338.99 441.343 339.406 441.77 339.96C442.218 340.494 442.442 341.262 442.442 342.264C442.442 343.032 442.292 343.704 441.994 344.28C441.716 344.835 441.322 345.304 440.81 345.688C440.319 346.072 439.754 346.36 439.114 346.552C438.474 346.744 437.802 346.84 437.098 346.84C435.818 346.84 434.644 346.595 433.578 346.104C432.532 345.614 431.722 344.856 431.146 343.832L432.842 342.68Z" fill="#3E3EA1"/>
</svg>
