<svg width="800" height="148" viewBox="0 0 800 148" fill="none" xmlns="http://www.w3.org/2000/svg">
<path d="M73.7757 91.7183C68.7649 93.0586 63.466 93.1728 58.3378 91.9987C50.769 90.2658 44.0864 85.8446 39.5315 79.5564C34.9766 73.2681 32.8589 65.5403 33.5719 57.8085C34.2849 50.0767 37.7801 42.8665 43.4082 37.5173C49.0363 32.1681 56.4147 29.0435 64.1727 28.7241C71.9308 28.4046 79.5411 30.9119 85.5899 35.7803C91.6388 40.6487 95.7149 47.5471 97.0612 55.1941C98.2271 61.8169 97.2769 68.6113 94.3884 74.6268L81.775 63.7359C82.0373 62.5608 82.1757 61.3389 82.1757 60.0846C82.1757 50.8702 74.706 43.4004 65.4915 43.4004C56.2771 43.4004 48.8073 50.8702 48.8073 60.0846C48.8073 69.2991 56.2771 76.7688 65.4915 76.7688C68.5217 76.7688 71.3632 75.961 73.8125 74.549L105.905 102.259C102.458 105.783 98.5601 108.857 94.3003 111.395C87.0613 115.707 78.9577 118.364 70.5707 119.175C62.1836 119.986 53.7211 118.931 45.7901 116.085C37.859 113.239 30.6561 108.674 24.6979 102.715L16.0168 111.397C23.256 118.636 32.0076 124.183 41.6438 127.641C51.2799 131.098 61.5619 132.38 71.7521 131.395C81.9424 130.41 91.7882 127.182 100.584 121.942C108.091 117.47 114.674 111.627 119.997 104.73L123.95 100.152L104.214 83.1105C109.464 74.0187 111.352 63.3586 109.528 52.9993C107.65 42.3325 101.964 32.7099 93.5267 25.919C85.0892 19.1281 74.4736 15.6306 63.6519 16.0762C52.8302 16.5218 42.5381 20.8803 34.6874 28.3419C26.8368 35.8035 21.9614 45.861 20.9668 56.6461C19.9723 67.4312 22.9262 78.2108 29.2798 86.9822C35.6335 95.7537 44.955 101.921 55.5127 104.338C65.3405 106.588 75.6175 105.446 84.6842 101.137L73.7757 91.7183Z" fill="white"/>
<path d="M199.705 57.4416C198.701 55.8148 197.361 54.6425 195.686 53.9247C194.011 53.1592 192.265 52.7764 190.447 52.7764C189.107 52.7764 187.791 52.9438 186.499 53.2788C185.207 53.6137 184.035 54.1161 182.982 54.786C181.977 55.4559 181.164 56.3411 180.542 57.4416C179.92 58.5422 179.609 59.8341 179.609 61.3174C179.609 62.4658 179.776 63.4946 180.111 64.4037C180.494 65.265 181.092 66.0545 181.906 66.7722C182.719 67.49 183.82 68.1598 185.207 68.7819C186.595 69.4039 188.293 70.026 190.303 70.648C192.265 71.27 194.155 71.9399 195.973 72.6577C197.839 73.3754 199.466 74.2845 200.854 75.3851C202.289 76.4856 203.414 77.8732 204.227 79.5479C205.088 81.1748 205.519 83.2323 205.519 85.7205C205.519 88.2565 205.017 90.4575 204.012 92.3236C203.007 94.1897 201.667 95.7448 199.993 96.9889C198.366 98.1851 196.476 99.0703 194.322 99.6445C192.169 100.267 189.944 100.578 187.647 100.578C186.164 100.578 184.681 100.434 183.198 100.147C181.714 99.9077 180.279 99.5249 178.891 98.9986C177.551 98.4244 176.283 97.7067 175.087 96.8454C173.891 95.9362 172.862 94.8357 172.001 93.5438L177.169 89.3091C178.269 91.1753 179.8 92.5868 181.762 93.5438C183.724 94.5008 185.805 94.9793 188.006 94.9793C189.298 94.9793 190.59 94.7879 191.882 94.4051C193.222 94.0223 194.418 93.472 195.471 92.7543C196.523 91.9887 197.385 91.0556 198.055 89.9551C198.725 88.8546 199.059 87.5866 199.059 86.1511C199.059 84.5721 198.796 83.3041 198.27 82.3471C197.744 81.3423 196.93 80.481 195.83 79.7632C194.729 79.0455 193.342 78.3995 191.667 77.8254C189.992 77.2512 188.03 76.5813 185.781 75.8157C183.963 75.2415 182.288 74.5955 180.757 73.8778C179.226 73.1122 177.886 72.2031 176.738 71.1504C175.637 70.0499 174.752 68.758 174.082 67.2746C173.46 65.7435 173.149 63.9252 173.149 61.8198C173.149 59.3795 173.628 57.2502 174.585 55.432C175.542 53.6137 176.834 52.1065 178.46 50.9102C180.087 49.6662 181.93 48.7331 183.987 48.1111C186.045 47.489 188.198 47.178 190.447 47.178C193.318 47.178 195.925 47.6326 198.27 48.5417C200.662 49.403 202.792 50.9342 204.658 53.1352L199.705 57.4416Z" fill="white"/>
<path d="M217.266 48.4699H226.238L243.463 88.3043H243.607L260.976 48.4699H269.732V99.2857H263.703V56.6521H263.56L245.329 99.2857H241.669L223.438 56.6521H223.295V99.2857H217.266V48.4699Z" fill="white"/>
<path d="M300.683 48.4699H306.353L327.957 99.2857H320.923L315.756 86.7971H290.348L285.108 99.2857H278.29L300.683 48.4699ZM303.41 56.2215H303.267L292.716 81.1987H313.459L303.41 56.2215Z" fill="white"/>
<path d="M336.505 48.4699H349.496C351.937 48.4699 354.353 48.6135 356.746 48.9006C359.186 49.1877 361.363 49.8097 363.277 50.7667C365.191 51.7237 366.746 53.1352 367.942 55.0013C369.138 56.8196 369.737 59.3078 369.737 62.4658C369.737 66.198 368.612 69.2125 366.363 71.5093C364.114 73.806 361.004 75.2654 357.033 75.8875L371.459 99.2857H364.067L350.286 76.4617H342.534V99.2857H336.505V48.4699ZM342.534 70.8633H347.917C349.592 70.8633 351.315 70.8155 353.085 70.7198C354.903 70.6241 356.554 70.313 358.038 69.7867C359.569 69.2604 360.813 68.4469 361.77 67.3464C362.775 66.198 363.277 64.5712 363.277 62.4658C363.277 60.6475 362.918 59.1881 362.2 58.0876C361.483 56.9871 360.526 56.1497 359.329 55.5755C358.181 54.9535 356.865 54.5468 355.382 54.3554C353.946 54.164 352.487 54.0683 351.004 54.0683H342.534V70.8633Z" fill="white"/>
<path d="M415.008 54.0683H398.213V99.2857H392.184V54.0683H375.389V48.4699H415.008V54.0683Z" fill="white"/>
<path d="M459.523 58.9489C457.992 56.8914 456.102 55.3602 453.853 54.3554C451.604 53.3027 449.26 52.7764 446.819 52.7764C443.996 52.7764 441.388 53.3505 438.996 54.4989C436.651 55.6473 434.618 57.2024 432.895 59.1642C431.173 61.0782 429.833 63.3271 428.876 65.9109C427.919 68.4469 427.44 71.1026 427.44 73.8778C427.44 76.8444 427.919 79.6197 428.876 82.2035C429.833 84.7395 431.149 86.9645 432.823 88.8785C434.546 90.7446 436.58 92.2279 438.924 93.3285C441.317 94.429 443.948 94.9793 446.819 94.9793C449.929 94.9793 452.705 94.3811 455.145 93.1849C457.585 91.9408 459.715 90.1704 461.533 87.8737L466.055 91.6777C463.758 94.74 460.983 96.9889 457.729 98.4244C454.523 99.8599 450.886 100.578 446.819 100.578C443.183 100.578 439.785 99.9077 436.627 98.5679C433.469 97.2282 430.718 95.386 428.373 93.0414C426.077 90.6489 424.258 87.8258 422.919 84.5721C421.627 81.3183 420.981 77.7536 420.981 73.8778C420.981 70.1456 421.603 66.6526 422.847 63.3989C424.139 60.1451 425.933 57.322 428.23 54.9296C430.527 52.5371 433.254 50.6471 436.412 49.2594C439.57 47.8718 443.039 47.178 446.819 47.178C450.264 47.178 453.566 47.8001 456.724 49.0441C459.93 50.2882 462.609 52.3218 464.763 55.1449L459.523 58.9489Z" fill="white" fill-opacity="0.5"/>
<path d="M499.867 100.578C495.992 100.578 492.427 99.9077 489.173 98.5679C485.967 97.2282 483.168 95.386 480.775 93.0414C478.431 90.6489 476.589 87.8258 475.249 84.5721C473.957 81.2705 473.311 77.7057 473.311 73.8778C473.311 70.0499 473.957 66.509 475.249 63.2553C476.589 59.9537 478.431 57.1306 480.775 54.786C483.168 52.3936 485.967 50.5274 489.173 49.1877C492.427 47.8479 495.992 47.178 499.867 47.178C503.743 47.178 507.284 47.8479 510.49 49.1877C513.744 50.5274 516.543 52.3936 518.887 54.786C521.28 57.1306 523.122 59.9537 524.414 63.2553C525.754 66.509 526.423 70.0499 526.423 73.8778C526.423 77.7057 525.754 81.2705 524.414 84.5721C523.122 87.8258 521.28 90.6489 518.887 93.0414C516.543 95.386 513.744 97.2282 510.49 98.5679C507.284 99.9077 503.743 100.578 499.867 100.578ZM499.867 94.9793C502.834 94.9793 505.537 94.429 507.978 93.3285C510.466 92.2279 512.595 90.7207 514.366 88.8067C516.136 86.8928 517.5 84.6678 518.457 82.1318C519.461 79.5479 519.964 76.7966 519.964 73.8778C519.964 70.959 519.461 68.2316 518.457 65.6956C517.5 63.1118 516.136 60.8629 514.366 58.9489C512.595 57.0349 510.466 55.5277 507.978 54.4272C505.537 53.3266 502.834 52.7764 499.867 52.7764C496.901 52.7764 494.173 53.3266 491.685 54.4272C489.245 55.5277 487.139 57.0349 485.369 58.9489C483.599 60.8629 482.211 63.1118 481.206 65.6956C480.249 68.2316 479.771 70.959 479.771 73.8778C479.771 76.7966 480.249 79.5479 481.206 82.1318C482.211 84.6678 483.599 86.8928 485.369 88.8067C487.139 90.7207 489.245 92.2279 491.685 93.3285C494.173 94.429 496.901 94.9793 499.867 94.9793Z" fill="white" fill-opacity="0.5"/>
<path d="M537.906 48.4699H545.514L574.941 90.6728H575.085V48.4699H581.114V99.2857H573.506L544.079 57.0828H543.935V99.2857H537.906V48.4699Z" fill="white" fill-opacity="0.5"/>
<path d="M595.563 48.4699H603.171L632.599 90.6728H632.742V48.4699H638.771V99.2857H631.163L601.736 57.0828H601.592V99.2857H595.563V48.4699Z" fill="white" fill-opacity="0.5"/>
<path d="M653.221 48.4699H685.16V54.0683H659.25V70.002H683.437V75.6004H659.25V93.6873H686.452V99.2857H653.221V48.4699Z" fill="white" fill-opacity="0.5"/>
<path d="M733.16 58.9489C731.629 56.8914 729.739 55.3602 727.49 54.3554C725.241 53.3027 722.897 52.7764 720.456 52.7764C717.633 52.7764 715.025 53.3505 712.633 54.4989C710.288 55.6473 708.255 57.2024 706.532 59.1642C704.81 61.0782 703.47 63.3271 702.513 65.9109C701.556 68.4469 701.077 71.1026 701.077 73.8778C701.077 76.8444 701.556 79.6197 702.513 82.2035C703.47 84.7395 704.786 86.9645 706.46 88.8785C708.183 90.7446 710.217 92.2279 712.561 93.3285C714.954 94.429 717.585 94.9793 720.456 94.9793C723.566 94.9793 726.342 94.3811 728.782 93.1849C731.222 91.9408 733.352 90.1704 735.17 87.8737L739.692 91.6777C737.395 94.74 734.62 96.9889 731.366 98.4244C728.16 99.8599 724.523 100.578 720.456 100.578C716.82 100.578 713.422 99.9077 710.264 98.5679C707.106 97.2282 704.355 95.386 702.01 93.0414C699.714 90.6489 697.895 87.8258 696.556 84.5721C695.264 81.3183 694.618 77.7536 694.618 73.8778C694.618 70.1456 695.24 66.6526 696.484 63.3989C697.776 60.1451 699.57 57.322 701.867 54.9296C704.164 52.5371 706.891 50.6471 710.049 49.2594C713.207 47.8718 716.676 47.178 720.456 47.178C723.901 47.178 727.203 47.8001 730.361 49.0441C733.567 50.2882 736.247 52.3218 738.4 55.1449L733.16 58.9489Z" fill="white" fill-opacity="0.5"/>
<path d="M783.983 54.0683H767.188V99.2857H761.159V54.0683H744.364V48.4699H783.983V54.0683Z" fill="white" fill-opacity="0.5"/>
</svg>
