<svg width="586" height="325" viewBox="0 0 586 325" fill="none" xmlns="http://www.w3.org/2000/svg">
<path d="M298.682 137.967C291.174 139.975 283.234 140.146 275.549 138.387C264.208 135.791 254.195 129.166 247.37 119.743C240.544 110.321 237.371 98.7413 238.44 87.1558C239.508 75.5703 244.745 64.7663 253.178 56.751C261.612 48.7356 272.668 44.0537 284.293 43.575C295.917 43.0963 307.321 46.8534 316.385 54.1482C325.448 61.4431 331.556 71.7799 333.573 83.2384C335.32 93.1621 333.897 103.343 329.568 112.357L310.668 96.0375C311.061 94.2767 311.269 92.4458 311.269 90.5664C311.269 76.7593 300.076 65.5664 286.269 65.5664C272.462 65.5664 261.269 76.7593 261.269 90.5664C261.269 104.374 272.462 115.566 286.269 115.566C290.809 115.566 295.067 114.356 298.737 112.24L346.825 153.761C341.661 159.042 335.819 163.648 329.436 167.451C318.589 173.913 306.447 177.894 293.879 179.109C281.312 180.324 268.632 178.743 256.748 174.479C244.864 170.215 234.071 163.373 225.143 154.445L212.135 167.453C222.982 178.301 236.096 186.613 250.535 191.794C264.974 196.975 280.38 198.896 295.65 197.42C310.919 195.944 325.672 191.106 338.851 183.255C350.101 176.554 359.965 167.798 367.941 157.464L373.865 150.604L344.291 125.069C352.158 111.446 354.987 95.4721 352.254 79.9496C349.44 63.9662 340.92 49.5474 328.277 39.3718C315.634 29.1962 299.728 23.9555 283.512 24.6232C267.297 25.2909 251.875 31.8217 240.111 43.0023C228.348 54.183 221.042 69.2534 219.552 85.4141C218.062 101.575 222.488 117.727 232.008 130.87C241.529 144.014 255.496 153.255 271.316 156.877C286.042 160.248 301.442 158.537 315.027 152.08L298.682 137.967Z" fill="white"/>
<path d="M48.6272 262.915C47.7448 261.487 46.5683 260.457 45.0977 259.827C43.627 259.155 42.0934 258.818 40.4967 258.818C39.3202 258.818 38.1647 258.966 37.0302 259.26C35.8958 259.554 34.8663 259.995 33.9419 260.583C33.0595 261.171 32.3452 261.949 31.799 262.915C31.2528 263.882 30.9797 265.016 30.9797 266.319C30.9797 267.327 31.1267 268.23 31.4209 269.029C31.757 269.785 32.2822 270.478 32.9965 271.109C33.7108 271.739 34.6772 272.327 35.8958 272.873C37.1143 273.42 38.6059 273.966 40.3707 274.512C42.0934 275.058 43.7531 275.647 45.3498 276.277C46.9885 276.907 48.4171 277.705 49.6356 278.672C50.8961 279.638 51.8835 280.857 52.5978 282.327C53.3542 283.756 53.7323 285.563 53.7323 287.748C53.7323 289.975 53.2911 291.908 52.4088 293.546C51.5264 295.185 50.3499 296.551 48.8793 297.643C47.4507 298.693 45.791 299.471 43.9002 299.975C42.0093 300.521 40.0555 300.794 38.0387 300.794C36.7361 300.794 35.4336 300.668 34.131 300.416C32.8285 300.206 31.5679 299.87 30.3494 299.408C29.1729 298.904 28.0594 298.273 27.009 297.517C25.9585 296.719 25.0551 295.752 24.2988 294.618L28.8368 290.899C29.8032 292.538 31.1477 293.777 32.8705 294.618C34.5932 295.458 36.421 295.878 38.3538 295.878C39.4883 295.878 40.6228 295.71 41.7572 295.374C42.9337 295.038 43.9842 294.555 44.9086 293.924C45.833 293.252 46.5893 292.433 47.1775 291.466C47.7658 290.5 48.0599 289.386 48.0599 288.126C48.0599 286.739 47.8288 285.626 47.3666 284.785C46.9044 283.903 46.1901 283.147 45.2237 282.517C44.2573 281.886 43.0388 281.319 41.5682 280.815C40.0975 280.311 38.3748 279.722 36.4 279.05C34.8033 278.546 33.3327 277.979 31.9881 277.348C30.6435 276.676 29.467 275.878 28.4586 274.953C27.4922 273.987 26.7149 272.852 26.1266 271.55C25.5804 270.205 25.3073 268.609 25.3073 266.76C25.3073 264.617 25.7274 262.747 26.5678 261.15C27.4081 259.554 28.5426 258.23 29.9712 257.18C31.3998 256.087 33.0175 255.268 34.8243 254.722C36.6311 254.176 38.5219 253.902 40.4967 253.902C43.0178 253.902 45.3077 254.302 47.3666 255.1C49.4675 255.856 51.3373 257.201 52.976 259.134L48.6272 262.915Z" fill="white"/>
<path d="M64.0475 255.037H71.9259L87.0523 290.017H87.1784L102.431 255.037H110.12V299.66H104.826V262.222H104.7L88.691 299.66H85.4767L69.4678 262.222H69.3418V299.66H64.0475V255.037Z" fill="white"/>
<path d="M137.299 255.037H142.278L161.249 299.66H155.072L150.535 288.693H128.223L123.622 299.66H117.635L137.299 255.037ZM139.694 261.844H139.568L130.303 283.777H148.518L139.694 261.844Z" fill="white"/>
<path d="M168.756 255.037H180.164C182.306 255.037 184.428 255.163 186.529 255.415C188.672 255.667 190.584 256.213 192.265 257.054C193.945 257.894 195.311 259.134 196.361 260.772C197.412 262.369 197.937 264.554 197.937 267.327C197.937 270.604 196.95 273.252 194.975 275.268C193 277.285 190.269 278.567 186.781 279.113L199.45 299.66H192.958L180.857 279.617H174.05V299.66H168.756V255.037ZM174.05 274.701H178.777C180.248 274.701 181.76 274.659 183.315 274.575C184.912 274.491 186.361 274.218 187.664 273.756C189.008 273.294 190.101 272.579 190.941 271.613C191.823 270.604 192.265 269.176 192.265 267.327C192.265 265.73 191.95 264.449 191.319 263.482C190.689 262.516 189.849 261.781 188.798 261.277C187.79 260.73 186.634 260.373 185.332 260.205C184.071 260.037 182.79 259.953 181.487 259.953H174.05V274.701Z" fill="white"/>
<path d="M237.691 259.953H222.943V299.66H217.649V259.953H202.9V255.037H237.691V259.953Z" fill="white"/>
<path d="M276.782 264.239C275.437 262.432 273.777 261.087 271.802 260.205C269.828 259.281 267.769 258.818 265.626 258.818C263.147 258.818 260.857 259.323 258.756 260.331C256.697 261.34 254.911 262.705 253.399 264.428C251.886 266.109 250.71 268.083 249.869 270.352C249.029 272.579 248.609 274.911 248.609 277.348C248.609 279.953 249.029 282.39 249.869 284.659C250.71 286.886 251.865 288.84 253.336 290.521C254.848 292.16 256.634 293.462 258.693 294.429C260.794 295.395 263.105 295.878 265.626 295.878C268.357 295.878 270.794 295.353 272.937 294.303C275.08 293.21 276.95 291.655 278.546 289.639L282.517 292.979C280.5 295.668 278.063 297.643 275.206 298.904C272.391 300.164 269.197 300.794 265.626 300.794C262.432 300.794 259.449 300.206 256.676 299.03C253.903 297.853 251.487 296.235 249.428 294.176C247.411 292.076 245.814 289.597 244.638 286.739C243.503 283.882 242.936 280.752 242.936 277.348C242.936 274.071 243.482 271.004 244.575 268.146C245.709 265.289 247.285 262.81 249.302 260.709C251.319 258.608 253.714 256.949 256.487 255.73C259.26 254.512 262.306 253.902 265.626 253.902C268.651 253.902 271.55 254.449 274.324 255.541C277.139 256.634 279.492 258.419 281.383 260.898L276.782 264.239Z" fill="white" fill-opacity="0.5"/>
<path d="M312.209 300.794C308.806 300.794 305.675 300.206 302.818 299.03C300.003 297.853 297.545 296.235 295.444 294.176C293.385 292.076 291.767 289.597 290.591 286.739C289.456 283.84 288.889 280.71 288.889 277.348C288.889 273.987 289.456 270.878 290.591 268.02C291.767 265.121 293.385 262.642 295.444 260.583C297.545 258.482 300.003 256.844 302.818 255.667C305.675 254.491 308.806 253.902 312.209 253.902C315.612 253.902 318.722 254.491 321.537 255.667C324.394 256.844 326.852 258.482 328.911 260.583C331.012 262.642 332.63 265.121 333.764 268.02C334.941 270.878 335.529 273.987 335.529 277.348C335.529 280.71 334.941 283.84 333.764 286.739C332.63 289.597 331.012 292.076 328.911 294.176C326.852 296.235 324.394 297.853 321.537 299.03C318.722 300.206 315.612 300.794 312.209 300.794ZM312.209 295.878C314.814 295.878 317.188 295.395 319.331 294.429C321.516 293.462 323.386 292.139 324.94 290.458C326.495 288.777 327.693 286.823 328.533 284.596C329.415 282.327 329.857 279.911 329.857 277.348C329.857 274.785 329.415 272.39 328.533 270.163C327.693 267.894 326.495 265.919 324.94 264.239C323.386 262.558 321.516 261.235 319.331 260.268C317.188 259.302 314.814 258.818 312.209 258.818C309.604 258.818 307.209 259.302 305.024 260.268C302.881 261.235 301.032 262.558 299.478 264.239C297.923 265.919 296.704 267.894 295.822 270.163C294.982 272.39 294.562 274.785 294.562 277.348C294.562 279.911 294.982 282.327 295.822 284.596C296.704 286.823 297.923 288.777 299.478 290.458C301.032 292.139 302.881 293.462 305.024 294.429C307.209 295.395 309.604 295.878 312.209 295.878Z" fill="white" fill-opacity="0.5"/>
<path d="M345.612 255.037H352.293L378.134 292.097H378.26V255.037H383.554V299.66H376.874L351.033 262.6H350.906V299.66H345.612V255.037Z" fill="white" fill-opacity="0.5"/>
<path d="M396.243 255.037H402.924L428.765 292.097H428.891V255.037H434.185V299.66H427.504L401.663 262.6H401.537V299.66H396.243V255.037Z" fill="white" fill-opacity="0.5"/>
<path d="M446.874 255.037H474.921V259.953H452.168V273.945H473.408V278.861H452.168V294.744H476.055V299.66H446.874V255.037Z" fill="white" fill-opacity="0.5"/>
<path d="M517.071 264.239C515.727 262.432 514.067 261.087 512.092 260.205C510.117 259.281 508.058 258.818 505.915 258.818C503.436 258.818 501.146 259.323 499.046 260.331C496.987 261.34 495.201 262.705 493.688 264.428C492.176 266.109 490.999 268.083 490.159 270.352C489.318 272.579 488.898 274.911 488.898 277.348C488.898 279.953 489.318 282.39 490.159 284.659C490.999 286.886 492.155 288.84 493.625 290.521C495.138 292.16 496.924 293.462 498.982 294.429C501.083 295.395 503.394 295.878 505.915 295.878C508.647 295.878 511.084 295.353 513.227 294.303C515.369 293.21 517.239 291.655 518.836 289.639L522.807 292.979C520.79 295.668 518.353 297.643 515.495 298.904C512.68 300.164 509.487 300.794 505.915 300.794C502.722 300.794 499.739 300.206 496.966 299.03C494.192 297.853 491.776 296.235 489.718 294.176C487.701 292.076 486.104 289.597 484.927 286.739C483.793 283.882 483.226 280.752 483.226 277.348C483.226 274.071 483.772 271.004 484.865 268.146C485.999 265.289 487.575 262.81 489.592 260.709C491.608 258.608 494.003 256.949 496.777 255.73C499.55 254.512 502.596 253.902 505.915 253.902C508.941 253.902 511.84 254.449 514.613 255.541C517.428 256.634 519.781 258.419 521.672 260.898L517.071 264.239Z" fill="white" fill-opacity="0.5"/>
<path d="M561.701 259.953H546.952V299.66H541.658V259.953H526.91V255.037H561.701V259.953Z" fill="white" fill-opacity="0.5"/>
</svg>
