<svg width="180" height="180" viewBox="0 0 180 180" fill="none" xmlns="http://www.w3.org/2000/svg">
<path d="M95.1141 114.06C88.3567 115.868 81.2107 116.022 74.2949 114.439C64.0877 112.102 55.0758 106.139 48.9331 97.6592C42.7904 89.179 39.9346 78.7574 40.8961 68.3305C41.8576 57.9035 46.5712 48.1799 54.1611 40.9661C61.751 33.7523 71.7014 29.5386 82.1638 29.1077C92.6261 28.6769 102.889 32.0583 111.047 38.6237C119.204 45.189 124.701 54.4921 126.516 64.8048C128.089 73.7361 126.807 82.8989 122.912 91.0113L105.902 76.324C106.256 74.7392 106.442 73.0914 106.442 71.4C106.442 58.9736 96.3687 48.9 83.9423 48.9C71.5159 48.9 61.4423 58.9736 61.4423 71.4C61.4423 83.8264 71.5159 93.9 83.9423 93.9C88.0287 93.9 91.8608 92.8106 95.1638 90.9064L138.443 128.275C133.795 133.028 128.538 137.174 122.793 140.596C113.031 146.412 102.102 149.995 90.7919 151.089C79.4813 152.182 68.0689 150.759 57.3733 146.921C46.6777 143.083 36.9639 136.926 28.9288 128.891L17.2217 140.598C26.9843 150.361 38.7865 157.842 51.7816 162.505C64.7768 167.168 78.6429 168.897 92.3852 167.568C106.128 166.239 119.406 161.886 131.267 154.82C141.391 148.789 150.269 140.909 157.447 131.608L162.779 125.434L136.162 102.452C143.242 90.1912 145.789 75.8151 143.329 61.8449C140.797 47.4598 133.129 34.4829 121.75 25.3248C110.371 16.1668 96.0553 11.4501 81.4614 12.0511C66.8675 12.652 52.9877 18.5297 42.4005 28.5923C31.8133 38.6549 25.2384 52.2183 23.8971 66.7629C22.5559 81.3075 26.5395 95.8445 35.1079 107.674C43.6763 119.503 56.2471 127.819 70.4851 131.079C83.7386 134.114 97.598 132.574 109.825 126.763L95.1141 114.06Z" fill="white"/>
</svg>
