<svg width="800" height="149" viewBox="0 0 800 149" fill="none" xmlns="http://www.w3.org/2000/svg">
<path d="M73.7754 92.1519C68.7647 93.4922 63.4658 93.6064 58.3375 92.4323C50.7687 90.6994 44.0862 86.2782 39.5312 79.99C34.9763 73.7017 32.8587 65.9739 33.5717 58.2421C34.2847 50.5103 37.7798 43.3001 43.4079 37.9509C49.036 32.6017 56.4144 29.4771 64.1725 29.1577C71.9305 28.8382 79.5408 31.3455 85.5897 36.2139C91.6385 41.0823 95.7147 47.9807 97.0609 55.6277C98.2269 62.2505 97.2766 69.0449 94.3881 75.0604L81.7747 64.1695C82.0371 62.9943 82.1755 61.7725 82.1755 60.5182C82.1755 51.3038 74.7057 43.834 65.4913 43.834C56.2768 43.834 48.8071 51.3038 48.8071 60.5182C48.8071 69.7327 56.2768 77.2024 65.4913 77.2024C68.5215 77.2024 71.363 76.3946 73.8122 74.9826L105.904 102.692C102.458 106.217 98.5599 109.291 94.3 111.829C87.0611 116.141 78.9574 118.798 70.5704 119.609C62.1834 120.42 53.7209 119.365 45.7898 116.519C37.8588 113.673 30.6559 109.107 24.6977 103.149L16.0166 111.83C23.2558 119.069 32.0073 124.617 41.6435 128.074C51.2797 131.532 61.5617 132.814 71.7519 131.829C81.9421 130.844 91.788 127.615 100.583 122.376C108.091 117.903 114.674 112.06 119.997 105.164L123.95 100.585L104.214 83.5441C109.463 74.4523 111.352 63.7921 109.528 53.4329C107.65 42.7661 101.964 33.1435 93.5265 26.3526C85.089 19.5617 74.4734 16.0642 63.6517 16.5098C52.83 16.9554 42.5378 21.3139 34.6872 28.7755C26.8366 36.2371 21.9611 46.2946 20.9666 57.0797C19.972 67.8648 22.9259 78.6444 29.2796 87.4158C35.6333 96.1873 44.9548 102.354 55.5125 104.772C65.3403 107.022 75.6173 105.88 84.684 101.571L73.7754 92.1519Z" fill="#3E3EA1"/>
<path d="M199.705 57.8752C198.7 56.2484 197.361 55.0761 195.686 54.3583C194.011 53.5927 192.265 53.21 190.446 53.21C189.107 53.21 187.791 53.3774 186.499 53.7124C185.207 54.0473 184.035 54.5497 182.982 55.2196C181.977 55.8895 181.164 56.7747 180.542 57.8752C179.92 58.9758 179.609 60.2677 179.609 61.751C179.609 62.8994 179.776 63.9281 180.111 64.8373C180.494 65.6986 181.092 66.4881 181.905 67.2058C182.719 67.9235 183.819 68.5934 185.207 69.2155C186.595 69.8375 188.293 70.4595 190.303 71.0816C192.265 71.7036 194.155 72.3735 195.973 73.0912C197.839 73.809 199.466 74.7181 200.854 75.8186C202.289 76.9192 203.413 78.3068 204.227 79.9815C205.088 81.6084 205.519 83.6659 205.519 86.154C205.519 88.69 205.016 90.8911 204.012 92.7572C203.007 94.6233 201.667 96.1784 199.992 97.4225C198.365 98.6187 196.475 99.5039 194.322 100.078C192.169 100.7 189.944 101.011 187.647 101.011C186.164 101.011 184.681 100.868 183.197 100.581C181.714 100.341 180.278 99.9585 178.891 99.4322C177.551 98.858 176.283 98.1402 175.087 97.279C173.891 96.3698 172.862 95.2693 172.001 93.9774L177.168 89.7427C178.269 91.6088 179.8 93.0204 181.762 93.9774C183.724 94.9344 185.805 95.4128 188.006 95.4128C189.298 95.4128 190.59 95.2215 191.882 94.8387C193.222 94.4559 194.418 93.9056 195.471 93.1879C196.523 92.4223 197.385 91.4892 198.054 90.3887C198.724 89.2882 199.059 88.0202 199.059 86.5847C199.059 85.0057 198.796 83.7377 198.27 82.7807C197.743 81.7759 196.93 80.9146 195.829 80.1968C194.729 79.4791 193.341 78.8331 191.667 78.2589C189.992 77.6848 188.03 77.0149 185.781 76.2493C183.963 75.6751 182.288 75.0291 180.757 74.3114C179.226 73.5458 177.886 72.6367 176.738 71.584C175.637 70.4835 174.752 69.1915 174.082 67.7082C173.46 66.1771 173.149 64.3588 173.149 62.2534C173.149 59.8131 173.627 57.6838 174.584 55.8656C175.541 54.0473 176.833 52.5401 178.46 51.3438C180.087 50.0998 181.929 49.1667 183.987 48.5447C186.044 47.9226 188.197 47.6116 190.446 47.6116C193.317 47.6116 195.925 48.0662 198.27 48.9753C200.662 49.8366 202.791 51.3678 204.658 53.5688L199.705 57.8752Z" fill="#3E3EA1"/>
<path d="M217.266 48.9035H226.237L243.463 88.7379H243.607L260.976 48.9035H269.732V99.7193H263.703V57.0857H263.56L245.329 99.7193H241.669L223.438 57.0857H223.295V99.7193H217.266V48.9035Z" fill="#3E3EA1"/>
<path d="M300.683 48.9035H306.353L327.957 99.7193H320.923L315.755 87.2307H290.347L285.108 99.7193H278.289L300.683 48.9035ZM303.41 56.6551H303.267L292.716 81.6323H313.459L303.41 56.6551Z" fill="#3E3EA1"/>
<path d="M336.505 48.9035H349.496C351.937 48.9035 354.353 49.0471 356.745 49.3342C359.186 49.6213 361.363 50.2433 363.277 51.2003C365.191 52.1573 366.746 53.5688 367.942 55.4349C369.138 57.2532 369.736 59.7413 369.736 62.8994C369.736 66.6316 368.612 69.6461 366.363 71.9429C364.114 74.2396 361.004 75.699 357.032 76.3211L371.459 99.7193H364.066L350.286 76.8952H342.534V99.7193H336.505V48.9035ZM342.534 71.2969H347.917C349.592 71.2969 351.314 71.2491 353.085 71.1534C354.903 71.0577 356.554 70.7466 358.037 70.2203C359.568 69.694 360.813 68.8805 361.77 67.78C362.774 66.6316 363.277 65.0048 363.277 62.8994C363.277 61.0811 362.918 59.6217 362.2 58.5212C361.482 57.4207 360.525 56.5833 359.329 56.0091C358.181 55.3871 356.865 54.9804 355.382 54.789C353.946 54.5976 352.487 54.5019 351.003 54.5019H342.534V71.2969Z" fill="#3E3EA1"/>
<path d="M415.008 54.5019H398.213V99.7193H392.184V54.5019H375.389V48.9035H415.008V54.5019Z" fill="#3E3EA1"/>
<path d="M459.523 59.3825C457.992 57.325 456.102 55.7938 453.853 54.789C451.604 53.7363 449.259 53.21 446.819 53.21C443.996 53.21 441.388 53.7841 438.996 54.9325C436.651 56.0809 434.618 57.636 432.895 59.5978C431.172 61.5118 429.833 63.7607 428.876 66.3445C427.919 68.8805 427.44 71.5362 427.44 74.3114C427.44 77.278 427.919 80.0533 428.876 82.6371C429.833 85.1731 431.148 87.3981 432.823 89.3121C434.546 91.1782 436.579 92.6615 438.924 93.7621C441.316 94.8626 443.948 95.4128 446.819 95.4128C449.929 95.4128 452.704 94.8147 455.145 93.6185C457.585 92.3744 459.714 90.604 461.533 88.3073L466.054 92.1113C463.758 95.1736 460.982 97.4225 457.729 98.858C454.523 100.293 450.886 101.011 446.819 101.011C443.183 101.011 439.785 100.341 436.627 99.0015C433.469 97.6618 430.718 95.8196 428.373 93.475C426.076 91.0825 424.258 88.2594 422.918 85.0057C421.626 81.7519 420.98 78.1872 420.98 74.3114C420.98 70.5792 421.603 67.0862 422.847 63.8325C424.139 60.5787 425.933 57.7556 428.23 55.3632C430.526 52.9707 433.254 51.0807 436.412 49.693C439.57 48.3054 443.039 47.6116 446.819 47.6116C450.264 47.6116 453.566 48.2336 456.724 49.4777C459.93 50.7218 462.609 52.7554 464.762 55.5785L459.523 59.3825Z" fill="#3E3EA1" fill-opacity="0.5"/>
<path d="M499.867 101.011C495.991 101.011 492.426 100.341 489.173 99.0015C485.967 97.6618 483.168 95.8196 480.775 93.475C478.431 91.0825 476.588 88.2594 475.249 85.0057C473.957 81.7041 473.311 78.1393 473.311 74.3114C473.311 70.4835 473.957 66.9426 475.249 63.6889C476.588 60.3873 478.431 57.5642 480.775 55.2196C483.168 52.8272 485.967 50.961 489.173 49.6213C492.426 48.2815 495.991 47.6116 499.867 47.6116C503.743 47.6116 507.284 48.2815 510.49 49.6213C513.743 50.961 516.542 52.8272 518.887 55.2196C521.279 57.5642 523.122 60.3873 524.414 63.6889C525.753 66.9426 526.423 70.4835 526.423 74.3114C526.423 78.1393 525.753 81.7041 524.414 85.0057C523.122 88.2594 521.279 91.0825 518.887 93.475C516.542 95.8196 513.743 97.6618 510.49 99.0015C507.284 100.341 503.743 101.011 499.867 101.011ZM499.867 95.4128C502.834 95.4128 505.537 94.8626 507.977 93.7621C510.466 92.6615 512.595 91.1543 514.365 89.2403C516.136 87.3264 517.499 85.1014 518.456 82.5654C519.461 79.9815 519.964 77.2302 519.964 74.3114C519.964 71.3926 519.461 68.6652 518.456 66.1292C517.499 63.5454 516.136 61.2964 514.365 59.3825C512.595 57.4685 510.466 55.9613 507.977 54.8607C505.537 53.7602 502.834 53.21 499.867 53.21C496.9 53.21 494.173 53.7602 491.685 54.8607C489.245 55.9613 487.139 57.4685 485.369 59.3825C483.598 61.2964 482.211 63.5454 481.206 66.1292C480.249 68.6652 479.77 71.3926 479.77 74.3114C479.77 77.2302 480.249 79.9815 481.206 82.5654C482.211 85.1014 483.598 87.3264 485.369 89.2403C487.139 91.1543 489.245 92.6615 491.685 93.7621C494.173 94.8626 496.9 95.4128 499.867 95.4128Z" fill="#3E3EA1" fill-opacity="0.5"/>
<path d="M537.906 48.9035H545.514L574.941 91.1064H575.085V48.9035H581.114V99.7193H573.506L544.078 57.5164H543.935V99.7193H537.906V48.9035Z" fill="#3E3EA1" fill-opacity="0.5"/>
<path d="M595.563 48.9035H603.171L632.598 91.1064H632.742V48.9035H638.771V99.7193H631.163L601.736 57.5164H601.592V99.7193H595.563V48.9035Z" fill="#3E3EA1" fill-opacity="0.5"/>
<path d="M653.22 48.9035H685.16V54.5019H659.249V70.4356H683.437V76.034H659.249V94.1209H686.452V99.7193H653.22V48.9035Z" fill="#3E3EA1" fill-opacity="0.5"/>
<path d="M733.16 59.3825C731.629 57.325 729.739 55.7938 727.49 54.789C725.241 53.7363 722.896 53.21 720.456 53.21C717.633 53.21 715.025 53.7841 712.633 54.9325C710.288 56.0809 708.254 57.636 706.532 59.5978C704.809 61.5118 703.47 63.7607 702.513 66.3445C701.556 68.8805 701.077 71.5362 701.077 74.3114C701.077 77.278 701.556 80.0533 702.513 82.6371C703.47 85.1731 704.785 87.3981 706.46 89.3121C708.183 91.1782 710.216 92.6615 712.561 93.7621C714.953 94.8626 717.585 95.4128 720.456 95.4128C723.566 95.4128 726.341 94.8147 728.782 93.6185C731.222 92.3744 733.351 90.604 735.17 88.3073L739.691 92.1113C737.395 95.1736 734.619 97.4225 731.366 98.858C728.16 100.293 724.523 101.011 720.456 101.011C716.819 101.011 713.422 100.341 710.264 99.0015C707.106 97.6618 704.355 95.8196 702.01 93.475C699.713 91.0825 697.895 88.2594 696.555 85.0057C695.263 81.7519 694.617 78.1872 694.617 74.3114C694.617 70.5792 695.24 67.0862 696.484 63.8325C697.776 60.5787 699.57 57.7556 701.867 55.3632C704.163 52.9707 706.891 51.0807 710.049 49.693C713.207 48.3054 716.676 47.6116 720.456 47.6116C723.901 47.6116 727.203 48.2336 730.361 49.4777C733.567 50.7218 736.246 52.7554 738.399 55.5785L733.16 59.3825Z" fill="#3E3EA1" fill-opacity="0.5"/>
<path d="M783.983 54.5019H767.188V99.7193H761.159V54.5019H744.364V48.9035H783.983V54.5019Z" fill="#3E3EA1" fill-opacity="0.5"/>
</svg>
