<svg width="586" height="378" viewBox="0 0 586 378" fill="none" xmlns="http://www.w3.org/2000/svg">
<path d="M298.682 138.195C291.174 140.204 283.234 140.375 275.549 138.616C264.208 136.019 254.195 129.394 247.37 119.972C240.544 110.549 237.371 98.9699 238.44 87.3843C239.508 75.7988 244.745 64.9948 253.178 56.9795C261.612 48.9641 272.668 44.2822 284.293 43.8035C295.917 43.3248 307.321 47.0819 316.385 54.3768C325.448 61.6716 331.556 72.0084 333.573 83.4669C335.32 93.3906 333.897 103.571 329.568 112.585L310.668 96.266C311.061 94.5052 311.269 92.6743 311.269 90.7949C311.269 76.9878 300.076 65.7949 286.269 65.7949C272.462 65.7949 261.269 76.9878 261.269 90.7949C261.269 104.602 272.462 115.795 286.269 115.795C290.809 115.795 295.067 114.584 298.737 112.469L346.825 153.989C341.661 159.271 335.819 163.877 329.436 167.68C318.589 174.141 306.447 178.123 293.879 179.338C281.312 180.553 268.632 178.972 256.748 174.707C244.864 170.443 234.071 163.602 225.143 154.674L212.135 167.682C222.982 178.529 236.096 186.841 250.535 192.022C264.974 197.203 280.38 199.125 295.65 197.648C310.919 196.172 325.672 191.335 338.851 183.484C350.101 176.782 359.965 168.027 367.941 157.693L373.865 150.832L344.291 125.297C352.158 111.674 354.987 95.7006 352.254 80.1781C349.44 64.1947 340.92 49.7759 328.277 39.6003C315.634 29.4247 299.728 24.184 283.512 24.8517C267.297 25.5194 251.875 32.0502 240.111 43.2308C228.348 54.4115 221.042 69.4819 219.552 85.6426C218.062 101.803 222.488 117.956 232.008 131.099C241.529 144.242 255.496 153.483 271.316 157.105C286.042 160.477 301.442 158.766 315.027 152.309L298.682 138.195Z" fill="white"/>
<path d="M48.6272 263.144C47.7448 261.715 46.5683 260.686 45.0977 260.055C43.627 259.383 42.0934 259.047 40.4967 259.047C39.3202 259.047 38.1647 259.194 37.0302 259.488C35.8958 259.782 34.8663 260.223 33.9419 260.812C33.0595 261.4 32.3452 262.177 31.799 263.144C31.2528 264.11 30.9797 265.245 30.9797 266.547C30.9797 267.556 31.1267 268.459 31.4209 269.257C31.757 270.014 32.2822 270.707 32.9965 271.337C33.7108 271.967 34.6772 272.556 35.8958 273.102C37.1143 273.648 38.6059 274.194 40.3707 274.741C42.0934 275.287 43.7531 275.875 45.3498 276.505C46.9885 277.136 48.4171 277.934 49.6356 278.9C50.8961 279.867 51.8835 281.085 52.5978 282.556C53.3542 283.985 53.7323 285.791 53.7323 287.976C53.7323 290.203 53.2911 292.136 52.4088 293.775C51.5264 295.413 50.3499 296.779 48.8793 297.871C47.4507 298.922 45.791 299.699 43.9002 300.203C42.0093 300.75 40.0555 301.023 38.0387 301.023C36.7361 301.023 35.4336 300.897 34.131 300.645C32.8285 300.435 31.5679 300.098 30.3494 299.636C29.1729 299.132 28.0594 298.502 27.009 297.745C25.9585 296.947 25.0551 295.981 24.2988 294.846L28.8368 291.128C29.8032 292.766 31.1477 294.006 32.8705 294.846C34.5932 295.687 36.421 296.107 38.3538 296.107C39.4883 296.107 40.6228 295.939 41.7572 295.602C42.9337 295.266 43.9842 294.783 44.9086 294.153C45.833 293.481 46.5893 292.661 47.1775 291.695C47.7658 290.728 48.0599 289.615 48.0599 288.354C48.0599 286.968 47.8288 285.854 47.3666 285.014C46.9044 284.132 46.1901 283.375 45.2237 282.745C44.2573 282.115 43.0388 281.547 41.5682 281.043C40.0975 280.539 38.3748 279.951 36.4 279.279C34.8033 278.774 33.3327 278.207 31.9881 277.577C30.6435 276.905 29.467 276.106 28.4586 275.182C27.4922 274.215 26.7149 273.081 26.1266 271.778C25.5804 270.434 25.3073 268.837 25.3073 266.988C25.3073 264.845 25.7274 262.976 26.5678 261.379C27.4081 259.782 28.5426 258.459 29.9712 257.408C31.3998 256.316 33.0175 255.496 34.8243 254.95C36.6311 254.404 38.5219 254.131 40.4967 254.131C43.0178 254.131 45.3077 254.53 47.3666 255.328C49.4675 256.085 51.3373 257.429 52.976 259.362L48.6272 263.144Z" fill="white"/>
<path d="M64.0475 255.265H71.9259L87.0523 290.245H87.1784L102.431 255.265H110.12V299.888H104.826V262.45H104.7L88.691 299.888H85.4767L69.4678 262.45H69.3418V299.888H64.0475V255.265Z" fill="white"/>
<path d="M137.299 255.265H142.278L161.249 299.888H155.072L150.535 288.922H128.223L123.622 299.888H117.635L137.299 255.265ZM139.694 262.072H139.568L130.303 284.006H148.518L139.694 262.072Z" fill="white"/>
<path d="M168.756 255.265H180.164C182.306 255.265 184.428 255.391 186.529 255.643C188.672 255.896 190.584 256.442 192.265 257.282C193.945 258.123 195.311 259.362 196.361 261.001C197.412 262.597 197.937 264.782 197.937 267.556C197.937 270.833 196.95 273.48 194.975 275.497C193 277.514 190.269 278.795 186.781 279.342L199.45 299.888H192.958L180.857 279.846H174.05V299.888H168.756V255.265ZM174.05 274.93H178.777C180.248 274.93 181.76 274.888 183.315 274.804C184.912 274.72 186.361 274.446 187.664 273.984C189.008 273.522 190.101 272.808 190.941 271.841C191.823 270.833 192.265 269.404 192.265 267.556C192.265 265.959 191.95 264.677 191.319 263.711C190.689 262.745 189.849 262.009 188.798 261.505C187.79 260.959 186.634 260.602 185.332 260.434C184.071 260.265 182.79 260.181 181.487 260.181H174.05V274.93Z" fill="white"/>
<path d="M237.691 260.181H222.943V299.888H217.649V260.181H202.9V255.265H237.691V260.181Z" fill="white"/>
<path d="M276.782 264.467C275.437 262.66 273.777 261.316 271.802 260.434C269.828 259.509 267.769 259.047 265.626 259.047C263.147 259.047 260.857 259.551 258.756 260.56C256.697 261.568 254.911 262.934 253.399 264.656C251.886 266.337 250.71 268.312 249.869 270.581C249.029 272.808 248.609 275.14 248.609 277.577C248.609 280.182 249.029 282.619 249.869 284.888C250.71 287.115 251.865 289.069 253.336 290.749C254.848 292.388 256.634 293.691 258.693 294.657C260.794 295.623 263.105 296.107 265.626 296.107C268.357 296.107 270.794 295.581 272.937 294.531C275.08 293.439 276.95 291.884 278.546 289.867L282.517 293.207C280.5 295.897 278.063 297.871 275.206 299.132C272.391 300.392 269.197 301.023 265.626 301.023C262.432 301.023 259.449 300.435 256.676 299.258C253.903 298.082 251.487 296.464 249.428 294.405C247.411 292.304 245.814 289.825 244.638 286.968C243.503 284.111 242.936 280.98 242.936 277.577C242.936 274.299 243.482 271.232 244.575 268.375C245.709 265.518 247.285 263.039 249.302 260.938C251.319 258.837 253.714 257.177 256.487 255.959C259.26 254.74 262.306 254.131 265.626 254.131C268.651 254.131 271.55 254.677 274.324 255.77C277.139 256.862 279.492 258.648 281.383 261.127L276.782 264.467Z" fill="white" fill-opacity="0.5"/>
<path d="M312.209 301.023C308.806 301.023 305.675 300.435 302.818 299.258C300.003 298.082 297.545 296.464 295.444 294.405C293.385 292.304 291.767 289.825 290.591 286.968C289.456 284.069 288.889 280.938 288.889 277.577C288.889 274.215 289.456 271.106 290.591 268.249C291.767 265.35 293.385 262.871 295.444 260.812C297.545 258.711 300.003 257.072 302.818 255.896C305.675 254.719 308.806 254.131 312.209 254.131C315.612 254.131 318.722 254.719 321.537 255.896C324.394 257.072 326.852 258.711 328.911 260.812C331.012 262.871 332.63 265.35 333.764 268.249C334.941 271.106 335.529 274.215 335.529 277.577C335.529 280.938 334.941 284.069 333.764 286.968C332.63 289.825 331.012 292.304 328.911 294.405C326.852 296.464 324.394 298.082 321.537 299.258C318.722 300.435 315.612 301.023 312.209 301.023ZM312.209 296.107C314.814 296.107 317.188 295.623 319.331 294.657C321.516 293.691 323.386 292.367 324.94 290.686C326.495 289.006 327.693 287.052 328.533 284.825C329.415 282.556 329.857 280.14 329.857 277.577C329.857 275.014 329.415 272.619 328.533 270.392C327.693 268.123 326.495 266.148 324.94 264.467C323.386 262.787 321.516 261.463 319.331 260.497C317.188 259.53 314.814 259.047 312.209 259.047C309.604 259.047 307.209 259.53 305.024 260.497C302.881 261.463 301.032 262.787 299.478 264.467C297.923 266.148 296.704 268.123 295.822 270.392C294.982 272.619 294.562 275.014 294.562 277.577C294.562 280.14 294.982 282.556 295.822 284.825C296.704 287.052 297.923 289.006 299.478 290.686C301.032 292.367 302.881 293.691 305.024 294.657C307.209 295.623 309.604 296.107 312.209 296.107Z" fill="white" fill-opacity="0.5"/>
<path d="M345.612 255.265H352.293L378.134 292.325H378.26V255.265H383.554V299.888H376.874L351.033 262.829H350.906V299.888H345.612V255.265Z" fill="white" fill-opacity="0.5"/>
<path d="M396.243 255.265H402.924L428.765 292.325H428.891V255.265H434.185V299.888H427.504L401.663 262.829H401.537V299.888H396.243V255.265Z" fill="white" fill-opacity="0.5"/>
<path d="M446.874 255.265H474.921V260.181H452.168V274.173H473.408V279.089H452.168V294.972H476.055V299.888H446.874V255.265Z" fill="white" fill-opacity="0.5"/>
<path d="M517.071 264.467C515.727 262.66 514.067 261.316 512.092 260.434C510.117 259.509 508.058 259.047 505.915 259.047C503.436 259.047 501.146 259.551 499.046 260.56C496.987 261.568 495.201 262.934 493.688 264.656C492.176 266.337 490.999 268.312 490.159 270.581C489.318 272.808 488.898 275.14 488.898 277.577C488.898 280.182 489.318 282.619 490.159 284.888C490.999 287.115 492.155 289.069 493.625 290.749C495.138 292.388 496.924 293.691 498.982 294.657C501.083 295.623 503.394 296.107 505.915 296.107C508.647 296.107 511.084 295.581 513.227 294.531C515.369 293.439 517.239 291.884 518.836 289.867L522.807 293.207C520.79 295.897 518.353 297.871 515.495 299.132C512.68 300.392 509.487 301.023 505.915 301.023C502.722 301.023 499.739 300.435 496.966 299.258C494.192 298.082 491.776 296.464 489.718 294.405C487.701 292.304 486.104 289.825 484.927 286.968C483.793 284.111 483.226 280.98 483.226 277.577C483.226 274.299 483.772 271.232 484.865 268.375C485.999 265.518 487.575 263.039 489.592 260.938C491.608 258.837 494.003 257.177 496.777 255.959C499.55 254.74 502.596 254.131 505.915 254.131C508.941 254.131 511.84 254.677 514.613 255.77C517.428 256.862 519.781 258.648 521.672 261.127L517.071 264.467Z" fill="white" fill-opacity="0.5"/>
<path d="M561.701 260.181H546.952V299.888H541.658V260.181H526.91V255.265H561.701V260.181Z" fill="white" fill-opacity="0.5"/>
<path d="M138.787 353.023V329.983H145.651C145.917 329.983 146.349 329.988 146.947 329.999C147.555 330.009 148.131 330.057 148.675 330.143C150.403 330.377 151.837 331.028 152.979 332.095C154.12 333.151 154.973 334.495 155.539 336.127C156.104 337.748 156.387 339.54 156.387 341.503C156.387 343.476 156.104 345.279 155.539 346.911C154.973 348.532 154.12 349.871 152.979 350.927C151.837 351.983 150.403 352.628 148.675 352.863C148.131 352.937 147.549 352.985 146.931 353.007C146.323 353.017 145.896 353.023 145.651 353.023H138.787ZM140.723 351.215H145.651C146.131 351.215 146.627 351.204 147.139 351.183C147.651 351.151 148.088 351.103 148.451 351.039C149.88 350.783 151.032 350.217 151.907 349.343C152.781 348.457 153.416 347.343 153.811 345.999C154.216 344.644 154.419 343.145 154.419 341.503C154.419 339.849 154.216 338.351 153.811 337.007C153.405 335.652 152.765 334.537 151.891 333.663C151.016 332.777 149.869 332.212 148.451 331.967C148.088 331.903 147.64 331.86 147.107 331.839C146.584 331.807 146.099 331.791 145.651 331.791H140.723V351.215Z" fill="white"/>
<path d="M165.935 353.503C164.601 353.503 163.492 353.268 162.607 352.799C161.732 352.329 161.076 351.711 160.639 350.943C160.201 350.164 159.983 349.321 159.983 348.415C159.983 347.433 160.185 346.612 160.591 345.951C161.007 345.289 161.556 344.756 162.239 344.351C162.932 343.945 163.695 343.641 164.527 343.439C165.476 343.225 166.5 343.044 167.599 342.895C168.697 342.735 169.743 342.596 170.735 342.479C171.737 342.361 172.553 342.26 173.183 342.175L172.511 342.575C172.553 340.708 172.201 339.321 171.455 338.415C170.719 337.497 169.417 337.039 167.551 337.039C166.239 337.039 165.156 337.337 164.303 337.935C163.46 338.521 162.868 339.433 162.527 340.671L160.639 340.143C161.033 338.575 161.828 337.369 163.023 336.527C164.217 335.684 165.748 335.263 167.615 335.263C169.204 335.263 170.537 335.572 171.615 336.191C172.703 336.809 173.46 337.679 173.887 338.799C174.068 339.257 174.191 339.796 174.255 340.415C174.319 341.023 174.351 341.636 174.351 342.255V353.023H172.671V348.479L173.295 348.639C172.772 350.196 171.86 351.396 170.559 352.239C169.257 353.081 167.716 353.503 165.935 353.503ZM166.031 351.807C167.204 351.807 168.233 351.599 169.119 351.183C170.004 350.756 170.719 350.164 171.263 349.407C171.817 348.639 172.169 347.737 172.319 346.703C172.425 346.127 172.484 345.503 172.495 344.831C172.505 344.159 172.511 343.663 172.511 343.343L173.311 343.855C172.617 343.94 171.785 344.031 170.815 344.127C169.855 344.223 168.873 344.34 167.871 344.479C166.868 344.617 165.961 344.793 165.151 345.007C164.649 345.145 164.143 345.348 163.631 345.615C163.129 345.871 162.708 346.228 162.367 346.687C162.036 347.145 161.871 347.727 161.871 348.431C161.871 348.953 161.999 349.476 162.255 349.999C162.521 350.521 162.959 350.953 163.567 351.295C164.175 351.636 164.996 351.807 166.031 351.807Z" fill="white"/>
<path d="M188.673 353.023C187.756 353.225 186.849 353.3 185.953 353.247C185.057 353.204 184.257 353.007 183.553 352.655C182.86 352.292 182.337 351.737 181.985 350.991C181.697 350.383 181.537 349.769 181.505 349.151C181.473 348.532 181.457 347.823 181.457 347.023V330.943H183.313V346.991C183.313 347.716 183.319 348.319 183.329 348.799C183.351 349.268 183.463 349.7 183.665 350.095C184.049 350.831 184.657 351.279 185.489 351.439C186.321 351.588 187.383 351.561 188.673 351.359V353.023ZM177.585 337.423V335.743H188.673V337.423H177.585Z" fill="white"/>
<path d="M197.966 353.503C196.633 353.503 195.523 353.268 194.638 352.799C193.763 352.329 193.107 351.711 192.67 350.943C192.233 350.164 192.014 349.321 192.014 348.415C192.014 347.433 192.217 346.612 192.622 345.951C193.038 345.289 193.587 344.756 194.27 344.351C194.963 343.945 195.726 343.641 196.558 343.439C197.507 343.225 198.531 343.044 199.63 342.895C200.729 342.735 201.774 342.596 202.766 342.479C203.769 342.361 204.585 342.26 205.214 342.175L204.542 342.575C204.585 340.708 204.233 339.321 203.486 338.415C202.75 337.497 201.449 337.039 199.582 337.039C198.27 337.039 197.187 337.337 196.334 337.935C195.491 338.521 194.899 339.433 194.558 340.671L192.67 340.143C193.065 338.575 193.859 337.369 195.054 336.527C196.249 335.684 197.779 335.263 199.646 335.263C201.235 335.263 202.569 335.572 203.646 336.191C204.734 336.809 205.491 337.679 205.918 338.799C206.099 339.257 206.222 339.796 206.286 340.415C206.35 341.023 206.382 341.636 206.382 342.255V353.023H204.702V348.479L205.326 348.639C204.803 350.196 203.891 351.396 202.59 352.239C201.289 353.081 199.747 353.503 197.966 353.503ZM198.062 351.807C199.235 351.807 200.265 351.599 201.15 351.183C202.035 350.756 202.75 350.164 203.294 349.407C203.849 348.639 204.201 347.737 204.35 346.703C204.457 346.127 204.515 345.503 204.526 344.831C204.537 344.159 204.542 343.663 204.542 343.343L205.342 343.855C204.649 343.94 203.817 344.031 202.846 344.127C201.886 344.223 200.905 344.34 199.902 344.479C198.899 344.617 197.993 344.793 197.182 345.007C196.681 345.145 196.174 345.348 195.662 345.615C195.161 345.871 194.739 346.228 194.398 346.687C194.067 347.145 193.902 347.727 193.902 348.431C193.902 348.953 194.03 349.476 194.286 349.999C194.553 350.521 194.99 350.953 195.598 351.295C196.206 351.636 197.027 351.807 198.062 351.807Z" fill="white"/>
<path d="M218.943 353.023V329.983H225.807C226.073 329.983 226.505 329.988 227.103 329.999C227.711 330.009 228.287 330.057 228.831 330.143C230.559 330.377 231.993 331.028 233.135 332.095C234.276 333.151 235.129 334.495 235.695 336.127C236.26 337.748 236.543 339.54 236.543 341.503C236.543 343.476 236.26 345.279 235.695 346.911C235.129 348.532 234.276 349.871 233.135 350.927C231.993 351.983 230.559 352.628 228.831 352.863C228.287 352.937 227.705 352.985 227.087 353.007C226.479 353.017 226.052 353.023 225.807 353.023H218.943ZM220.879 351.215H225.807C226.287 351.215 226.783 351.204 227.295 351.183C227.807 351.151 228.244 351.103 228.607 351.039C230.036 350.783 231.188 350.217 232.063 349.343C232.937 348.457 233.572 347.343 233.967 345.999C234.372 344.644 234.575 343.145 234.575 341.503C234.575 339.849 234.372 338.351 233.967 337.007C233.561 335.652 232.921 334.537 232.047 333.663C231.172 332.777 230.025 332.212 228.607 331.967C228.244 331.903 227.796 331.86 227.263 331.839C226.74 331.807 226.255 331.791 225.807 331.791H220.879V351.215Z" fill="white"/>
<path d="M241.099 353.023V335.743H242.779V339.887L242.363 339.343C242.555 338.852 242.795 338.399 243.083 337.983C243.382 337.556 243.686 337.209 243.995 336.943C244.454 336.516 244.992 336.196 245.611 335.983C246.23 335.759 246.854 335.631 247.483 335.599C248.112 335.556 248.683 335.604 249.195 335.743V337.487C248.512 337.327 247.787 337.295 247.019 337.391C246.251 337.487 245.531 337.817 244.859 338.383C244.272 338.895 243.846 339.492 243.579 340.175C243.312 340.847 243.142 341.556 243.067 342.303C242.992 343.039 242.955 343.759 242.955 344.463V353.023H241.099Z" fill="white"/>
<path d="M253.544 332.255V329.903H255.384V332.255H253.544ZM253.544 353.023V335.743H255.384V353.023H253.544Z" fill="white"/>
<path d="M265.865 353.023L259.593 335.743H261.497L266.841 350.511L272.169 335.743H274.089L267.817 353.023H265.865Z" fill="white"/>
<path d="M284.469 353.503C282.816 353.503 281.386 353.135 280.181 352.399C278.976 351.652 278.042 350.601 277.381 349.247C276.72 347.881 276.389 346.271 276.389 344.415C276.389 342.527 276.714 340.9 277.365 339.535C278.026 338.159 278.954 337.103 280.149 336.367C281.354 335.631 282.784 335.263 284.437 335.263C286.112 335.263 287.541 335.647 288.725 336.415C289.92 337.172 290.826 338.271 291.445 339.711C292.074 341.151 292.373 342.884 292.341 344.911H290.421V344.271C290.368 341.903 289.834 340.1 288.821 338.863C287.808 337.625 286.357 337.007 284.469 337.007C282.517 337.007 281.008 337.652 279.941 338.943C278.885 340.223 278.357 342.036 278.357 344.383C278.357 346.708 278.885 348.511 279.941 349.791C281.008 351.071 282.506 351.711 284.437 351.711C285.77 351.711 286.933 351.401 287.925 350.783C288.928 350.153 289.722 349.257 290.309 348.095L291.973 348.831C291.28 350.324 290.277 351.476 288.965 352.287C287.653 353.097 286.154 353.503 284.469 353.503ZM277.653 344.911V343.247H291.301V344.911H277.653Z" fill="white"/>
<path d="M303.264 353.471C301.27 353.471 299.622 353.049 298.32 352.207C297.03 351.364 296.23 350.191 295.92 348.687L297.808 348.367C298.075 349.391 298.704 350.207 299.696 350.815C300.688 351.423 301.904 351.727 303.344 351.727C304.774 351.727 305.91 351.423 306.752 350.815C307.595 350.207 308.016 349.375 308.016 348.319C308.016 347.743 307.883 347.273 307.616 346.911C307.36 346.537 306.848 346.196 306.08 345.887C305.312 345.577 304.171 345.215 302.656 344.799C301.056 344.372 299.803 343.945 298.896 343.519C298 343.092 297.366 342.607 296.992 342.063C296.63 341.519 296.448 340.852 296.448 340.063C296.448 339.113 296.72 338.281 297.264 337.567C297.808 336.841 298.566 336.276 299.536 335.871C300.518 335.465 301.648 335.263 302.928 335.263C304.208 335.263 305.36 335.476 306.384 335.903C307.408 336.319 308.235 336.905 308.864 337.663C309.494 338.409 309.856 339.279 309.952 340.271L308.064 340.623C307.883 339.513 307.323 338.639 306.384 337.999C305.446 337.348 304.272 337.017 302.864 337.007C301.531 336.985 300.443 337.252 299.6 337.807C298.758 338.351 298.336 339.071 298.336 339.967C298.336 340.479 298.48 340.916 298.768 341.279C299.067 341.631 299.59 341.956 300.336 342.255C301.083 342.553 302.139 342.873 303.504 343.215C305.168 343.641 306.464 344.079 307.392 344.527C308.331 344.975 308.992 345.503 309.376 346.111C309.76 346.708 309.952 347.449 309.952 348.335C309.952 349.935 309.355 351.193 308.16 352.111C306.976 353.017 305.344 353.471 303.264 353.471Z" fill="white"/>
<path d="M329.736 353.503C328.157 353.503 326.733 353.241 325.464 352.719C324.205 352.196 323.16 351.455 322.328 350.495C321.506 349.535 320.957 348.393 320.68 347.071L322.568 346.751C322.962 348.287 323.805 349.497 325.096 350.383C326.397 351.268 327.96 351.711 329.784 351.711C331.021 351.711 332.114 351.513 333.064 351.119C334.013 350.724 334.754 350.169 335.288 349.455C335.821 348.729 336.088 347.887 336.088 346.927C336.088 346.233 335.96 345.652 335.704 345.183C335.458 344.713 335.138 344.329 334.744 344.031C334.349 343.721 333.928 343.476 333.48 343.295C333.032 343.103 332.61 342.948 332.216 342.831L326.424 341.103C325.656 340.879 324.968 340.601 324.36 340.271C323.762 339.929 323.256 339.54 322.84 339.103C322.434 338.655 322.12 338.148 321.896 337.583C321.682 337.017 321.576 336.388 321.576 335.695C321.576 334.457 321.906 333.375 322.568 332.447C323.229 331.519 324.136 330.799 325.288 330.287C326.45 329.764 327.784 329.503 329.288 329.503C330.802 329.513 332.162 329.796 333.368 330.351C334.573 330.895 335.56 331.668 336.328 332.671C337.106 333.673 337.608 334.863 337.832 336.239L335.928 336.575C335.778 335.519 335.394 334.596 334.776 333.807C334.168 333.017 333.389 332.404 332.44 331.967C331.49 331.529 330.434 331.311 329.272 331.311C328.152 331.3 327.16 331.487 326.296 331.871C325.442 332.255 324.77 332.772 324.28 333.423C323.789 334.073 323.544 334.809 323.544 335.631C323.544 336.484 323.773 337.167 324.232 337.679C324.701 338.18 325.272 338.575 325.944 338.863C326.626 339.151 327.277 339.385 327.896 339.567L332.536 340.943C332.973 341.071 333.496 341.252 334.104 341.487C334.712 341.721 335.309 342.057 335.896 342.495C336.482 342.921 336.968 343.492 337.352 344.207C337.746 344.911 337.944 345.796 337.944 346.863C337.944 347.897 337.746 348.825 337.352 349.647C336.957 350.468 336.392 351.167 335.656 351.743C334.92 352.308 334.05 352.74 333.048 353.039C332.045 353.348 330.941 353.503 329.736 353.503Z" fill="white"/>
<path d="M348.833 353.423C347.883 353.423 347.03 353.284 346.273 353.007C345.526 352.729 344.875 352.34 344.321 351.839C343.766 351.327 343.307 350.729 342.945 350.047C342.582 349.353 342.31 348.596 342.129 347.775C341.958 346.953 341.873 346.095 341.873 345.199V335.743H343.729V344.735C343.729 345.823 343.835 346.793 344.049 347.647C344.273 348.5 344.603 349.225 345.041 349.823C345.489 350.42 346.043 350.873 346.705 351.183C347.377 351.492 348.166 351.647 349.073 351.647C350.011 351.647 350.822 351.487 351.505 351.167C352.198 350.836 352.763 350.377 353.201 349.791C353.649 349.204 353.979 348.511 354.193 347.711C354.417 346.9 354.529 346.02 354.529 345.071L355.985 345.247C355.985 347.113 355.665 348.655 355.025 349.871C354.395 351.076 353.542 351.972 352.465 352.559C351.387 353.135 350.177 353.423 348.833 353.423ZM354.705 353.023V349.135H354.529V335.743H356.385V353.023H354.705Z" fill="white"/>
<path d="M368.905 353.503C367.177 353.503 365.721 353.119 364.537 352.351C363.353 351.572 362.452 350.5 361.833 349.135C361.225 347.759 360.91 346.175 360.889 344.383C360.91 342.559 361.23 340.964 361.849 339.599C362.478 338.223 363.385 337.156 364.569 336.399C365.753 335.641 367.204 335.263 368.921 335.263C370.596 335.263 372.068 335.668 373.337 336.479C374.617 337.279 375.502 338.383 375.993 339.791L374.201 340.447C373.764 339.369 373.076 338.537 372.137 337.951C371.198 337.353 370.121 337.055 368.905 337.055C367.54 337.055 366.414 337.369 365.529 337.999C364.644 338.617 363.982 339.476 363.545 340.575C363.108 341.673 362.878 342.943 362.857 344.383C362.889 346.591 363.406 348.367 364.409 349.711C365.422 351.044 366.921 351.711 368.905 351.711C370.132 351.711 371.193 351.428 372.089 350.863C372.996 350.297 373.689 349.476 374.169 348.399L375.993 349.023C375.321 350.484 374.382 351.599 373.177 352.367C371.972 353.124 370.548 353.503 368.905 353.503Z" fill="white"/>
<path d="M386.936 353.503C385.208 353.503 383.752 353.119 382.568 352.351C381.384 351.572 380.483 350.5 379.864 349.135C379.256 347.759 378.942 346.175 378.92 344.383C378.942 342.559 379.262 340.964 379.88 339.599C380.51 338.223 381.416 337.156 382.6 336.399C383.784 335.641 385.235 335.263 386.952 335.263C388.627 335.263 390.099 335.668 391.368 336.479C392.648 337.279 393.534 338.383 394.024 339.791L392.232 340.447C391.795 339.369 391.107 338.537 390.168 337.951C389.23 337.353 388.152 337.055 386.936 337.055C385.571 337.055 384.446 337.369 383.56 337.999C382.675 338.617 382.014 339.476 381.576 340.575C381.139 341.673 380.91 342.943 380.888 344.383C380.92 346.591 381.438 348.367 382.44 349.711C383.454 351.044 384.952 351.711 386.936 351.711C388.163 351.711 389.224 351.428 390.12 350.863C391.027 350.297 391.72 349.476 392.2 348.399L394.024 349.023C393.352 350.484 392.414 351.599 391.208 352.367C390.003 353.124 388.579 353.503 386.936 353.503Z" fill="white"/>
<path d="M405.032 353.503C403.378 353.503 401.949 353.135 400.744 352.399C399.538 351.652 398.605 350.601 397.944 349.247C397.282 347.881 396.952 346.271 396.952 344.415C396.952 342.527 397.277 340.9 397.928 339.535C398.589 338.159 399.517 337.103 400.712 336.367C401.917 335.631 403.346 335.263 405 335.263C406.674 335.263 408.104 335.647 409.288 336.415C410.482 337.172 411.389 338.271 412.008 339.711C412.637 341.151 412.936 342.884 412.904 344.911H410.984V344.271C410.93 341.903 410.397 340.1 409.384 338.863C408.37 337.625 406.92 337.007 405.032 337.007C403.08 337.007 401.57 337.652 400.504 338.943C399.448 340.223 398.92 342.036 398.92 344.383C398.92 346.708 399.448 348.511 400.504 349.791C401.57 351.071 403.069 351.711 405 351.711C406.333 351.711 407.496 351.401 408.488 350.783C409.49 350.153 410.285 349.257 410.872 348.095L412.536 348.831C411.842 350.324 410.84 351.476 409.528 352.287C408.216 353.097 406.717 353.503 405.032 353.503ZM398.216 344.911V343.247H411.864V344.911H398.216Z" fill="white"/>
<path d="M423.827 353.471C421.832 353.471 420.184 353.049 418.883 352.207C417.592 351.364 416.792 350.191 416.483 348.687L418.371 348.367C418.637 349.391 419.267 350.207 420.259 350.815C421.251 351.423 422.467 351.727 423.907 351.727C425.336 351.727 426.472 351.423 427.315 350.815C428.157 350.207 428.579 349.375 428.579 348.319C428.579 347.743 428.445 347.273 428.179 346.911C427.923 346.537 427.411 346.196 426.643 345.887C425.875 345.577 424.733 345.215 423.219 344.799C421.619 344.372 420.365 343.945 419.459 343.519C418.563 343.092 417.928 342.607 417.555 342.063C417.192 341.519 417.011 340.852 417.011 340.063C417.011 339.113 417.283 338.281 417.827 337.567C418.371 336.841 419.128 336.276 420.099 335.871C421.08 335.465 422.211 335.263 423.491 335.263C424.771 335.263 425.923 335.476 426.947 335.903C427.971 336.319 428.797 336.905 429.427 337.663C430.056 338.409 430.419 339.279 430.515 340.271L428.627 340.623C428.445 339.513 427.885 338.639 426.947 337.999C426.008 337.348 424.835 337.017 423.427 337.007C422.093 336.985 421.005 337.252 420.163 337.807C419.32 338.351 418.899 339.071 418.899 339.967C418.899 340.479 419.043 340.916 419.331 341.279C419.629 341.631 420.152 341.956 420.899 342.255C421.645 342.553 422.701 342.873 424.067 343.215C425.731 343.641 427.027 344.079 427.955 344.527C428.893 344.975 429.555 345.503 429.939 346.111C430.323 346.708 430.515 347.449 430.515 348.335C430.515 349.935 429.917 351.193 428.723 352.111C427.539 353.017 425.907 353.471 423.827 353.471Z" fill="white"/>
<path d="M441.452 353.471C439.457 353.471 437.809 353.049 436.508 352.207C435.217 351.364 434.417 350.191 434.108 348.687L435.996 348.367C436.262 349.391 436.892 350.207 437.884 350.815C438.876 351.423 440.092 351.727 441.532 351.727C442.961 351.727 444.097 351.423 444.94 350.815C445.782 350.207 446.204 349.375 446.204 348.319C446.204 347.743 446.07 347.273 445.804 346.911C445.548 346.537 445.036 346.196 444.268 345.887C443.5 345.577 442.358 345.215 440.844 344.799C439.244 344.372 437.99 343.945 437.084 343.519C436.188 343.092 435.553 342.607 435.18 342.063C434.817 341.519 434.636 340.852 434.636 340.063C434.636 339.113 434.908 338.281 435.452 337.567C435.996 336.841 436.753 336.276 437.724 335.871C438.705 335.465 439.836 335.263 441.116 335.263C442.396 335.263 443.548 335.476 444.572 335.903C445.596 336.319 446.422 336.905 447.052 337.663C447.681 338.409 448.044 339.279 448.14 340.271L446.252 340.623C446.07 339.513 445.51 338.639 444.572 337.999C443.633 337.348 442.46 337.017 441.052 337.007C439.718 336.985 438.63 337.252 437.788 337.807C436.945 338.351 436.524 339.071 436.524 339.967C436.524 340.479 436.668 340.916 436.956 341.279C437.254 341.631 437.777 341.956 438.524 342.255C439.27 342.553 440.326 342.873 441.692 343.215C443.356 343.641 444.652 344.079 445.58 344.527C446.518 344.975 447.18 345.503 447.564 346.111C447.948 346.708 448.14 347.449 448.14 348.335C448.14 349.935 447.542 351.193 446.348 352.111C445.164 353.017 443.532 353.471 441.452 353.471Z" fill="white"/>
</svg>
