<svg width="180" height="180" viewBox="0 0 180 180" fill="none" xmlns="http://www.w3.org/2000/svg">
<path d="M95.1131 114.059C88.3558 115.866 81.2098 116.02 74.2939 114.437C64.0867 112.1 55.0748 106.137 48.9321 97.6573C42.7894 89.1771 39.9336 78.7555 40.8951 68.3285C41.8567 57.9015 46.5702 48.178 54.1601 40.9641C61.7501 33.7503 71.7004 29.5366 82.1628 29.1058C92.6251 28.675 102.888 32.0563 111.046 38.6217C119.203 45.1871 124.7 54.4902 126.516 64.8028C128.088 73.7342 126.806 82.8969 122.911 91.0093L105.901 76.322C106.255 74.7373 106.441 73.0895 106.441 71.398C106.441 58.9716 96.3677 48.898 83.9413 48.898C71.5149 48.898 61.4413 58.9716 61.4413 71.398C61.4413 83.8245 71.5149 93.898 83.9413 93.898C88.0278 93.898 91.8598 92.8086 95.1628 90.9044L138.442 128.273C133.794 133.026 128.537 137.172 122.792 140.594C113.03 146.41 102.102 149.993 90.7909 151.087C79.4804 152.18 68.0679 150.757 57.3723 146.919C46.6767 143.081 36.9629 136.924 28.9279 128.889L17.2207 140.596C26.9833 150.359 38.7855 157.84 51.7807 162.503C64.7758 167.166 78.6419 168.895 92.3842 167.566C106.127 166.237 119.405 161.884 131.266 154.818C141.39 148.787 150.268 140.907 157.446 131.606L162.778 125.432L136.161 102.45C143.241 90.1892 145.788 75.8132 143.328 61.8429C140.796 47.4578 133.128 34.481 121.749 25.3229C110.37 16.1648 96.0544 11.4482 81.4604 12.0491C66.8665 12.6501 52.9867 18.5278 42.3995 28.5904C31.8123 38.6529 25.2374 52.2163 23.8961 66.7609C22.5549 81.3055 26.5385 95.8426 35.1069 107.672C43.6754 119.501 56.2462 127.818 70.4841 131.077C83.7376 134.112 97.597 132.572 109.824 126.761L95.1131 114.059Z" fill="#3E3EA1"/>
</svg>
