<svg width="250" height="200" viewBox="0 0 250 200" fill="none" xmlns="http://www.w3.org/2000/svg">
<g opacity="0.1">
<path d="M136 64C139.866 64 143 67.134 143 71C143 74.866 139.866 78 136 78H200C203.866 78 207 81.134 207 85C207 88.866 203.866 92 200 92H222C225.866 92 229 95.134 229 99C229 102.866 225.866 106 222 106H203C199.134 106 196 109.134 196 113C196 116.866 199.134 120 203 120H209C212.866 120 216 123.134 216 127C216 130.866 212.866 134 209 134H166V112H138C138 111.767 137.994 111.536 137.981 111.307H166L156.439 83.0391C156.027 81.8204 154.884 81 153.598 81H96.4023C95.1159 81 93.9727 81.8204 93.5605 83.0391L84 111.307H112.019C112.006 111.536 112 111.767 112 112H84V134H63C59.134 134 56 130.866 56 127C56 123.134 59.134 120 63 120H24C20.134 120 17 116.866 17 113C17 109.134 20.134 106 24 106H64C67.866 106 71 102.866 71 99C71 95.134 67.866 92 64 92H39C35.134 92 32 88.866 32 85C32 81.134 35.134 78 39 78H79C75.134 78 72 74.866 72 71C72 67.134 75.134 64 79 64H136Z" fill="#1F64E7"/>
<path d="M226 120C229.866 120 233 123.134 233 127C233 130.866 229.866 134 226 134C222.134 134 219 130.866 219 127C219 123.134 222.134 120 226 120Z" fill="#1F64E7"/>
</g>
<path opacity="0.2" fill-rule="evenodd" clip-rule="evenodd" d="M136.098 112.955C136.098 118.502 131.129 124 125 124C118.871 124 113.902 118.502 113.902 112.955C113.902 112.775 113.908 111.596 113.918 111.419H93L101.161 91.5755C101.513 90.6338 102.489 90 103.587 90H146.413C147.511 90 148.487 90.6338 148.839 91.5755L157 111.419H136.082C136.092 111.596 136.098 112.775 136.098 112.955Z" fill="#1F64E7"/>
<path fill-rule="evenodd" clip-rule="evenodd" d="M85.25 111.512V138C85.25 138.966 86.0335 139.75 87 139.75H163C163.966 139.75 164.75 138.966 164.75 138V111.512L155.255 83.4393C155.015 82.7285 154.348 82.25 153.598 82.25H96.4023C95.6519 82.25 94.985 82.7285 94.7446 83.4393L85.25 111.512Z" stroke="#1F64E7" stroke-width="2.5"/>
<path d="M98 111C101.937 111 106.185 111 110.745 111C112.621 111 112.621 112.319 112.621 113C112.621 119.627 118.117 125 124.897 125C131.677 125 137.173 119.627 137.173 113C137.173 112.319 137.173 111 139.05 111H164M90.5737 111H93H90.5737Z" stroke="#1F64E7" stroke-width="2.5" stroke-linecap="round" stroke-linejoin="round"/>
<path opacity="0.7" d="M150.1 58.3027L139 70.7559M124.1 54V70.7559V54ZM98 58.3027L109.1 70.7559L98 58.3027Z" stroke="#1F64E7" stroke-width="2.5" stroke-linecap="round" stroke-linejoin="round"/>
</svg>
